<?xml version="1.0" encoding="utf-8"?>
<!-- Generator: Adobe Illustrator 27.5.0, SVG Export Plug-In . SVG Version: 6.00 Build 0)  -->
<svg version="1.1" xmlns="http://www.w3.org/2000/svg" xmlns:xlink="http://www.w3.org/1999/xlink" x="0px" y="0px"
	 viewBox="0 0 500 500" style="enable-background:new 0 0 500 500;" xml:space="preserve">
<g id="Background_Complete">
	<g>
		<rect x="416.779" y="398.494" style="fill:#EBEBEB;" width="33.122" height="0.25"/>
		<rect x="322.527" y="401.208" style="fill:#EBEBEB;" width="8.693" height="0.25"/>
		<rect x="396.586" y="389.208" style="fill:#EBEBEB;" width="19.192" height="0.25"/>
		<rect x="52.459" y="390.888" style="fill:#EBEBEB;" width="43.193" height="0.25"/>
		<rect x="104.556" y="390.888" style="fill:#EBEBEB;" width="6.333" height="0.25"/>
		<rect x="131.471" y="395.111" style="fill:#EBEBEB;" width="93.676" height="0.25"/>
		<path style="fill:#EBEBEB;" d="M237.014,337.8H43.915c-3.147,0-5.708-2.561-5.708-5.708V60.66c0-3.147,2.561-5.708,5.708-5.708
			h193.099c3.146,0,5.707,2.561,5.707,5.708v271.432C242.721,335.239,240.16,337.8,237.014,337.8z M43.915,55.203
			c-3.01,0-5.458,2.448-5.458,5.458v271.432c0,3.01,2.448,5.458,5.458,5.458h193.099c3.009,0,5.457-2.448,5.457-5.458V60.66
			c0-3.009-2.448-5.458-5.457-5.458H43.915z"/>
		<path style="fill:#EBEBEB;" d="M453.31,337.8H260.212c-3.147,0-5.707-2.561-5.707-5.708V60.66c0-3.147,2.561-5.708,5.707-5.708
			H453.31c3.148,0,5.708,2.561,5.708,5.708v271.432C459.019,335.239,456.458,337.8,453.31,337.8z M260.212,55.203
			c-3.009,0-5.457,2.448-5.457,5.458v271.432c0,3.01,2.448,5.458,5.457,5.458H453.31c3.01,0,5.458-2.448,5.458-5.458V60.66
			c0-3.009-2.448-5.458-5.458-5.458H260.212z"/>
		<rect y="382.398" style="fill:#EBEBEB;" width="500" height="0.25"/>
	</g>
	<g>
		<g>
			<path style="fill:#F5F5F5;" d="M220.855,119.677H58.6V85.456c0-3.561,2.887-6.448,6.448-6.448h149.358
				c3.561,0,6.448,2.887,6.448,6.448V119.677z"/>
			<path style="fill:#F0F0F0;" d="M214.407,134.736H65.049c-3.561,0-6.448-2.887-6.448-6.448v-5.857h162.255v5.857
				C220.855,131.85,217.968,134.736,214.407,134.736z"/>
			<path style="fill:#E0E0E0;" d="M82.034,114.276H67.257c-1.271,0-2.302-1.031-2.302-2.302v-3.656c0-1.272,1.031-2.302,2.302-2.302
				h14.777c1.272,0,2.302,1.031,2.302,2.302v3.656C84.337,113.245,83.306,114.276,82.034,114.276z"/>
			<path style="fill:#E0E0E0;" d="M211.986,114.276h-4.609c-1.272,0-2.302-1.031-2.302-2.302v-3.656
				c0-1.272,1.031-2.302,2.302-2.302h4.609c1.271,0,2.302,1.031,2.302,2.302v3.656C214.289,113.245,213.258,114.276,211.986,114.276
				z"/>
			<polygon style="fill:#E0E0E0;" points="216.831,126.042 62.096,126.042 64.637,124.761 214.289,124.761 			"/>
			<polygon style="fill:#E0E0E0;" points="216.831,129.224 62.096,129.224 64.637,127.943 214.289,127.943 			"/>
			<polygon style="fill:#E0E0E0;" points="216.831,132.406 62.096,132.406 64.637,131.126 214.289,131.126 			"/>
		</g>
		<g>
			<g>
				<rect x="310.381" y="200.615" style="fill:#F0F0F0;" width="100.424" height="182.526"/>
				<rect x="410.806" y="200.615" style="fill:#E6E6E6;" width="28.411" height="182.526"/>
				<rect x="320.813" y="215.32" style="fill:#FAFAFA;" width="80.327" height="48.126"/>
				<rect x="320.813" y="268.703" style="fill:#FAFAFA;" width="80.327" height="48.126"/>
				<rect x="320.813" y="322.085" style="fill:#FAFAFA;" width="80.327" height="48.126"/>
				<g>
					<path style="fill:#E0E0E0;" d="M365.039,226.031c0,2.958-2.398,5.355-5.355,5.355c-2.958,0-5.356-2.397-5.356-5.355
						c0-2.958,2.398-5.356,5.356-5.356C362.641,220.675,365.039,223.073,365.039,226.031z"/>
					<path style="fill:#F0F0F0;" d="M362.271,226.031c0,2.958-2.398,5.355-5.356,5.355c-2.958,0-5.355-2.397-5.355-5.355
						c0-2.958,2.398-5.356,5.355-5.356C359.873,220.675,362.271,223.073,362.271,226.031z"/>
				</g>
				<g>
					<path style="fill:#E0E0E0;" d="M365.039,279.21c0,2.958-2.398,5.355-5.355,5.355c-2.958,0-5.356-2.398-5.356-5.355
						c0-2.958,2.398-5.355,5.356-5.355C362.641,273.854,365.039,276.252,365.039,279.21z"/>
					<path style="fill:#F0F0F0;" d="M362.271,279.21c0,2.958-2.398,5.355-5.356,5.355c-2.958,0-5.355-2.398-5.355-5.355
						c0-2.958,2.398-5.355,5.355-5.355C359.873,273.854,362.271,276.252,362.271,279.21z"/>
				</g>
				<g>
					<path style="fill:#E0E0E0;" d="M365.039,332.388c0,2.957-2.398,5.355-5.355,5.355c-2.958,0-5.356-2.398-5.356-5.355
						c0-2.958,2.398-5.355,5.356-5.355C362.641,327.033,365.039,329.43,365.039,332.388z"/>
					<path style="fill:#F0F0F0;" d="M362.271,332.388c0,2.957-2.398,5.355-5.356,5.355c-2.958,0-5.355-2.398-5.355-5.355
						c0-2.958,2.398-5.355,5.355-5.355C359.873,327.033,362.271,329.43,362.271,332.388z"/>
				</g>
			</g>
			<g>
				<path style="fill:#E0E0E0;" d="M377.028,165.304c-2.69,0-4.871,0.666-4.871,1.488c0,0.822,2.181-0.288,4.871-0.288
					c0.355,0,0.699,0.021,1.032,0.053v5.893h1.538v-5.665c1.377,0.262,2.301,0.54,2.301,0.008
					C381.899,165.97,379.718,165.304,377.028,165.304z"/>
				<rect x="376.086" y="170.529" style="fill:#EBEBEB;" width="5.487" height="5.486"/>
				<path style="fill:#EBEBEB;" d="M384.958,200.947H372.7c-1.37,0-2.48-1.11-2.48-2.48v-21.012c0-1.37,1.11-2.48,2.48-2.48h12.258
					c1.37,0,2.48,1.11,2.48,2.48v21.012C387.438,199.836,386.327,200.947,384.958,200.947z"/>
				<path style="fill:#FAFAFA;" d="M371.436,183.978v13.44c0,1.275,1.037,2.312,2.312,2.312h10.161c1.275,0,2.312-1.037,2.312-2.312
					v-15.911C381.884,181.529,374.871,184.168,371.436,183.978z"/>
				<polygon style="fill:#E0E0E0;" points="381.184,188.062 379.589,188.062 379.589,186.467 378.069,186.467 378.069,188.062 
					376.474,188.062 376.474,189.581 378.069,189.581 378.069,191.176 379.589,191.176 379.589,189.581 381.184,189.581 				"/>
			</g>
		</g>
	</g>
	<g>
		<rect x="207.892" y="353.286" style="fill:#E0E0E0;" width="53.175" height="5.623"/>
		<path style="fill:#E0E0E0;" d="M267.889,274.199h-72.821v14.815h72.821c4.091,0,7.408-3.317,7.408-7.408
			C275.296,277.515,271.98,274.199,267.889,274.199z"/>
		<path style="fill:#EBEBEB;" d="M215.098,289.014H73.004c-4.091,0-7.408-3.317-7.408-7.408l0,0c0-4.091,3.316-7.408,7.408-7.408
			h142.094c4.091,0,7.408,3.316,7.408,7.408l0,0C222.506,285.698,219.189,289.014,215.098,289.014z"/>
		<rect x="257.516" y="296.422" style="fill:#F5F5F5;" width="7.102" height="75.428"/>
		<path style="fill:#E0E0E0;" d="M268.226,377.211c0,3.954-3.205,7.159-7.159,7.159c-3.954,0-7.159-3.205-7.159-7.159
			c0-3.954,3.205-7.159,7.159-7.159C265.021,370.052,268.226,373.258,268.226,377.211z"/>
		<rect x="128.721" y="296.422" style="fill:#F5F5F5;" width="7.102" height="75.428"/>
		<path style="fill:#E0E0E0;" d="M139.432,377.211c0,3.954-3.205,7.159-7.159,7.159c-3.954,0-7.159-3.205-7.159-7.159
			c0-3.954,3.205-7.159,7.159-7.159C136.226,370.052,139.432,373.258,139.432,377.211z"/>
		<rect x="65.596" y="289.014" style="fill:#E6E6E6;" width="157.479" height="7.408"/>
		<rect x="220.32" y="289.014" style="fill:#F0F0F0;" width="54.976" height="7.408"/>
		<rect x="79.825" y="353.286" style="fill:#E0E0E0;" width="128.067" height="5.623"/>
		<rect x="76.274" y="296.422" style="fill:#EBEBEB;" width="7.102" height="75.428"/>
		<path style="fill:#E0E0E0;" d="M86.984,377.211c0,3.954-3.205,7.159-7.159,7.159c-3.954,0-7.159-3.205-7.159-7.159
			c0-3.954,3.205-7.159,7.159-7.159C83.779,370.052,86.984,373.258,86.984,377.211z"/>
		<rect x="205.069" y="296.422" style="fill:#EBEBEB;" width="7.102" height="75.428"/>
		<path style="fill:#E0E0E0;" d="M215.779,377.211c0,3.954-3.205,7.159-7.159,7.159c-3.954,0-7.159-3.205-7.159-7.159
			c0-3.954,3.205-7.159,7.159-7.159C212.574,370.052,215.779,373.258,215.779,377.211z"/>
	</g>
</g>
<g id="Background_Simple" style="display:none;">
	<g style="display:inline;">
		<g>
			<path style="fill:#407BFF;" d="M439.981,286.188c6.597-13.998,7.249-31.008,2.84-46.05
				c-6.948-23.705-24.943-43.008-46.871-50.282c-19.712-6.539-42.168-3.053-60.287-15.125
				c-19.592-13.053-23.817-37.718-35.646-57.191c-31.262-51.466-107.647-59.92-158.776-50.697
				C60.628,81.384,25.396,187.938,82.283,252.601c0.294,0.331,0.588,0.662,0.882,0.993c17.804,19.807,40.621,33.489,63.987,44.649
				c48.123,22.986,100.111,36.434,152.635,39.644c45.126,2.758,111.244-1.236,138.155-47.797
				C438.675,288.82,439.355,287.518,439.981,286.188z"/>
		</g>
		<g style="opacity:0.9;">
			<path style="fill:#FFFFFF;" d="M439.981,286.188c6.597-13.998,7.249-31.008,2.84-46.05
				c-6.948-23.705-24.943-43.008-46.871-50.282c-19.712-6.539-42.168-3.053-60.287-15.125
				c-19.592-13.053-23.817-37.718-35.646-57.191c-31.262-51.466-107.647-59.92-158.776-50.697
				C60.628,81.384,25.396,187.938,82.283,252.601c0.294,0.331,0.588,0.662,0.882,0.993c17.804,19.807,40.621,33.489,63.987,44.649
				c48.123,22.986,100.111,36.434,152.635,39.644c45.126,2.758,111.244-1.236,138.155-47.797
				C438.675,288.82,439.355,287.518,439.981,286.188z"/>
		</g>
	</g>
</g>
<g id="Shadow">
	<ellipse id="_x3C_Path_x3E__1_" style="fill:#F5F5F5;" cx="245.178" cy="412.391" rx="193.889" ry="11.323"/>
</g>
<g id="Board">
	<g>
		<g>
			<rect x="131.471" y="99" style="fill:#407BFF;" width="206.228" height="166.667"/>
			<rect x="131.471" y="99" style="opacity:0.9;fill:#FFFFFF;" width="206.228" height="166.667"/>
			<polygon style="fill:#263238;" points="329.199,257.167 139.971,257.167 139.971,107.5 131.471,99 131.471,265.667 
				337.699,265.667 			"/>
			<polygon style="opacity:0.4;fill:#FFFFFF;" points="329.199,257.167 139.971,257.167 139.971,107.5 131.471,99 131.471,265.667 
				337.699,265.667 			"/>
			<polygon style="fill:#263238;" points="337.699,265.667 337.699,99 131.471,99 139.971,107.5 329.199,107.5 329.199,257.167 			
				"/>
			<polygon style="opacity:0.7;fill:#FFFFFF;" points="337.699,265.667 337.699,99 131.471,99 139.971,107.5 329.199,107.5 
				329.199,257.167 			"/>
		</g>
		<g>
			<polygon style="fill:#263238;" points="245.433,395.692 245.433,265.667 229.193,265.667 229.193,395.692 192.577,401.068 
				192.577,410.446 282.049,410.446 282.049,401.068 			"/>
			<polygon style="fill:#263238;" points="239.977,395.692 239.977,265.667 223.737,265.667 223.737,395.692 187.121,401.068 
				187.121,410.446 276.593,410.446 276.593,401.068 			"/>
			<polygon style="opacity:0.2;fill:#FFFFFF;" points="239.977,395.692 239.977,265.667 223.737,265.667 223.737,395.692 
				187.121,401.068 187.121,410.446 276.593,410.446 276.593,401.068 			"/>
		</g>
	</g>
</g>
<g id="Foot">
	<g>
		<rect x="246.924" y="209.363" style="fill:#263238;" width="71.221" height="47.787"/>
		<path style="opacity:0.1;fill:#FFFFFF;" d="M277.756,222.305c-0.725-3.153,0-12.942,0-12.942h-18.924
			c0.113,4.505,0.006,15.746-3.506,21.704c-4.459,7.563-4.449,22.139,7.293,21.453c11.742-0.686,25.289-2.229,33.521-1.029
			c8.231,1.2,22.007-2.915,22.007-2.915v-4.14C318.146,244.436,282.596,243.36,277.756,222.305z"/>
		<path style="fill:#407BFF;" d="M288.386,240.417c0,0,1.522-2.1,7.239,0c5.716,2.1,7.79,2.854,7.324,5.221
			c-0.465,2.367-3.649,4.31-8.745,3.281C289.108,247.89,281.604,246.548,288.386,240.417z"/>
		<g>
			<path style="fill:#FFFFFF;" d="M264.414,209.363c0,0,0.915,8.803,0,14.29c-0.914,5.488-3.201,10.403-0.572,11.432
				c2.629,1.029,5.259-3.201,5.259-3.201s4.916-3.887,2.401-7.545l-1.6-14.976H264.414z"/>
			<path style="fill:#FFFFFF;" d="M269.101,236.686c0,0-7.431,1.601-0.686,2.629c0,0,8.231,3.201,7.202-1.315
				c0,0,4.751-3.83,0.089-4.859C275.707,233.143,274.132,226.626,269.101,236.686z"/>
			<path style="fill:#FFFFFF;" d="M262.219,239.518c-0.29-0.451-0.849-0.665-1.376-0.569c-1.446,0.263-3.785,1.269-3.06,5.054
				c1.029,5.373,6.859,4.116,8.803,1.829c1.258-1.48,4.697-0.29,7.104-0.714c1.62-0.286,1.346-2.716-0.299-2.684
				C269.833,242.502,263.94,242.187,262.219,239.518z"/>
			<path style="fill:#FFFFFF;" d="M277.162,239.398c0.135-0.774,0.514-1.908,1.536-3.113c0.547-0.645,1.473-0.824,2.232-0.452
				l0.622,0.304c1.114,0.545,1.388,1.994,0.566,2.922c-0.422,0.477-0.854,1.057-1.229,1.743c-0.609,1.114-2.105,1.346-2.989,0.435
				l-0.234-0.241C277.255,240.572,277.061,239.98,277.162,239.398z"/>
			<path style="fill:#FFFFFF;" d="M284.158,241.565l1.552-1.957c0.361-0.456,0.949-0.661,1.517-0.537
				c0.902,0.196,2.136,0.647,2.36,1.66c0.091,0.412-0.063,0.841-0.332,1.167l-1.679,2.034c-0.458,0.555-1.237,0.648-1.867,0.298
				c-0.191-0.106-0.428-0.197-0.724-0.259C283.907,243.744,283.474,242.428,284.158,241.565z"/>
			<path style="fill:#FFFFFF;" d="M291.509,242.631c0.288-0.494,0.039-2.006,0.572-2.215c1.266-0.496,3.268,2.563,4.573,2.944
				c0.768,0.224,2.763-0.67,3.201,0c0.662,1.013-0.77,4.136-1.944,4.434c-0.684,0.174-1.565-1.495-2.229-1.733
				c-1.71-0.613-6.604,1.352-7.259-0.343C288.028,244.7,290.96,243.575,291.509,242.631z"/>
			<path style="fill:#FFFFFF;" d="M301.295,245.792c0.081-0.286-0.239-1.014,0.001-1.187c0.572-0.413,1.974,0.867,2.679,0.889
				c0.415,0.013,1.303-0.694,1.609-0.413c0.464,0.424,0.147,2.179-0.404,2.48c-0.322,0.176-0.98-0.55-1.345-0.583
				c-0.939-0.087-3.146,1.532-3.694,0.765C299.812,247.282,301.141,246.337,301.295,245.792z"/>
			<path style="fill:#FFFFFF;" d="M306.875,246.474L306.875,246.474c-0.142,0.68,0.403,1.315,1.097,1.264
				c1.291-0.095,3.019-0.351,2.957-1.039c-0.067-0.743-1.823-0.982-2.947-1.059C307.455,245.604,306.983,245.958,306.875,246.474z"
				/>
		</g>
		<g>
			<path style="fill:#407BFF;" d="M294.204,255.515c-4.827,0-9.023-3.038-10.561-7.514c-0.196-0.57,0.157-1.185,0.743-1.323
				l0.003-0.001c0.513-0.122,1.031,0.167,1.204,0.665c1.259,3.643,4.679,6.115,8.612,6.115c2.122,0,4.134-0.721,5.755-2.046
				c0.41-0.335,1.003-0.311,1.377,0.063l0,0c0.43,0.43,0.399,1.142-0.071,1.527C299.277,254.63,296.809,255.515,294.204,255.515z"/>
		</g>
		<g>
			<path style="fill:#407BFF;" d="M303.659,240.824c-0.493,0.184-1.042-0.037-1.276-0.51c-1.52-3.077-4.699-5.087-8.179-5.087
				c-1.132,0-2.224,0.201-3.26,0.599c-0.493,0.189-1.048-0.019-1.286-0.49l0,0c-0.275-0.543-0.022-1.211,0.546-1.43
				c1.271-0.489,2.612-0.737,4-0.737c4.266,0,8.165,2.466,10.027,6.24c0.268,0.544-0.003,1.203-0.571,1.414L303.659,240.824z"/>
		</g>
	</g>
</g>
<g id="Knee">
	<g>
		<rect x="247.209" y="115.218" style="fill:#263238;" width="70.26" height="84.225"/>
		<path style="opacity:0.1;fill:#FFFFFF;" d="M247.209,144.02c6.787,3.41,22.787,10.941,31.725,10.941
			c0,0-1.746,13.091,1.142,44.483h23.727c0.645-5.237,2.631-21.795,3.063-30.431c0.517-10.345,5.948-20.04,3.362-28.77
			c-2.586-8.73-8.535-8.213-19.656-13.903c-6.034-3.087-14.272-7.619-20.55-11.121h-22.813V144.02z"/>
		<path style="fill:#407BFF;" d="M285.485,150.503c0,0,4.397,0.88,5,4.457c0.603,3.578,11.675,0,11.675,0l1.274-8.552
			c0,0-0.475-3.053-7.574-7.423C288.761,134.615,285.485,150.503,285.485,150.503z"/>
		<path style="fill:#FFFFFF;" d="M299.147,147.592c-1.139-1.239-2.137-2.945-2.04-5.069c0.072-1.587,1.725-2.661,3.231-2.154
			c1.841,0.62,3.855,2.171,3.097,6.039C303.044,148.399,300.519,149.086,299.147,147.592z"/>
		<path style="fill:#FFFFFF;" d="M295.926,155.995c0,0-5.269-3.104-3.717-6.207c1.552-3.104,5.69,3.104,9.138,3.104
			s-4.247,46.552-4.247,46.552h-5.176C291.923,199.444,296.546,170.552,295.926,155.995z"/>
		<path style="fill:#FFFFFF;" d="M289.451,199.444h-3.966c0,0,2.967-28.745,1.983-38.276c-0.193-1.867-0.862-6.163,3.017-6.207
			s0.345,8.276,0.345,8.276L289.451,199.444z"/>
		<path style="fill:#FFFFFF;" d="M286.175,136.167l-38.966-20.163v9.336l34.483,19.447c5.506,13.815,10.69,0,10.69,0
			C303.072,135.133,286.175,136.167,286.175,136.167z"/>
		<g>
			<path style="fill:#407BFF;" d="M282.921,162.027c-3.992-3.007-6.455-7.583-6.763-12.565c-0.036-0.581,0.449-1.063,1.03-1.063
				h0.001c0.536,0,1.001,0.407,1.034,0.942c0.272,4.372,2.434,8.387,5.936,11.028c0.429,0.323,0.512,0.936,0.216,1.384l0,0
				C284.055,162.238,283.386,162.376,282.921,162.027z"/>
		</g>
		<g>
			<path style="fill:#407BFF;" d="M305.523,158.571l-0.006-0.004c-0.428-0.353-0.484-0.971-0.16-1.422
				c1.822-2.536,2.815-5.605,2.815-8.745c0-7.93-6.191-14.442-13.993-14.956c-0.554-0.037-0.996-0.473-0.996-1.029v-0.007
				c0-0.605,0.518-1.069,1.121-1.03c8.885,0.579,15.937,7.992,15.937,17.022c0,3.578-1.133,7.074-3.211,9.963
				C306.678,158.853,305.989,158.956,305.523,158.571z"/>
		</g>
	</g>
</g>
<g id="Hand">
	<g>
		<rect x="153.089" y="125.526" style="fill:#263238;" width="89.631" height="131.624"/>
		<path style="opacity:0.1;fill:#FFFFFF;" d="M183.119,130.937c-8.552,0.471-6.012,50.967-6.012,50.967s-8.255-21.326-13.196-21.09
			c-4.94,0.236-2.353,21.172,1.176,39.051c3.529,17.879,18.032,40.458,18.032,40.458l0.723,16.826h33.797l1.321-18.938
			c0,0,10.351-43.522,11.762-58.215c1.411-14.694-0.235-32.828-5.653-33.298c-5.419-0.471-6.58,9.797-6.58,9.797
			s-2.353-26.03-5.757-26.736c-3.404-0.706-5.375,5.646-5.375,5.646l-2.352-9.881h-9.925l-4.116,38.27
			C190.965,163.797,191.671,130.467,183.119,130.937z"/>
		<path style="fill:#407BFF;" d="M180.68,212.676c0,0,7.538-12.76,35.495-2.404c0,0,5.38,9.121-3.445,19.354
			c0,0-11.321,7.969-25.587,0C187.142,229.626,178.276,225.191,180.68,212.676z"/>
		<path style="fill:#FFFFFF;" d="M190.848,257.15h9.351v-19.408c0,0,5.999-8.998,3.176-11.821c-2.823-2.823-7.058,1.412-7.058,1.412
			s-6.175-6.705-10.057-2.382c-3.882,4.323,4.94,12.439,4.94,12.439L190.848,257.15z"/>
		<path style="fill:#FFFFFF;" d="M206.727,257.15l1.059-22.761c0,0-3.705-4.235-2.647-6.528c1.059-2.294,4.234,0,4.234,0
			s2.823-3.274,4.764-1.019c1.941,2.255-1.235,6.313-1.235,6.313l-1.235,23.996H206.727z"/>
		<path style="fill:#FFFFFF;" d="M185.596,221.887l-0.407,0.422c-1.222,1.269-3.324,0.995-4.18-0.545l0,0
			c-0.552-0.993-0.401-2.229,0.374-3.06l0.4-0.43c1.037-1.112,2.799-1.112,3.836,0l0.007,0.007
			C186.575,219.3,186.562,220.884,185.596,221.887z"/>
		<path style="fill:#FFFFFF;" d="M190.216,219.244l4.77,3.173c0.964,0.641,2.236,0.574,3.126-0.167l0,0
			c0.803-0.667,1.133-1.747,0.84-2.749l-1.438-4.927c-0.326-1.118-1.351-1.886-2.516-1.886h-2.593c-0.765,0-1.492,0.334-1.99,0.915
			l-0.989,1.154c-0.644,0.751-0.81,1.8-0.429,2.713l0.25,0.6C189.447,218.549,189.784,218.957,190.216,219.244z"/>
		<path style="fill:#FFFFFF;" d="M203.889,221.809L203.889,221.809c1.364,0.166,2.646-0.684,3.023-2.005l1.558-5.452
			c0.357-1.25-0.195-2.581-1.332-3.21l-0.49-0.272c-0.862-0.477-1.912-0.465-2.762,0.032l-1.068,0.624
			c-0.857,0.501-1.383,1.419-1.383,2.411v5.1C201.434,220.448,202.487,221.638,203.889,221.809z"/>
		<path style="fill:#FFFFFF;" d="M210.44,222.795L210.44,222.795c1.186,0.615,2.638-0.003,3.018-1.284l0.033-0.111
			c0.115-0.389,0.34-0.737,0.646-1.003l1.304-1.13c1.061-0.919,0.956-2.596-0.211-3.376l-0.928-0.62
			c-1.156-0.772-2.729-0.247-3.189,1.065l-0.459,1.309c-0.03,0.085-0.065,0.168-0.105,0.248l-1.032,2.062
			C208.996,220.994,209.407,222.26,210.44,222.795z"/>
		<path style="fill:#FFFFFF;" d="M177.259,210.773l0.754,3.412c0.332,1.502,2.123,2.137,3.326,1.178l0,0
			c0.368-0.293,0.825-0.453,1.296-0.453h0.559c1.149,0,2.08-0.931,2.08-2.08v-0.193c0-0.427-0.131-0.843-0.376-1.193l-3.356-4.793
			c-0.146-0.209-0.253-0.443-0.314-0.69l-1.483-5.948c-0.339-1.359-1.896-2.001-3.094-1.277l-0.16,0.097
			c-0.228,0.138-0.48,0.231-0.743,0.273l-1.156,0.188c-1.387,0.225-2.156,1.731-1.526,2.986l4.022,8.007
			C177.164,210.442,177.222,210.605,177.259,210.773z"/>
		<path style="fill:#FFFFFF;" d="M187.278,183.259c0.772-0.036,1.615,0.174,2.479,0.814c0.856,0.633,1.346,1.653,1.413,2.716
			c0,0,0.313,8.761,0.736,11.648c0.289,1.977,1.366,6.422,2.096,9.335c0.322,1.288-0.796,2.474-2.101,2.234l-0.775-0.142
			c-0.408-0.075-0.83-0.009-1.195,0.188l0,0c-1.167,0.628-2.592-0.155-2.686-1.476c-0.222-3.135-0.599-8.035-0.915-10.139
			c-0.405-2.69-2.304-10.636-2.304-10.636C183.553,185.622,185.052,183.364,187.278,183.259z"/>
		<path style="fill:#FFFFFF;" d="M170.21,183.129c0.575-0.098,1.22-0.069,1.914,0.188c0.686,0.255,1.127,0.756,1.255,1.322
			c0,0,0.873,4.693,1.399,6.207c0.36,1.037,1.49,3.325,2.248,4.822c0.335,0.662-0.415,1.415-1.408,1.417l-0.59,0.002
			c-0.311,0.001-0.621,0.079-0.88,0.222l0,0c-0.827,0.457-1.95,0.179-2.116-0.525c-0.395-1.668-1.033-4.272-1.424-5.375
			c-0.499-1.41-2.499-5.503-2.499-5.503C167.597,184.78,168.553,183.411,170.21,183.129z"/>
		<path style="fill:#FFFFFF;" d="M196.935,206.745c0.015,1.212,1.17,2.078,2.34,1.764c0.533-0.143,1-0.262,1.194-0.291
			c0.944-0.142,1.673,1.115,2.376,0.471c2.95-2.704-0.615-11.995-0.588-15.997c0.02-2.944,2.602-9.615,0.588-11.762
			c-1.167-1.244-5.65-1.239-6.822,0c-2.428,2.567,0.588,10.584,0.706,14.115C196.811,197.505,196.893,203.404,196.935,206.745z"/>
		<path style="fill:#FFFFFF;" d="M205.52,206.294c-0.169,1.035,0.591,1.929,1.539,1.818c0.432-0.05,0.809-0.088,0.962-0.087
			c0.748,0.006,1.122,1.176,1.76,0.721c2.675-1.907,1.317-10.304,1.935-13.71c0.455-2.506,3.439-7.842,2.209-9.944
			c-0.712-1.217-4.165-1.818-5.253-0.92c-2.253,1.86-1.127,9.098-1.563,12.123C206.803,198.404,205.986,203.442,205.52,206.294z"/>
		<path style="fill:#FFFFFF;" d="M213.023,210.212c-0.184,0.881,0.541,1.701,1.467,1.667c0.422-0.015,0.791-0.023,0.94-0.012
			c0.729,0.054,1.072,1.087,1.702,0.736c2.643-1.471,1.471-8.799,2.135-11.696c0.489-2.131,3.495-6.539,2.334-8.431
			c-0.673-1.096-4.028-1.837-5.104-1.133c-2.23,1.458-1.264,7.771-1.744,10.351C214.417,203.492,213.529,207.783,213.023,210.212z"
			/>
		<path style="fill:#FFFFFF;" d="M167.968,173.456c-1.664,0.373-1.207,5.869,0.209,6.819c0.551,0.37,2.237,0.246,2.64-0.281
			C171.9,178.577,169.708,173.065,167.968,173.456z"/>
		<path style="fill:#FFFFFF;" d="M183.699,140.584c-1.688-0.247-3.229,5.047-2.247,6.442c0.382,0.543,2,1.031,2.565,0.683
			C185.536,146.775,185.463,140.842,183.699,140.584z"/>
		<path style="fill:#FFFFFF;" d="M210.396,140.592c-1.702,0.116-2.086,5.617-0.831,6.771c0.488,0.449,2.173,0.584,2.652,0.124
			C213.503,146.253,212.174,140.47,210.396,140.592z"/>
		<path style="fill:#FFFFFF;" d="M224.289,155.141c-1.705,0.026-2.38,5.498-1.188,6.718c0.464,0.475,2.139,0.698,2.642,0.264
			C227.092,160.959,226.072,155.115,224.289,155.141z"/>
		<path style="fill:#FFFFFF;" d="M199.435,136.288c-1.704,0.079-2.208,5.57-0.978,6.752c0.479,0.46,2.16,0.631,2.648,0.182
			C202.418,142.015,201.216,136.205,199.435,136.288z"/>
		<path style="fill:#FFFFFF;" d="M181.849,166.725c-0.184-0.932-1.909-5.911,2.089-3.176c0,0,3.99-3.894,3.116,2.294
			c-0.33,2.34-0.214,7.179,0.474,9.439c0.406,1.333,4.555,7.587-1.444,5.381c0,0-3.763,2.845-3.441-3.697
			C182.77,174.402,182.346,169.245,181.849,166.725z"/>
		<path style="fill:#FFFFFF;" d="M197.118,162.161c-0.058-0.949-1.102-6.113,2.495-2.868c0,0,4.474-3.326,2.781,2.69
			c-0.64,2.275-1.172,7.086-0.792,9.418c0.224,1.375,3.5,8.128-2.15,5.14c0,0-4.11,2.316-2.916-4.124
			C197.005,169.892,197.274,164.725,197.118,162.161z"/>
		<path style="fill:#FFFFFF;" d="M208.157,165.654c-0.058-0.949-1.102-6.113,2.495-2.868c0,0,4.474-3.326,2.781,2.689
			c-0.64,2.275-1.172,7.086-0.792,9.418c0.224,1.375,3.5,8.128-2.15,5.14c0,0-4.11,2.316-2.916-4.124
			C208.044,173.385,208.313,168.217,208.157,165.654z"/>
		<path style="fill:#FFFFFF;" d="M219.4,176.956c0.037-0.773-0.459-5.103,2.669-1.897c0,0,4.61-1.939,2.402,2.624
			c-0.835,1.725-1.814,5.511-1.678,7.451c0.08,1.144,2.559,7.12-2.561,3.783c0,0-4.162,1.186-2.39-3.801
			C218.536,183.16,219.299,179.045,219.4,176.956z"/>
		<path style="fill:#FFFFFF;" d="M181.414,149.993c0.515-0.608,2.093-0.598,2.613,0c1.244,1.433,1.33,7.306,0.616,9.41
			c-0.213,0.627-1.149,1.389-1.615,1.411c-0.57,0.028-1.76-0.782-2.044-1.529C180.218,157.265,180.2,151.427,181.414,149.993z"/>
		<path style="fill:#FFFFFF;" d="M198.361,145.674c0.515-0.608,2.094-0.598,2.613,0c1.244,1.433,1.33,7.307,0.616,9.41
			c-0.213,0.627-1.149,1.389-1.615,1.411c-0.57,0.028-1.76-0.782-2.044-1.529C197.166,152.947,197.148,147.109,198.361,145.674z"/>
		<path style="fill:#FFFFFF;" d="M209.42,150.523c0.515-0.554,2.093-0.545,2.613,0c1.244,1.306,1.33,6.66,0.616,8.577
			c-0.213,0.572-1.149,1.266-1.615,1.287c-0.57,0.025-1.76-0.713-2.044-1.394C208.224,157.152,208.206,151.83,209.42,150.523z"/>
		<path style="fill:#FFFFFF;" d="M222.462,164.022c0.459-0.408,1.665-0.23,1.998,0.283c0.797,1.227,0.229,5.716-0.544,7.243
			c-0.23,0.455-1.028,0.935-1.386,0.902c-0.439-0.04-1.261-0.787-1.397-1.387C220.763,169.438,221.379,164.984,222.462,164.022z"/>
		<g>
			<path style="fill:#407BFF;" d="M179.229,236.884c-8.863-8.863-10.989-22.148-5.595-33.191c0.687-1.406,2.463-1.887,3.795-1.066
				l0.007,0.004c1.166,0.719,1.587,2.201,0.988,3.432c-4.378,9.001-2.638,19.82,4.584,27.041c3.897,3.897,8.913,6.267,14.324,6.812
				c1.367,0.137,2.413,1.271,2.413,2.645l0,0c0,1.578-1.364,2.83-2.934,2.673C190.17,244.574,184.012,241.666,179.229,236.884z"/>
		</g>
		<g>
			<path style="fill:#407BFF;" d="M223.565,227.268c-1.244-0.569-1.845-1.983-1.406-3.278c2.858-8.441,0.712-17.97-5.677-24.359
				c-2.078-2.078-4.453-3.715-7.085-4.885c-1.253-0.557-1.889-1.96-1.462-3.263l0,0c0.493-1.501,2.183-2.264,3.627-1.623
				c3.232,1.435,6.149,3.444,8.698,5.993c7.834,7.833,10.464,19.521,6.954,29.869c-0.505,1.49-2.214,2.202-3.645,1.547
				L223.565,227.268z"/>
		</g>
	</g>
</g>
<g id="Character_2">
	<g>
		<g>
			<path style="fill:#803E3C;" d="M402.981,183.245c-1.161,1.725-2.33,3.445-3.504,5.159l-6.24,10.509
				c-1.182,1.75-2.406,3.485-3.533,5.206c-0.742,1.088-1.681,2.318-2.949,3.355c-1.253,1.048-2.945,1.975-4.802,2.281
				c-1.857,0.328-3.674,0.038-5.12-0.514c-1.464-0.562-2.662-1.315-3.684-2.145c-1.021-0.835-1.909-1.72-2.675-2.673
				c-0.787-0.963-1.445-1.867-2.106-3.018l3.929-3.016c0.673,0.52,1.483,1.179,2.256,1.679c0.79,0.515,1.575,0.974,2.338,1.318
				c1.533,0.73,2.896,0.792,3.288,0.431c0.235-0.156,0.46-0.33,0.776-0.729c0.317-0.407,0.633-0.931,1.022-1.655
				c1.095-1.935,2.181-3.799,3.31-5.649c2.241-3.694,4.53-7.328,6.867-10.931c2.34-3.601,4.728-7.155,7.19-10.682l2.109,1.631
				C404.368,176.056,405.039,180.188,402.981,183.245z"/>
			<g>
				<path style="fill:#7F3E3B;" d="M372.245,198.105l-5.061-4.805l-2.388,7.363c0,0,4.775,4.015,6.74,1.468L372.245,198.105z"/>
				<polygon style="fill:#7F3E3B;" points="360.427,191.842 360.523,198.87 364.796,200.663 367.184,193.299 				"/>
			</g>
			<path style="fill:#407BFF;" d="M374.152,198.909l-3.75,6.502c0,0,6.417,7.915,14.25,4.081
				c7.833-3.833,31.445-42.466,19.577-42.726c-6.993-0.153-22.66,35.642-25.327,34.559
				C376.236,200.242,374.152,198.909,374.152,198.909z"/>
			<path style="opacity:0.8;fill:#FFFFFF;" d="M374.152,198.909l-3.75,6.502c0,0,6.417,7.915,14.25,4.081
				c7.833-3.833,31.445-42.466,19.577-42.726c-6.993-0.153-22.66,35.642-25.327,34.559
				C376.236,200.242,374.152,198.909,374.152,198.909z"/>
		</g>
		<g>
			<path style="fill:#407BFF;" d="M374.624,298.122c0,0,19.072-5.681,58.05,3.845l-4.257-57.437l-37.436-5.242L374.624,298.122z"/>
			<path style="opacity:0.5;fill:#FFFFFF;" d="M374.624,298.122c0,0,19.072-5.681,58.05,3.845l-4.257-57.437l-37.436-5.242
				L374.624,298.122z"/>
		</g>
		<polygon style="fill:#7F3E3B;" points="384.506,404.614 377.063,403.043 378.589,385.36 386.032,386.931 		"/>
		<path style="fill:#263238;" d="M376.268,401.975l9.075,1.916c0.304,0.064,0.525,0.332,0.532,0.643l0.14,6.941
			c0.014,0.72-0.655,1.257-1.356,1.096c-2.909-0.667-5.006-1.288-8.683-2.064c-2.262-0.478-9.132-1.682-12.257-2.342
			c-3.056-0.645-2.911-3.841-1.576-3.852c5.987-0.047,10.657-0.868,12.825-2.135C375.359,401.95,375.823,401.881,376.268,401.975z"
			/>
		<path style="fill:#407BFF;" d="M373.545,402.759c-0.567-0.12-1.077-0.328-1.357-0.683c-0.222-0.281-0.282-0.621-0.177-1.011
			c0.077-0.29,0.261-0.397,0.402-0.436c0.907-0.252,3.013,1.735,3.25,1.962c0.052,0.051,0.07,0.128,0.045,0.195
			c-0.025,0.068-0.089,0.113-0.161,0.116C375.004,402.917,374.233,402.904,373.545,402.759z M372.749,400.981
			c-0.092-0.019-0.172-0.022-0.238-0.004c-0.052,0.014-0.117,0.048-0.153,0.184c-0.074,0.277-0.038,0.504,0.111,0.692
			c0.339,0.428,1.302,0.68,2.616,0.692C374.342,401.881,373.32,401.101,372.749,400.981z"/>
		<path style="fill:#407BFF;" d="M375.504,402.898c-0.029-0.006-0.057-0.019-0.08-0.039c-0.686-0.582-1.848-2.531-1.523-3.329
			c0.059-0.145,0.222-0.382,0.654-0.345c0.28,0.026,0.518,0.154,0.705,0.386c0.723,0.89,0.469,3.081,0.458,3.173
			c-0.008,0.066-0.051,0.121-0.112,0.145C375.573,402.902,375.537,402.905,375.504,402.898z M374.608,399.557
			c-0.026-0.006-0.053-0.01-0.081-0.012c-0.235-0.021-0.276,0.081-0.293,0.124c-0.191,0.471,0.509,1.907,1.158,2.651
			c0.04-0.647,0.053-1.952-0.41-2.522C374.876,399.667,374.753,399.587,374.608,399.557z"/>
		<polygon style="opacity:0.2;" points="377.661,396.115 385.213,396.426 386,387.311 378.448,387 		"/>
		<g>
			<path style="fill:#263238;" d="M393.083,229.347c0,0-7.91,65.005-10.254,86.878c-2.079,19.399-7.242,75.215-7.242,75.215
				l13.279,0.764c0,0,9.203-55.428,12.489-73.867c3.905-21.912,17.311-87.647,17.311-87.647L393.083,229.347z"/>
		</g>
		<polygon style="fill:#263238;" points="374.651,393.189 390.143,393.5 390.73,388.754 373.914,387.59 		"/>
		<path style="opacity:0.5;" d="M415.035,248.604l-1.138-5.32l-7.42-5.575c0,0-11.303,34.124,0.497,51.243
			C409.696,275.125,412.736,259.987,415.035,248.604z"/>
		<polygon style="fill:#7F3E3B;" points="424.867,404.212 417.259,404.212 415.1,386.595 422.708,386.595 		"/>
		<path style="fill:#263238;" d="M416.261,403.331h9.275c0.311,0,0.582,0.216,0.653,0.52l1.571,6.762
			c0.163,0.701-0.382,1.365-1.1,1.353c-2.984-0.051-5.164-0.226-8.922-0.226c-2.312,0-9.283,0.24-12.476,0.24
			c-3.123,0-3.642-3.157-2.337-3.443c5.849-1.282,10.248-3.05,12.108-4.737C415.366,403.494,415.806,403.331,416.261,403.331z"/>
		<path style="fill:#407BFF;" d="M413.759,404.66c-0.579,0-1.122-0.098-1.469-0.388c-0.275-0.229-0.404-0.549-0.382-0.952
			c0.016-0.3,0.174-0.443,0.304-0.509c0.835-0.434,3.306,1.075,3.585,1.249c0.062,0.039,0.095,0.11,0.084,0.182
			c-0.011,0.071-0.064,0.129-0.134,0.146C415.219,404.514,414.462,404.66,413.759,404.66z M412.612,403.085
			c-0.094,0-0.173,0.014-0.233,0.045c-0.048,0.025-0.104,0.071-0.112,0.212c-0.015,0.286,0.067,0.501,0.252,0.654
			c0.42,0.349,1.414,0.397,2.702,0.137C414.357,403.637,413.196,403.085,412.612,403.085z"/>
		<path style="fill:#407BFF;" d="M415.704,404.392c-0.03,0-0.059-0.007-0.086-0.021c-0.792-0.428-2.33-2.095-2.178-2.943
			c0.028-0.154,0.138-0.42,0.569-0.473c0.28-0.032,0.538,0.044,0.77,0.232c0.891,0.722,1.095,2.918,1.103,3.01
			c0.006,0.066-0.025,0.129-0.08,0.165C415.772,404.382,415.738,404.392,415.704,404.392z M414.138,401.308
			c-0.027,0-0.054,0.001-0.082,0.005c-0.234,0.029-0.253,0.136-0.261,0.182c-0.09,0.501,0.892,1.76,1.68,2.354
			c-0.095-0.641-0.351-1.921-0.922-2.383C414.422,401.36,414.286,401.308,414.138,401.308z"/>
		<polygon style="opacity:0.2;" points="415.163,387.104 416.379,397.025 423.986,397.025 422.77,387.104 		"/>
		<g>
			<path style="fill:#263238;" d="M406.53,233.6c0,0-0.061,61.989-0.344,84.308c-0.31,24.442,6.495,76.013,6.495,76.013h13.934
				c0,0-2.791-46.893-0.939-71.109c1.166-15.239,4.961-43.628,6.44-62.304c1.149-14.51,0.166-21.692,0.166-21.692L406.53,233.6z"/>
		</g>
		<polygon style="fill:#263238;" points="411.017,394.223 427.424,394.223 427.375,389.321 410.246,388.332 		"/>
		<g>
			<path style="fill:#407BFF;" d="M447.102,174.861c-3.335,8.04-5.849,16.344-7.795,24.215c-1.42,5.759-2.524,11.287-3.402,16.318
				c-2.061,11.789-2.159,33.232-2.159,33.232l-46.897-2.077c0,0,9.706-32.787,10.595-39.994c3.313-26.877,7.785-39.788,7.785-39.788
				s4.563-0.306,9.778,0.07c0.687,0.045,1.384,0.112,2.09,0.19c4.57,0.501,11.919,2.159,16.968,3.434
				c1.061,0.269,2.132,0.57,3.17,0.879C442.518,172.924,447.102,174.861,447.102,174.861z"/>
		</g>
		<g style="opacity:0.9;">
			<path style="fill:#FFFFFF;" d="M447.102,174.861c-3.335,8.04-5.849,16.344-7.795,24.215c-1.42,5.759-2.524,11.287-3.402,16.318
				c-2.061,11.789-2.159,33.232-2.159,33.232l-46.897-2.077c0,0,9.706-32.787,10.595-39.994c3.313-26.877,7.785-39.788,7.785-39.788
				s4.563-0.306,9.778,0.07c0.687,0.045,1.384,0.112,2.09,0.19c4.57,0.501,11.919,2.159,16.968,3.434
				c1.061,0.269,2.132,0.57,3.17,0.879C442.518,172.924,447.102,174.861,447.102,174.861z"/>
		</g>
		<path style="fill:#7F3E3B;" d="M436.057,151.008c-2.12,5.245-5.113,15.035-1.994,19.452c-3.355,2.317-6.371,3.932-12.478,2.557
			c-4.677-1.053-3.557-4.955-4.488-5.993c6.367-0.221,7.079-4.771,6.834-9.23L436.057,151.008z"/>
		<path style="opacity:0.2;" d="M431.113,153.778l-7.176,4.013c0.061,1.056,0.063,2.114-0.056,3.119
			c2.39,0.135,6.076-1.772,6.791-4.158C431.029,155.562,431.202,154.384,431.113,153.778z"/>
		<path style="fill:#7F3E3B;" d="M439.663,144.523c-2.773,7.012-4.041,11.26-8.848,13.718c-7.232,3.697-14.984-2.555-14.359-10.276
			c0.563-6.95,5.004-17.249,12.928-17.74C437.191,129.741,442.436,137.512,439.663,144.523z"/>
		<path style="fill:#630F0F;" d="M423.589,141.648c0,0-2.412,2.781-4.395,3.857c0.719,1.253,2.613,1.401,2.613,1.401
			L423.589,141.648z"/>
		<path style="fill:#263238;" d="M430.892,141.426c-0.123-0.024-0.231-0.112-0.275-0.24c-0.523-1.527-1.803-1.878-1.816-1.881
			c-0.193-0.05-0.31-0.247-0.262-0.44c0.048-0.193,0.244-0.308,0.436-0.258c0.068,0.017,1.673,0.456,2.321,2.351
			c0.065,0.189-0.035,0.394-0.223,0.457C431.013,141.434,430.951,141.437,430.892,141.426z"/>
		<path style="fill:#263238;" d="M419.498,137.431c-0.067-0.013-0.132-0.045-0.184-0.097c-0.143-0.14-0.147-0.369-0.009-0.511
			c1.384-1.428,3.009-1.105,3.084-1.1c0.195,0.04,0.322,0.23,0.285,0.426c-0.038,0.195-0.224,0.321-0.418,0.283
			c-0.067-0.016-1.323-0.249-2.434,0.897C419.735,137.419,419.612,137.453,419.498,137.431z"/>
		<path style="fill:#263238;" d="M428.305,142.849c-0.201,0.597-0.68,0.975-1.07,0.844c-0.39-0.131-0.544-0.722-0.344-1.319
			c0.201-0.597,0.68-0.975,1.07-0.844C428.352,141.661,428.506,142.252,428.305,142.849z"/>
		<path style="fill:#263238;" d="M421.555,140.581c-0.201,0.597-0.68,0.975-1.07,0.844c-0.39-0.131-0.544-0.722-0.343-1.319
			c0.201-0.597,0.68-0.975,1.07-0.844C421.601,139.393,421.755,139.983,421.555,140.581z"/>
		<path style="fill:#263238;" d="M436.351,149.844c0,0-2.5-3.185,0-7.601c0,0-9.736-6.333-5.035-9.833c0,0-2.816,0.169-6.101,1.833
			c-3.824,1.938-5.864,0.167-5.864,0.167s4.238-17.167,16.25-6.167c0,0,4.75-2.167,8.5,6.667s-5.333,17.417-5.333,17.417
			L436.351,149.844z"/>
		<path style="fill:#7F3E3B;" d="M440.479,151.388c-1.173,1.655-3.002,2.606-4.651,2.848c-2.481,0.364-3.425-1.946-2.487-4.134
			c0.844-1.97,3.152-4.532,5.523-3.894C441.199,146.837,441.82,149.495,440.479,151.388z"/>
		<path style="fill:#407BFF;" d="M379.924,301.966c6.558-20.353,14.01-46.529,18.093-71.141
			c8.365-50.417,20.385-64.177,20.385-64.177c-8.107-1.51-14.667,0-14.667,0s-12,59.677-22.667,101.541
			c-2.98,11.697-6.131,22.121-9.126,31.075L379.924,301.966z"/>
		<path style="opacity:0.6;fill:#FFFFFF;" d="M379.924,301.966c6.558-20.353,14.01-46.529,18.093-71.141
			c8.365-50.417,20.385-64.177,20.385-64.177c-8.107-1.51-14.667,0-14.667,0s-12,59.677-22.667,101.541
			c-2.98,11.697-6.131,22.121-9.126,31.075L379.924,301.966z"/>
		<path style="fill:#407BFF;" d="M434.921,304.216c-0.991-20.373-1.536-46.704-0.018-73.133c0.826-14.392,0.75-25.216,13.375-56.091
			c0,0,1.729-2.347-13.875-5.25c0,0-14.965,10-17.982,45.5c-1.772,20.845-1.463,60.906-0.906,90.434L434.921,304.216z"/>
		<path style="opacity:0.6;fill:#FFFFFF;" d="M434.921,304.216c-0.991-20.373-1.536-46.704-0.018-73.133
			c0.826-14.392,0.75-25.216,13.375-56.091c0,0,1.729-2.347-13.875-5.25c0,0-14.965,10-17.982,45.5
			c-1.772,20.845-1.463,60.906-0.906,90.434L434.921,304.216z"/>
		<polygon style="opacity:0.2;" points="436.013,170.386 432.987,181.011 428.586,183.698 433.481,185.178 419.004,211.678 
			430.509,186.297 425.036,184.011 431.423,180.01 		"/>
		<polygon style="opacity:0.2;" points="415.007,166.836 407.504,175.171 408.498,178.546 404.172,178.546 401.373,206.296 
			405.623,180.046 410.373,180.046 409.123,175.421 		"/>
		<path style="opacity:0.2;" d="M420.408,246.629h12.262c0,0,1.536,14.833-6.131,15.167
			C418.873,262.129,420.408,246.629,420.408,246.629z"/>
		<path style="fill:#263238;" d="M422.672,149.93c2.507,0,3.909-1.563,3.972-1.636c0.068-0.077,0.06-0.195-0.017-0.263
			c-0.077-0.069-0.195-0.06-0.263,0.017c-0.016,0.018-1.61,1.799-4.388,1.466c-0.103-0.013-0.195,0.061-0.207,0.164
			c-0.012,0.102,0.061,0.195,0.164,0.207C422.189,149.916,422.435,149.93,422.672,149.93z"/>
		<g>
			
				<rect x="342.267" y="167.386" transform="matrix(0.5753 -0.818 0.818 0.5753 6.5453 357.1021)" style="fill:#263238;" width="9.726" height="9.726"/>
			<path style="fill:#263238;" d="M449.21,239.521l-4.251,6.045c-1.129,1.606-3.347,1.992-4.953,0.863l-91.931-64.652
				c-1.606-1.129-1.992-3.347-0.863-4.953l4.251-6.045c1.129-1.606,3.347-1.992,4.953-0.863l91.931,64.652
				C449.953,235.697,450.339,237.915,449.21,239.521z"/>
			<path style="opacity:0.5;fill:#FFFFFF;" d="M449.21,239.521l-4.251,6.045c-1.129,1.606-3.347,1.992-4.953,0.863l-91.931-64.652
				c-1.606-1.129-1.992-3.347-0.863-4.953l4.251-6.045c1.129-1.606,3.347-1.992,4.953-0.863l91.931,64.652
				C449.953,235.697,450.339,237.915,449.21,239.521z"/>
			<g>
				<g>
					<path style="fill:#FFFFFF;" d="M318.56,113.802l0.353-0.265c1.988-1.491,1.656-4.579-0.609-5.601
						c-0.657-0.296-1.319-0.572-1.986-0.827c-3.597-1.374-6.094,3.586-2.933,5.786c0.057,0.04,0.114,0.08,0.171,0.12
						c0.352,0.247,0.698,0.5,1.04,0.757C315.771,114.657,317.382,114.686,318.56,113.802z"/>
					<path style="fill:#FFFFFF;" d="M324.966,124.867c6.899,10.653,8.807,23.94,5.074,36.158c-0.586,1.917,2.007,3.2,3.165,1.564
						c0.021-0.029,0.042-0.059,0.063-0.089c9.372-13.327,8.623-30.729-0.645-43.097c-1.096-1.462-3.152-1.79-4.614-0.694
						l-2.292,1.72C324.326,121.473,324.02,123.407,324.966,124.867z"/>
				</g>
			</g>
			<path style="fill:#407BFF;" d="M260.727,111.484c-16.519,23.489-10.869,55.923,12.62,72.442
				c23.489,16.519,55.923,10.869,72.442-12.62c16.519-23.489,10.869-55.923-12.62-72.442
				C309.68,82.345,277.246,87.995,260.727,111.484z M338.638,166.277c-13.742,19.54-40.722,24.24-60.262,10.498
				c-19.54-13.742-24.24-40.722-10.498-60.262c13.742-19.54,40.722-24.24,60.262-10.499
				C347.68,119.757,352.38,146.737,338.638,166.277z"/>
		</g>
		<g>
			<path style="fill:#803E3C;" d="M450.93,180.703c0.753,2.563,1.332,5.013,1.912,7.541c0.58,2.512,1.054,5.052,1.485,7.619
				c0.404,2.572,0.753,5.172,0.955,7.841c0.181,2.679,0.291,5.395-0.026,8.376c-0.185,1.501-0.428,3.06-1.139,4.874
				c-0.35,0.906-0.942,1.926-1.555,2.688c-0.308,0.402-0.628,0.765-0.956,1.083c-0.325,0.349-0.658,0.627-0.995,0.908
				c-2.702,2.16-5.37,3.202-8.001,4.069c-5.276,1.647-10.388,2.286-15.685,2.415l-0.625-4.913c4.611-1.324,9.359-2.859,13.449-4.81
				c2.008-0.979,3.949-2.128,5.026-3.29c0.126-0.142,0.264-0.278,0.348-0.406c0.113-0.129,0.191-0.25,0.247-0.358
				c0.136-0.239,0.163-0.326,0.25-0.594c0.168-0.539,0.303-1.485,0.344-2.474c0.095-2.02-0.065-4.332-0.35-6.64
				c-0.282-2.321-0.661-4.685-1.12-7.051c-0.889-4.717-2.008-9.562-3.193-14.178L450.93,180.703z"/>
			<g>
				<path style="fill:#7F3E3B;" d="M426.979,223.277l-6.571-2.241l0.953,8.733c0,0,6.006,0.659,6.688-2.508L426.979,223.277z"/>
				<polygon style="fill:#7F3E3B;" points="415.032,222.9 416.155,230.083 421.362,229.769 420.408,221.036 				"/>
			</g>
			<path style="fill:#407BFF;" d="M429.417,221.036l1.819,7.956c0,0,21.502-0.658,25-13.5c3.167-11.625-1.466-41.683-9.832-42.316
				c-8.626-0.652-5.86,11.48-2.808,25.566C446.647,212.828,445.431,214.579,429.417,221.036z"/>
			<path style="opacity:0.7;fill:#FFFFFF;" d="M429.417,221.036l1.819,7.956c0,0,21.502-0.658,25-13.5
				c3.167-11.625-1.466-41.683-9.832-42.316c-8.626-0.652-5.86,11.48-2.808,25.566C446.647,212.828,445.431,214.579,429.417,221.036
				z"/>
		</g>
		<path style="fill:#407BFF;" d="M419.913,165.978l0.75,6.193l12.667-3.837l1.135,1.573l-9.719,7.385l-4.417-3.768l-5.49,1.163
			l2.938-8.039C417.777,166.649,418.621,167.039,419.913,165.978z"/>
		<path style="opacity:0.3;fill:#FFFFFF;" d="M419.913,165.978l0.75,6.193l12.667-3.837l1.135,1.573l-9.719,7.385l-4.417-3.768
			l-5.49,1.163l2.938-8.039C417.777,166.649,418.621,167.039,419.913,165.978z"/>
	</g>
	<g>
		<circle style="fill:#407BFF;" cx="402.849" cy="175.75" r="0.778"/>
		<circle style="fill:#407BFF;" cx="394.814" cy="199.138" r="0.778"/>
		<circle style="fill:#407BFF;" cx="390.35" cy="226.826" r="0.778"/>
	</g>
	<g style="opacity:0.3;">
		<circle style="fill:#FFFFFF;" cx="402.849" cy="175.75" r="0.778"/>
		<circle style="fill:#FFFFFF;" cx="394.814" cy="199.138" r="0.778"/>
		<circle style="fill:#FFFFFF;" cx="390.35" cy="226.826" r="0.778"/>
	</g>
</g>
<g id="Character_1">
	<g>
		<path style="fill:#263238;" d="M142.682,140.14c-0.014,0.646,0.321,1.187,0.748,1.208c0.426,0.021,0.783-0.486,0.797-1.132
			c0.014-0.646-0.321-1.187-0.748-1.208C143.052,138.987,142.695,139.494,142.682,140.14z"/>
		<path style="fill:#263238;" d="M143.289,139.035l1.577-0.371C144.866,138.663,144.036,139.837,143.289,139.035z"/>
		<path style="fill:#A02724;" d="M143.218,140.795c0,0,1.048,2.836,2.239,4.238c-0.878,0.754-2.335,0.319-2.335,0.319
			L143.218,140.795z"/>
		<path style="fill:#263238;" d="M143.65,135.873c-0.061,0.009-0.124,0.003-0.185-0.019c-1.607-0.587-2.755,0.194-2.803,0.228
			c-0.173,0.121-0.41,0.079-0.531-0.092c-0.121-0.172-0.081-0.408,0.089-0.53c0.061-0.043,1.509-1.051,3.506-0.322
			c0.198,0.072,0.3,0.291,0.227,0.489C143.905,135.763,143.785,135.854,143.65,135.873z"/>
		<path style="fill:#B55B52;" d="M122.314,147.319c0.15,4.871-1.932,12.721-5.751,15.212c0,0,2.463,5.26,11.23,6.958
			c9.641,1.867,5.393-3.866,5.393-3.866c-5.055-2.268-4.278-6.123-2.76-9.591L122.314,147.319z"/>
		<path style="fill:#B55B52;" d="M120.887,137.301c0.325,7.96,0.291,11.331,4.252,15.602c5.959,6.424,15.743,4.564,17.823-3.264
			c1.872-7.046,1.026-18.88-6.751-22.421C128.548,123.73,120.563,129.342,120.887,137.301z"/>
		<path style="fill:#B55B52;" d="M136.717,139.199c0.192,1.436,1.036,2.869,2.002,3.857c1.453,1.487,2.822,0.842,2.957-0.733
			c0.121-1.418-0.489-3.9-2.206-4.833C137.779,136.571,136.498,137.557,136.717,139.199z"/>
		<path style="fill:#263238;" d="M132.964,123.893c0,0-16.875-5-18.25,8.375s-10.75,23.125-3.375,27.25s24.375,6.072,27.375,1.598
			c3-4.473-2.49-8.337,0-12.048c2.49-3.71,2.658-16.279,2.658-16.279S153.964,131.018,132.964,123.893z"/>
		<path style="fill:#407BFF;" d="M112.089,162.518c0,0-0.147-5.355,7.676-3.928c7.824,1.428,17.015,8.058,17.015,8.058
			L112.089,162.518z"/>
		<path style="opacity:0.4;fill:#FFFFFF;" d="M112.089,162.518c0,0-0.147-5.355,7.676-3.928c7.824,1.428,17.015,8.058,17.015,8.058
			L112.089,162.518z"/>
		<g>
			<path style="fill:#B55B52;" d="M114.618,198.896c-4.427-0.094-9.057-0.301-13.091-1.074c-0.997-0.196-1.955-0.445-2.751-0.752
				c-0.422-0.148-0.8-0.333-1.079-0.501l0.036-0.14l0.206-0.802l0.416-1.602c1.176-4.27,2.562-8.523,4.112-12.734
				c1.528-4.188,3.222-8.461,4.94-12.443l-8.828-4.09c-1.081,2.263-1.945,4.41-2.836,6.637c-0.881,2.21-1.676,4.451-2.43,6.71
				c-1.494,4.522-2.759,9.141-3.719,13.871l-0.33,1.785l-0.161,0.893l-0.085,0.485c-0.039,0.284-0.084,0.545-0.101,0.848
				c-0.088,1.165,0.076,2.578,0.669,3.826c0.578,1.257,1.47,2.218,2.313,2.865c1.727,1.303,3.276,1.736,4.698,2.1
				c1.43,0.322,2.761,0.454,4.059,0.529c5.171,0.21,9.841-0.503,14.591-1.633L114.618,198.896z"/>
			<g>
				<path style="fill:#B55B52;" d="M115.333,203.842l6.614-1.262l-2.295-5.533c0,0-6.59,0.164-6.367,4.856L115.333,203.842z"/>
				<polygon style="fill:#B55B52;" points="124.362,200.601 123.584,195.678 119.652,197.047 121.947,202.58 				"/>
			</g>
			<path style="fill:#407BFF;" d="M89.51,180.205c1.448-4.689,4.73-14.487,8.403-17.742c1.887-1.673,9.303-3.101,10.057-0.788
				c1.993,6.116-0.371,14.296-2.334,18.428c-1.841,3.873-6.849,15.726-6.849,15.726s3.757,1.91,12.037,1.988l-1.015,7.842
				c0,0-15.571,2.316-20.129-4.04C85.122,195.263,87.93,185.32,89.51,180.205z"/>
			<path style="opacity:0.5;fill:#FFFFFF;" d="M89.51,180.205c1.448-4.689,4.73-14.487,8.403-17.742
				c1.887-1.673,9.303-3.101,10.057-0.788c1.993,6.116-0.371,14.296-2.334,18.428c-1.841,3.873-6.849,15.726-6.849,15.726
				s3.757,1.91,12.037,1.988l-1.015,7.842c0,0-15.571,2.316-20.129-4.04C85.122,195.263,87.93,185.32,89.51,180.205z"/>
		</g>
		<polygon style="fill:#B55B52;" points="99.605,396.111 107.656,396.704 110.047,378.217 101.996,377.624 		"/>
		<polygon style="fill:#B55B52;" points="48.047,372.623 55.021,376.864 66.62,362.375 59.646,358.134 		"/>
		<path style="fill:#263238;" d="M57.113,375.31l-6.616-6.37c-0.241-0.232-0.592-0.258-0.846-0.062l-5.645,4.357
			c-0.586,0.452-0.599,1.401-0.035,1.926c2.344,2.182,3.582,3.121,6.491,5.922c1.79,1.723,4.231,4.422,6.703,6.802
			c2.418,2.328,4.888,0.133,4.065-1.073c-3.688-5.407-3.137-7.438-3.472-10.203C57.699,376.11,57.465,375.649,57.113,375.31z"/>
		<path style="fill:#263238;" d="M108.158,395.558h-9.049c-0.329,0-0.602,0.229-0.657,0.55l-1.215,7.159
			c-0.126,0.743,0.495,1.446,1.255,1.432c3.156-0.054,4.681-0.24,8.661-0.24c2.448,0,7.506,0.254,10.886,0.254
			c3.307,0,3.647-3.343,2.247-3.646c-6.277-1.358-8.713-3.23-10.794-5.016C109.117,395.731,108.64,395.558,108.158,395.558z"/>
		<g>
			<polygon style="opacity:0.2;" points="110.044,378.222 108.717,388.496 100.759,387.164 101.991,377.629 			"/>
			<polygon style="opacity:0.2;" points="59.641,358.137 66.619,362.38 61.818,368.372 54.691,364.315 			"/>
		</g>
		<path style="fill:#407BFF;" d="M100.209,210.17c6.243,1.206,19.485,3.774,32.292,6.258c15.26-44.923,11.608-46.377,11.608-46.377
			s-3.24-1.804-7.329-3.402c-0.157-0.062-0.302-0.113-0.438-0.165c-2.064-0.753-2.5-0.866-5.266-1.67
			c-4.756-1.124-9.186-2.042-14.663-2.835c-0.352-0.051-0.704-0.103-1.046-0.144c-0.993-0.124-1.976-0.227-2.927-0.32
			c-0.642-0.072-1.282-0.113-1.892-0.155c-0.723-0.041-1.425-0.083-2.086-0.113c-3.531-0.175-6.056-0.124-6.056-0.124
			C104.257,189.157,102.908,197.209,100.209,210.17z"/>
		<path style="opacity:0.2;" d="M137.577,183.721c-1.262,6.32,0.073,11.577,0.949,14.091c2.68-8.782,4.203-14.789,5.027-18.898
			C141.081,178.59,138.443,179.393,137.577,183.721z"/>
		<path style="fill:#263238;" d="M123.977,214.774c0,0-15.733,52.683-23.417,83.024c-8.108,32.012-35.782,69.642-35.782,69.642
			l-10.171-5.671c0,0,16.764-35.912,24.618-65.785c15.945-60.641,8.274-73.487,20.986-85.814L123.977,214.774z"/>
		<polygon style="fill:#263238;" points="65.785,368.396 53.086,361.316 54.941,357.565 69.91,364.451 		"/>
		<path style="opacity:0.2;" d="M116.589,225.996c-10.321,7.96-11.012,38.294-10.775,51.996
			c5.248-19.157,11.455-40.469,15.085-52.801C119.909,224.356,118.486,224.532,116.589,225.996z"/>
		<path style="fill:#407BFF;" d="M60.499,378.531c0.146-0.204,0.179-0.425,0.094-0.639c-0.379-0.963-3.26-1.568-3.587-1.633
			c-0.075-0.015-0.152,0.016-0.195,0.08c-0.043,0.064-0.043,0.147-0.002,0.211c0.6,0.917,1.758,2.46,2.785,2.482
			c0.101,0.002,0.198-0.01,0.291-0.036C60.118,378.931,60.324,378.775,60.499,378.531z M60.239,378.032
			c0.024,0.063,0.04,0.151-0.05,0.277c-0.168,0.235-0.361,0.346-0.587,0.342c-0.554-0.012-1.363-0.719-2.205-1.914
			C58.542,377.012,60.039,377.524,60.239,378.032z"/>
		<path style="fill:#263238;" d="M132.017,216.426c0,0,2.011,63.741-2.493,87.75c-4.684,24.973-18.95,81.78-18.95,81.78
			l-11.612-1.499c0,0,7.343-57.386,10.46-82.199c3.399-27.05-1.054-90.412-1.054-90.412L132.017,216.426z"/>
		<polygon style="fill:#263238;" points="113.043,386.618 96.493,384.482 96.698,380.55 114.702,381.335 		"/>
		<path style="fill:#407BFF;" d="M60.524,375.89c0.097-0.149,0.212-0.456-0.099-0.836c-0.2-0.243-0.463-0.373-0.781-0.386
			c-1.162-0.048-2.746,1.577-2.813,1.646c-0.047,0.049-0.064,0.118-0.046,0.183c0.017,0.065,0.069,0.116,0.134,0.133
			c0.548,0.148,1.673,0.117,2.54-0.127C59.943,376.367,60.346,376.165,60.524,375.89z M59.629,375.049
			c0.208,0.008,0.371,0.089,0.5,0.247c0.161,0.196,0.124,0.309,0.074,0.387c-0.301,0.467-1.863,0.748-2.836,0.642
			C57.922,375.812,58.932,375.021,59.629,375.049z"/>
		<path style="fill:#407BFF;" d="M113.112,396.473c0.269-0.235,0.393-0.547,0.369-0.927c-0.014-0.227-0.121-0.402-0.309-0.508
			c-0.965-0.55-4.23,1.094-4.6,1.284c-0.071,0.037-0.113,0.116-0.101,0.196c0.011,0.08,0.071,0.145,0.151,0.161
			c0.681,0.136,1.642,0.288,2.529,0.288C111.951,396.966,112.69,396.842,113.112,396.473z M112.985,395.369
			c0.074,0.042,0.109,0.102,0.115,0.201c0.016,0.259-0.061,0.46-0.238,0.615c-0.5,0.438-1.824,0.516-3.6,0.221
			C110.599,395.772,112.453,395.071,112.985,395.369z"/>
		<path style="fill:#407BFF;" d="M108.737,396.665c0.982-0.438,2.93-2.184,2.785-3.093c-0.035-0.212-0.184-0.476-0.706-0.529
			c-0.053-0.006-0.106-0.008-0.157-0.008c-1.802,0-2.174,3.292-2.189,3.436c-0.007,0.068,0.022,0.134,0.077,0.174
			c0.033,0.024,0.072,0.036,0.112,0.036C108.687,396.681,108.713,396.676,108.737,396.665z M110.777,393.422
			c0.339,0.035,0.361,0.167,0.368,0.21c0.087,0.545-1.238,1.916-2.241,2.515c0.142-0.818,0.601-2.73,1.762-2.73
			C110.703,393.416,110.74,393.418,110.777,393.422z"/>
		<path style="fill:#407BFF;" d="M100.039,208.194l-1.931,2.592c-0.15,0.201,0.078,0.48,0.451,0.552l33.868,6.559
			c0.291,0.057,0.556-0.039,0.604-0.217l0.766-2.818c0.053-0.195-0.172-0.413-0.49-0.474l-32.703-6.334
			C100.364,208.008,100.135,208.064,100.039,208.194z"/>
		<g>
			<g>
				<path style="fill:#407BFF;" d="M144.805,169.862c0,0-6.966-4.761-22.966-7.594c-16-2.833-20-1.563-20-1.563l0.875,18.143
					c0.125,20.831-3.409,29.189-3.409,29.189c-5.784,8.145-6.02,9.677-7.305,13.23c-2.597,7.184-3.412,8-5.412,30.074
					c-2,22.074-16.679,40.593-16.679,40.593c8.888,4.072,16.732,6.884,23.617,8.806c1.598-3.449,4.586-10.3,6.895-17.973
					c0,0-1.311,11.108-3.899,18.77c24.828,6.253,35.942,0.397,35.942,0.397c3.209-26.667,2.126-61.91,3.625-82.5
					c0.396-5.443,2.723-16.317,4-21.623C145.159,176.739,144.805,169.862,144.805,169.862z"/>
				<path style="opacity:0.7;fill:#FFFFFF;" d="M144.805,169.862c0,0-6.966-4.761-22.966-7.594c-16-2.833-20-1.563-20-1.563
					l0.875,18.143c0.125,20.831-3.409,29.189-3.409,29.189c-5.784,8.145-6.02,9.677-7.305,13.23c-2.597,7.184-3.412,8-5.412,30.074
					c-2,22.074-16.679,40.593-16.679,40.593c8.888,4.072,16.732,6.884,23.617,8.806c1.598-3.449,4.586-10.3,6.895-17.973
					c0,0-1.311,11.108-3.899,18.77c24.828,6.253,35.942,0.397,35.942,0.397c3.209-26.667,2.126-61.91,3.625-82.5
					c0.396-5.443,2.723-16.317,4-21.623C145.159,176.739,144.805,169.862,144.805,169.862z"/>
			</g>
			<path style="opacity:0.2;" d="M127.089,242.029h6.717c0,0,1.75,15.989-3.358,16.239
				C125.339,258.518,127.089,242.029,127.089,242.029z"/>
		</g>
		<g>
			<g>
				<path style="fill:#B55B52;" d="M172.347,193.735c-3.509,2.702-7.245,5.443-10.874,7.37c-0.9,0.472-1.802,0.879-2.615,1.138
					c-0.419,0.148-0.832,0.243-1.154,0.287l-0.06-0.133l-0.342-0.754l-0.68-1.509c-1.76-4.064-3.346-8.247-4.778-12.499
					c-1.434-4.221-2.793-8.612-3.95-12.791l-9.442,2.348c0.576,2.441,1.249,4.655,1.951,6.949c0.699,2.274,1.484,4.519,2.313,6.752
					c1.67,4.46,3.581,8.852,5.797,13.139l0.862,1.597l0.434,0.797l0.238,0.431c0.147,0.246,0.276,0.478,0.453,0.724
					c0.662,0.962,1.675,1.961,2.92,2.561c1.238,0.617,2.535,0.807,3.598,0.782c2.162-0.067,3.641-0.7,4.976-1.308
					c1.316-0.645,2.436-1.377,3.494-2.132c4.16-3.078,7.352-6.561,10.345-10.419L172.347,193.735z"/>
				<g>
					<path style="fill:#B55B52;" d="M176.005,197.14l4.363-5.129l-5.257-2.872c0,0-5.032,4.258-1.917,7.774L176.005,197.14z"/>
					<polygon style="fill:#B55B52;" points="181.008,188.955 177.316,185.607 175.11,189.138 180.367,192.01 					"/>
				</g>
			</g>
			<path style="fill:#407BFF;" d="M141.068,194.911c-1.811-4.561-5.396-14.252-4.575-19.091c0.422-2.486,5.304-8.248,7.341-6.918
				c5.387,3.516,8.673,11.371,9.733,15.821c0.993,4.171,4.522,16.546,4.522,16.546s4.125-0.867,10.625-5.996l4.125,6.746
				c0,0-10.681,11.565-18.215,9.47C147.089,209.393,143.044,199.886,141.068,194.911z"/>
			<path style="opacity:0.4;fill:#FFFFFF;" d="M141.068,194.911c-1.811-4.561-5.396-14.252-4.575-19.091
				c0.422-2.486,5.304-8.248,7.341-6.918c5.387,3.516,8.673,11.371,9.733,15.821c0.993,4.171,4.522,16.546,4.522,16.546
				s4.125-0.867,10.625-5.996l4.125,6.746c0,0-10.681,11.565-18.215,9.47C147.089,209.393,143.044,199.886,141.068,194.911z"/>
		</g>
	</g>
</g>
</svg>
