<svg width="6216" height="797" viewBox="0 0 6216 797" fill="none" xmlns="http://www.w3.org/2000/svg">
<path d="M15 760.8C13.4 760.8 10.6 760 6.6 758.4C2.6 757.6 0.6 756 0.6 753.6C0.6 752.8 1 752 1.8 751.2C2.6 750.4 3 750 3 750C8.6 748.4 11 747.6 10.2 747.6C10.2 748.4 13 748 18.6 746.4C32.2 741.6 43.8 734.8 53.4 726C63.8 716.4 72.6 705.2 79.8 692.4C117.4 630 153.4 566.8 187.8 502.8C222.2 438 256.6 373.6 291 309.6C300.6 292.8 309.8 275.6 318.6 258C327.4 240.4 336.2 222.8 345 205.2C349 195.6 353 186 357 176.4C361.8 166.8 367 157.6 372.6 148.8C379 137.6 389 128 402.6 120C417 111.2 430.6 104.8 443.4 100.8H414.6C398.6 100.8 376.6 102 348.6 104.4C321.4 106 292.6 109.2 262.2 114C231.8 118.8 204.6 126 180.6 135.6C157.4 145.2 141.4 158 132.6 174C124.6 188.4 120.6 202.4 120.6 216C120.6 232 124.2 242.8 131.4 248.4C138.6 254 142.2 257.6 142.2 259.2C142.2 260.8 141 262.4 138.6 264C136.2 265.6 134.2 266.4 132.6 266.4C127.8 266.4 121.8 261.6 114.6 252C107.4 242.4 100.6 232 94.2 220.8C88.6 208.8 85 200.8 83.4 196.8C81 188 79.8 179.2 79.8 170.4C79.8 148.8 87 132.4 101.4 121.2C116.6 109.2 135 100.8 156.6 96C178.2 91.2 199.8 88.4 221.4 87.5999C243.8 86 262.2 85.2 276.6 85.2C316.6 85.2 356.6 84.4 396.6 82.8C436.6 80.4 476.2 79.2 515.4 79.2C553 79.2 589.8 82 625.8 87.5999C662.6 92.4 695.8 102.4 725.4 117.6C755 132.8 778.6 154.4 796.2 182.4C814.6 210.4 823.8 247.2 823.8 292.8C823.8 334.4 815.8 377.2 799.8 421.2C784.6 464.4 765.4 503.2 742.2 537.6C644.6 684 507.8 757.2 331.8 757.2C304.6 757.2 276.6 754.4 247.8 748.8C219.8 743.2 193.4 734 168.6 721.2C163 718 157 715.6 150.6 714C145 711.6 139 710.4 132.6 710.4C119 710.4 105.4 714.8 91.8 723.6C78.2 731.6 65 739.6 52.2 747.6C39.4 756.4 27 760.8 15 760.8ZM317.4 740.4C377.4 740.4 433.4 728.8 485.4 705.6C537.4 682.4 583 650 622.2 608.4C661.4 566 692.2 517.6 714.6 463.2C725 437.6 733.4 410.8 739.8 382.8C747 354.8 750.6 327.2 750.6 300C750.6 237.6 731.4 189.6 693 156C655.4 121.6 605.8 104.4 544.2 104.4C529 104.4 513 106 496.2 109.2C480.2 112.4 467 120 456.6 132C446.2 144.8 436.2 158.8 426.6 174C417.8 189.2 409 204 400.2 218.4C381.8 250.4 364.2 283.6 347.4 318C331.4 351.6 315 384.8 298.2 417.6C271.8 468 245.8 518.8 220.2 570C214.6 581.2 208.6 592.8 202.2 604.8C196.6 616 191 627.2 185.4 638.4C183.8 642.4 182.2 646.8 180.6 651.6C179 655.6 178.2 660.4 178.2 666C178.2 676.4 181.4 685.2 187.8 692.4C194.2 699.6 201 706.4 208.2 712.8C223.4 724 241 731.6 261 735.6C281 738.8 299.8 740.4 317.4 740.4ZM802.172 754.8C798.972 754.8 798.972 751.6 802.172 745.2C806.172 738 809.772 730 812.972 721.2C816.972 712.4 820.972 702.8 824.972 692.4C832.972 673.2 841.772 651.6 851.372 627.6C860.972 603.6 870.172 580.4 878.972 558C887.772 534.8 895.372 515.2 901.772 499.2C908.972 482.4 913.772 471.6 916.172 466.8C904.972 478.8 891.372 494 875.372 512.4C860.172 530 845.772 547.2 832.172 564C818.572 580.8 808.172 594 800.972 603.6C798.572 606.8 796.572 608.4 794.972 608.4C793.372 608.4 792.572 606.4 792.572 602.4C792.572 596 794.572 590 798.572 584.4C813.772 565.2 830.572 543.6 848.972 519.6C868.172 495.6 885.372 473.6 900.572 453.6C915.772 432.8 925.372 419.2 929.372 412.8C938.172 411.2 950.972 408.8 967.772 405.6C985.372 402.4 997.372 398 1003.77 392.4C1006.17 390 1008.57 388.8 1010.97 388.8C1012.57 388.8 1013.37 390.4 1013.37 393.6C1014.17 396 1013.37 398.8 1010.97 402C1006.17 406.8 998.972 417.2 989.372 433.2C980.572 449.2 970.572 467.6 959.372 488.4C948.172 509.2 937.372 529.2 926.972 548.4C934.972 536.4 945.372 522.4 958.172 506.4C971.772 489.6 986.572 473.6 1002.57 458.4C1018.57 442.4 1034.57 429.2 1050.57 418.8C1067.37 408.4 1082.97 403.2 1097.37 403.2C1107.77 403.2 1116.57 405.6 1123.77 410.4C1130.97 414.4 1136.57 422 1140.57 433.2C1142.97 438.8 1144.17 445.2 1144.17 452.4C1144.17 466 1140.57 479.2 1133.37 492C1126.97 504 1122.17 513.2 1118.97 519.6C1118.17 522 1115.37 524.4 1110.57 526.8C1105.77 528.4 1103.77 527.6 1104.57 524.4C1105.37 520.4 1105.77 516.4 1105.77 512.4C1106.57 508.4 1106.97 504 1106.97 499.2C1106.97 485.6 1104.17 473.2 1098.57 462C1093.77 450.8 1084.57 445.2 1070.97 445.2C1058.17 445.2 1042.57 453.2 1024.17 469.2C1005.77 485.2 987.372 503.6 968.972 524.4C945.772 551.6 927.372 577.6 913.772 602.4C900.172 626.4 888.972 650 880.172 673.2C875.372 686 870.572 698.8 865.772 711.6C860.972 723.6 857.372 733.2 854.972 740.4C844.572 741.2 834.172 743.6 823.772 747.6C813.372 752.4 806.172 754.8 802.172 754.8ZM1165.13 745.2C1157.13 745.2 1148.73 742.4 1139.93 736.8C1131.93 730.4 1125.53 724.4 1120.72 718.8C1119.93 717.2 1123.13 714 1130.33 709.2C1137.53 703.6 1145.13 698.4 1153.13 693.6C1161.93 688.8 1166.73 686.8 1167.53 687.6C1173.93 690.8 1180.33 694.4 1186.73 698.4C1193.13 701.6 1199.93 702.8 1207.13 702H1211.93C1215.93 702 1217.93 703.2 1217.93 705.6C1217.93 708 1215.13 712 1209.53 717.6C1202.33 723.2 1194.73 729.2 1186.73 735.6C1179.53 742 1172.33 745.2 1165.13 745.2ZM1592.82 796.8C1586.42 796.8 1581.22 795.6 1577.22 793.2C1573.22 791.6 1571.62 787.6 1572.42 781.2C1572.42 778.8 1573.62 775.2 1576.02 770.4C1578.42 765.6 1580.02 762 1580.82 759.6C1584.82 748.4 1588.42 737.2 1591.62 726C1594.82 714 1598.02 702.8 1601.22 692.4C1612.42 648.4 1622.82 604.8 1632.42 561.6C1642.02 517.6 1649.62 473.6 1655.22 429.6C1658.42 404 1662.42 369.6 1667.22 326.4C1672.02 282.4 1674.42 240 1674.42 199.2C1674.42 183.2 1674.02 168.4 1673.22 154.8C1672.42 140.4 1670.42 127.6 1667.22 116.4C1640.82 116.4 1614.42 116.4 1588.02 116.4C1561.62 115.6 1535.62 115.2 1510.02 115.2C1498.02 115.2 1481.22 116 1459.62 117.6C1438.82 119.2 1417.22 122.8 1394.82 128.4C1373.22 134 1355.22 143.2 1340.82 156C1326.42 168.8 1320.02 186 1321.62 207.6C1322.42 214 1324.82 222.8 1328.82 234C1332.82 244.4 1335.62 250.8 1337.22 253.2L1324.02 262.8C1319.22 254 1313.22 244 1306.02 232.8C1298.82 220.8 1292.42 209.2 1286.82 198C1281.22 186.8 1278.02 178.4 1277.22 172.8C1276.42 164.8 1276.82 154.4 1278.42 141.6C1280.02 128.8 1286.42 117.6 1297.62 108C1309.62 97.5999 1326.02 90.7999 1346.82 87.5999C1368.42 84.4 1390.42 82.8 1412.82 82.8C1434.42 82.8 1455.22 83.6 1475.22 85.2C1495.22 86.7999 1511.62 87.5999 1524.42 87.5999C1524.42 87.5999 1533.62 87.5999 1552.02 87.5999C1570.42 87.5999 1593.62 87.5999 1621.62 87.5999C1650.42 86.7999 1680.82 86.3999 1712.82 86.3999C1744.82 86.3999 1774.02 86.3999 1800.42 86.3999L1775.22 117.6H1691.22C1703.22 140 1710.82 171.2 1714.02 211.2C1718.02 251.2 1720.02 289.6 1720.02 326.4C1720.02 341.6 1720.02 356 1720.02 369.6C1720.02 383.2 1719.62 395.2 1718.82 405.6C1717.22 443.2 1712.02 488.4 1703.22 541.2C1694.42 594 1683.22 644 1669.62 691.2C1702.42 644.8 1742.42 589.6 1789.62 525.6C1837.62 461.6 1892.42 395.2 1954.02 326.4C2016.42 256.8 2085.22 190.8 2160.42 128.4C2175.62 115.6 2195.62 101.2 2220.42 85.2C2245.22 69.2 2271.62 55.6 2299.62 44.4C2327.62 32.4 2354.02 26.3999 2378.82 26.3999C2402.02 26.3999 2418.02 30.4 2426.82 38.4C2436.42 46.4 2441.22 56.8 2441.22 69.6C2441.22 84.7999 2436.42 101.6 2426.82 120C2418.02 138.4 2411.22 153.6 2406.42 165.6C2405.62 168 2402.02 169.6 2395.62 170.4C2389.22 171.2 2386.42 170 2387.22 166.8C2388.82 160.4 2390.42 152.8 2392.02 144C2394.42 134.4 2395.62 124.8 2395.62 115.2C2395.62 102.4 2393.22 90.8 2388.42 80.4C2383.62 69.9999 2374.42 64 2360.82 62.4C2358.42 61.6 2356.02 61.2 2353.62 61.2C2351.22 61.2 2348.82 61.2 2346.42 61.2C2323.22 61.2 2298.02 69.2 2270.82 85.2C2244.42 100.4 2213.62 122 2178.42 150C2111.22 203.6 2047.22 262.8 1986.42 327.6C1926.42 391.6 1868.82 458.8 1813.62 529.2C1784.82 565.2 1756.82 601.6 1729.62 638.4C1702.42 675.2 1677.22 713.6 1654.02 753.6C1652.42 756.8 1650.82 760.4 1649.22 764.4C1648.42 769.2 1647.22 772.8 1645.62 775.2C1644.02 776.8 1639.22 779.2 1631.22 782.4C1623.22 786.4 1615.22 789.6 1607.22 792C1600.02 795.2 1595.22 796.8 1592.82 796.8ZM2110.13 741.6C2102.13 741.6 2095.33 740 2089.73 736.8C2084.13 733.6 2081.33 727.6 2081.33 718.8C2081.33 707.6 2084.13 694.8 2089.73 680.4C2095.33 666 2101.73 652 2108.93 638.4C2116.13 624 2122.53 612.4 2128.13 603.6C2100.13 633.2 2070.93 661.2 2040.53 687.6C2025.33 700.4 2008.53 712.4 1990.13 723.6C1971.73 734.8 1952.13 740.4 1931.33 740.4C1923.33 740.4 1917.73 738 1914.53 733.2C1911.33 727.6 1909.73 721.2 1909.73 714C1909.73 710 1910.13 707.2 1910.93 705.6C1914.93 674.4 1924.93 642 1940.93 608.4C1956.93 574.8 1976.53 543.2 1999.73 513.6C2022.93 484 2046.53 460 2070.53 441.6C2097.73 420.8 2127.73 410.4 2160.53 410.4H2298.53C2302.53 410.4 2304.53 412 2304.53 415.2C2304.53 421.6 2300.93 424.8 2293.73 424.8C2285.73 424.8 2277.73 430 2269.73 440.4C2261.73 450 2255.73 458 2251.73 464.4C2246.13 473.2 2237.33 488 2225.33 508.8C2213.33 529.6 2200.93 552.4 2188.13 577.2C2176.13 601.2 2165.73 623.6 2156.93 644.4C2148.13 665.2 2143.73 680.4 2143.73 690C2143.73 701.2 2149.33 706.8 2160.53 706.8C2172.53 706.8 2186.13 701.2 2201.33 690C2216.53 678.8 2231.73 665.2 2246.93 649.2C2262.93 632.4 2277.33 616 2290.13 600C2303.73 583.2 2314.53 570 2322.53 560.4C2327.33 565.2 2326.93 572 2321.33 580.8C2316.53 588.8 2312.13 595.2 2308.13 600C2292.13 620.8 2273.73 642.4 2252.93 664.8C2232.13 686.4 2209.33 704.8 2184.53 720C2160.53 734.4 2135.73 741.6 2110.13 741.6ZM1980.53 699.6C1990.13 699.6 2003.33 692.8 2020.13 679.2C2037.73 664.8 2056.53 647.2 2076.53 626.4C2096.53 604.8 2115.33 582.4 2132.93 559.2C2150.53 535.2 2164.93 513.6 2176.13 494.4C2188.13 474.4 2194.13 459.2 2194.13 448.8C2194.13 440 2191.33 434 2185.73 430.8C2180.93 427.6 2174.53 426 2166.53 426C2153.73 426 2139.73 430.8 2124.53 440.4C2110.13 449.2 2098.53 458 2089.73 466.8C2080.13 475.6 2068.53 489.6 2054.93 508.8C2042.13 527.2 2029.33 547.6 2016.53 570C2003.73 592.4 1992.93 614 1984.13 634.8C1975.33 655.6 1970.93 672.4 1970.93 685.2C1970.93 694.8 1974.13 699.6 1980.53 699.6ZM2306.86 756C2303.66 756 2303.66 752.4 2306.86 745.2C2310.86 738 2314.46 730 2317.66 721.2C2321.66 712.4 2325.66 702.8 2329.66 692.4C2337.66 673.2 2346.46 651.6 2356.06 627.6C2365.66 603.6 2374.86 580.4 2383.66 558C2392.46 534.8 2400.06 515.2 2406.46 499.2C2413.66 482.4 2418.46 471.6 2420.86 466.8C2409.66 478.8 2396.06 494 2380.06 512.4C2364.86 530 2350.46 547.2 2336.86 564C2323.26 580.8 2312.86 594 2305.66 603.6C2303.26 606.8 2301.26 608.4 2299.66 608.4C2298.06 608.4 2297.26 606.4 2297.26 602.4C2297.26 596 2299.26 590 2303.26 584.4C2318.46 565.2 2335.26 543.6 2353.66 519.6C2372.86 495.6 2390.06 473.6 2405.26 453.6C2420.46 432.8 2430.06 419.2 2434.06 412.8C2442.86 411.2 2455.66 408.8 2472.46 405.6C2490.06 402.4 2502.06 398 2508.46 392.4C2510.86 390 2513.26 388.8 2515.66 388.8C2517.26 388.8 2518.06 390.4 2518.06 393.6C2518.86 396 2518.06 398.8 2515.66 402C2510.86 407.6 2502.46 420.8 2490.46 441.6C2479.26 461.6 2466.86 484 2453.26 508.8C2440.46 533.6 2428.46 556 2417.26 576C2430.06 560.8 2442.46 546.4 2454.46 532.8C2467.26 519.2 2476.06 509.6 2480.86 504C2490.46 494.4 2503.66 482.4 2520.46 468C2537.26 453.6 2554.86 440.4 2573.26 428.4C2591.66 416.4 2607.66 409.6 2621.26 408C2624.46 407.2 2627.26 406.8 2629.66 406.8C2632.06 406.8 2634.46 406.8 2636.86 406.8C2652.06 406.8 2659.66 412.4 2659.66 423.6C2659.66 428.4 2658.46 434 2656.06 440.4C2653.66 446.8 2650.46 453.2 2646.46 459.6C2641.66 469.2 2633.66 484.4 2622.46 505.2C2611.26 525.2 2601.26 543.6 2592.46 560.4L2648.86 504C2658.46 494.4 2671.66 482.4 2688.46 468C2705.26 453.6 2722.86 440.4 2741.26 428.4C2759.66 416.4 2775.66 409.6 2789.26 408C2792.46 407.2 2795.26 406.8 2797.66 406.8C2800.86 406.8 2803.26 406.8 2804.86 406.8C2822.46 406.8 2831.26 413.2 2831.26 426C2831.26 435.6 2826.06 448.4 2815.66 464.4C2810.06 473.2 2801.26 488 2789.26 508.8C2777.26 529.6 2764.86 552.4 2752.06 577.2C2740.06 601.2 2729.66 623.6 2720.86 644.4C2712.06 665.2 2707.66 680.4 2707.66 690C2707.66 701.2 2713.26 706.8 2724.46 706.8C2734.86 706.8 2748.06 700.8 2764.06 688.8C2780.86 676 2797.66 660.8 2814.46 643.2C2832.06 625.6 2847.26 608.8 2860.06 592.8C2865.66 586.4 2870.86 580 2875.66 573.6C2881.26 566.4 2884.46 562.4 2885.26 561.6C2886.86 563.2 2887.66 566 2887.66 570C2887.66 575.6 2885.66 581.2 2881.66 586.8C2878.46 591.6 2875.26 596 2872.06 600C2856.86 620 2839.26 640.8 2819.26 662.4C2800.06 684 2778.86 702.4 2755.66 717.6C2732.46 732 2707.66 740.4 2681.26 742.8C2673.26 743.6 2665.26 742 2657.26 738C2649.26 734 2645.26 727.6 2645.26 718.8C2645.26 707.6 2648.06 694.4 2653.66 679.2C2660.06 664 2666.86 648.8 2674.06 633.6C2682.06 618.4 2688.06 606 2692.06 596.4C2706.46 568.4 2719.66 542 2731.66 517.2C2743.66 492.4 2752.06 474.8 2756.86 464.4C2759.26 459.6 2760.46 455.6 2760.46 452.4C2760.46 446.8 2756.06 446.4 2747.26 451.2C2738.46 456 2727.66 463.2 2714.86 472.8C2702.86 482.4 2691.66 492 2681.26 501.6C2670.86 510.4 2664.06 516.4 2660.86 519.6C2647.26 533.2 2630.86 551.6 2611.66 574.8C2593.26 598 2576.06 622.4 2560.06 648C2544.06 672.8 2532.86 696 2526.46 717.6C2518.46 724.8 2510.86 728.4 2503.66 728.4C2498.06 728.4 2493.26 726.4 2489.26 722.4C2486.06 718.4 2484.46 713.6 2484.46 708C2484.46 692 2489.26 673.2 2498.86 651.6C2509.26 629.2 2517.66 610.8 2524.06 596.4C2538.46 568.4 2551.66 542 2563.66 517.2C2575.66 492.4 2584.06 474.8 2588.86 464.4C2591.26 459.6 2592.46 455.6 2592.46 452.4C2592.46 446.8 2588.06 446.4 2579.26 451.2C2570.46 456 2559.66 463.2 2546.86 472.8C2534.86 482.4 2523.66 492 2513.26 501.6C2502.86 510.4 2496.06 516.4 2492.86 519.6C2473.66 539.6 2455.66 560 2438.86 580.8C2422.86 601.6 2409.26 624 2398.06 648C2391.66 662.4 2384.86 678.4 2377.66 696C2370.46 713.6 2364.46 728.4 2359.66 740.4C2349.26 741.2 2338.86 744 2328.46 748.8C2318.06 753.6 2310.86 756 2306.86 756ZM2935.33 757.2C2920.93 757.2 2905.73 755.2 2889.73 751.2C2873.73 747.2 2859.33 740.8 2846.53 732C2834.53 722.4 2826.53 709.6 2822.53 693.6C2821.73 691.2 2821.33 687.6 2821.33 682.8C2821.33 671.6 2823.73 659.2 2828.53 645.6C2834.13 632 2840.93 622.4 2848.93 616.8C2852.13 615.2 2854.53 615.2 2856.13 616.8C2858.53 618.4 2858.93 620 2857.33 621.6C2856.53 624 2855.33 627.2 2853.73 631.2C2852.13 634.4 2850.93 638 2850.13 642C2847.73 662.8 2852.13 681.2 2863.33 697.2C2868.13 703.6 2873.73 709.6 2880.13 715.2C2887.33 720.8 2894.13 725.6 2900.53 729.6C2906.13 732.8 2912.93 735.2 2920.93 736.8C2928.93 737.6 2936.93 738 2944.93 738C2957.73 738 2970.13 736.4 2982.13 733.2C2994.13 730 3002.93 724.8 3008.53 717.6C3018.93 704.8 3024.13 690.4 3024.13 674.4C3024.13 662.4 3020.93 649.6 3014.53 636C3008.13 622.4 2998.13 608 2984.53 592.8C2975.73 583.2 2967.33 572.8 2959.33 561.6C2951.33 550.4 2946.13 538.4 2943.73 525.6C2942.93 523.2 2942.13 520.8 2941.33 518.4C2941.33 516 2941.33 513.6 2941.33 511.2C2930.93 526.4 2920.13 540.8 2908.93 554.4C2898.53 567.2 2889.33 578.4 2881.33 588C2878.13 592.8 2875.33 595.2 2872.93 595.2C2871.33 595.2 2870.53 593.6 2870.53 590.4C2870.53 583.2 2873.73 575.6 2880.13 567.6C2886.53 560.4 2893.73 551.6 2901.73 541.2C2909.73 530 2916.13 521.2 2920.93 514.8C2934.53 494.8 2944.53 479.2 2950.93 468C2958.13 456 2965.73 445.2 2973.73 435.6C2982.53 425.2 2993.33 416.8 3006.13 410.4C3019.73 404 3033.73 400.8 3048.13 400.8C3064.93 400.8 3080.13 403.6 3093.73 409.2C3108.13 414 3115.73 426.8 3116.53 447.6C3116.53 457.2 3114.53 467.2 3110.53 477.6C3107.33 487.2 3103.73 496.4 3099.73 505.2C3097.33 510 3093.73 513.6 3088.93 516C3084.93 517.6 3082.93 516.8 3082.93 513.6C3082.93 510.4 3083.33 506.8 3084.13 502.8C3084.93 498.8 3085.33 495.2 3085.33 492C3085.33 478.4 3082.93 466.4 3078.13 456C3074.13 444.8 3068.13 436.8 3060.13 432C3052.13 426.4 3043.73 423.6 3034.93 423.6C3022.13 423.6 3009.73 428.8 2997.73 439.2C2985.73 448.8 2979.73 461.6 2979.73 477.6C2979.73 479.2 2979.73 481.2 2979.73 483.6C2979.73 486 2980.13 488 2980.93 489.6C2984.13 502.4 2993.73 516.8 3009.73 532.8C3025.73 548.8 3038.13 562.8 3046.93 574.8C3062.13 595.6 3069.73 616.8 3069.73 638.4C3069.73 660 3063.33 680 3050.53 698.4C3038.53 716 3022.13 730 3001.33 740.4C2981.33 751.6 2959.33 757.2 2935.33 757.2ZM3391.84 279.6C3380.64 279.6 3372.64 276 3367.84 268.8C3364.64 264.8 3363.04 259.6 3363.04 253.2C3363.04 240.4 3369.04 230 3381.04 222C3389.84 217.2 3397.84 214.8 3405.04 214.8C3417.04 214.8 3425.44 218.4 3430.24 225.6C3433.44 229.6 3435.04 234.8 3435.04 241.2C3435.04 254 3428.64 264.4 3415.84 272.4C3408.64 277.2 3400.64 279.6 3391.84 279.6ZM3183.04 741.6C3175.04 741.6 3168.24 740 3162.64 736.8C3157.84 733.6 3155.44 727.6 3155.44 718.8C3155.44 707.6 3158.24 694.4 3163.84 679.2C3170.24 664 3177.04 648.8 3184.24 633.6C3192.24 618.4 3198.24 606 3202.24 596.4C3207.84 585.2 3214.64 570.8 3222.64 553.2C3231.44 534.8 3239.44 517.6 3246.64 501.6C3254.64 484.8 3260.24 473.2 3263.44 466.8C3252.24 478.8 3238.64 494 3222.64 512.4C3207.44 530 3193.04 547.2 3179.44 564C3165.84 580.8 3155.44 594 3148.24 603.6C3145.84 606.8 3143.84 608.4 3142.24 608.4C3140.64 608.4 3139.84 606.4 3139.84 602.4C3139.84 596 3141.84 590 3145.84 584.4C3161.04 565.2 3177.84 543.6 3196.24 519.6C3215.44 495.6 3232.64 473.6 3247.84 453.6C3263.04 432.8 3272.64 419.2 3276.64 412.8C3285.44 411.2 3298.24 408.8 3315.04 405.6C3332.64 402.4 3344.64 398 3351.04 392.4C3353.44 390 3355.84 388.8 3358.24 388.8C3359.84 388.8 3360.64 390.4 3360.64 393.6C3361.44 396 3360.64 398.8 3358.24 402C3353.44 407.6 3345.04 421.2 3333.04 442.8C3321.04 464.4 3308.24 488.4 3294.64 514.8C3281.84 540.4 3269.84 563.6 3258.64 584.4C3247.44 606 3237.84 626.8 3229.84 646.8C3221.84 666.8 3217.84 681.2 3217.84 690C3217.84 701.2 3223.44 706.8 3234.64 706.8C3245.04 706.8 3258.24 700.4 3274.24 687.6C3291.04 674.8 3307.84 659.6 3324.64 642C3341.44 623.6 3356.24 606.8 3369.04 591.6C3373.04 586.8 3377.84 581.2 3383.44 574.8C3389.84 567.6 3393.84 563.2 3395.44 561.6C3397.04 563.2 3397.84 566 3397.84 570C3397.04 575.6 3395.04 581.2 3391.84 586.8C3388.64 591.6 3385.44 596 3382.24 600C3365.44 620.8 3347.04 642.4 3327.04 664.8C3307.04 686.4 3285.04 704.8 3261.04 720C3237.04 734.4 3211.04 741.6 3183.04 741.6ZM3542.23 763.2C3539.03 763.2 3536.63 762.4 3535.03 760.8C3532.63 759.2 3532.23 758 3533.83 757.2C3552.23 742.8 3567.43 728.4 3579.43 714C3592.23 699.6 3605.03 681.2 3617.83 658.8L3634.63 630C3650.63 602.8 3668.63 571.6 3688.63 536.4C3708.63 501.2 3728.63 465.6 3748.63 429.6C3769.43 393.6 3788.23 360.4 3805.03 330C3822.63 299.6 3836.63 275.2 3847.03 256.8C3857.43 237.6 3862.63 228 3862.63 228C3884.23 190.4 3907.83 162 3933.43 142.8C3959.83 122.8 3983.03 110 4003.03 104.4C3944.63 105.2 3892.63 109.6 3847.03 117.6C3801.43 125.6 3770.63 144.4 3754.63 174C3751.43 179.6 3749.03 186 3747.43 193.2C3746.63 199.6 3746.23 206 3746.23 212.4C3746.23 233.2 3751.83 248 3763.03 256.8C3763.83 257.6 3764.23 258.4 3764.23 259.2C3764.23 260.8 3762.63 262.4 3759.43 264C3757.03 265.6 3754.63 266 3752.23 265.2C3745.03 261.2 3736.23 251.6 3725.83 236.4C3715.43 220.4 3709.03 207.2 3706.63 196.8C3704.23 187.2 3703.03 178.4 3703.03 170.4C3703.03 148.8 3710.63 132 3725.83 120C3741.03 108 3759.43 99.6 3781.03 94.8C3803.43 90 3826.23 87.1999 3849.43 86.3999C3872.63 85.6 3891.83 85.2 3907.03 85.2H3955.03C3971.03 85.2 3988.23 85.2 4006.63 85.2C4025.83 84.4 4041.83 82.8 4054.63 80.4H4059.43C4064.23 80.4 4067.83 82 4070.23 85.2C4072.63 88.4 4073.83 91.6 4073.83 94.8C4073.83 101.2 4071.03 104.4 4065.43 104.4C4062.23 104.4 4059.43 104.4 4057.03 104.4C4055.43 103.6 4053.03 103.2 4049.83 103.2C4013.03 103.2 3976.23 135.2 3939.43 199.2C3939.43 199.2 3935.03 206.4 3926.23 220.8C3918.23 234.4 3907.83 252 3895.03 273.6C3883.03 295.2 3870.23 318 3856.63 342C3843.03 366 3831.03 387.6 3820.63 406.8C3799.03 446.8 3775.83 490.4 3751.03 537.6C3727.03 584 3702.23 632.4 3676.63 682.8C3671.03 692.4 3666.23 703.6 3662.23 716.4C3658.23 728.4 3652.23 734.4 3644.23 734.4C3641.03 734.4 3637.03 734 3632.23 733.2C3627.43 732.4 3622.23 732 3616.63 732C3603.03 732 3590.63 734.4 3579.43 739.2C3569.03 744 3558.23 751.6 3547.03 762C3546.23 762.8 3544.63 763.2 3542.23 763.2ZM4065.43 751.2C4045.43 751.2 4025.03 744.8 4004.23 732C3983.43 718.4 3962.23 697.6 3940.63 669.6C3915.03 635.2 3893.43 602 3875.83 570C3858.23 537.2 3843.83 508.8 3832.63 484.8C3822.23 460.8 3814.23 443.6 3808.63 433.2C3853.43 391.6 3899.43 354.4 3946.63 321.6C3994.63 288.8 4042.23 257.6 4089.43 228C4121.43 208.8 4155.83 187.6 4192.63 164.4C4229.43 140.4 4266.63 120.4 4304.23 104.4C4330.63 93.2 4356.23 87.5999 4381.03 87.5999C4392.23 87.5999 4403.43 88.7999 4414.63 91.2C4425.83 92.8 4436.63 95.6 4447.03 99.6C4455.03 102 4464.23 107.2 4474.63 115.2C4485.03 122.4 4489.43 130.8 4487.83 140.4C4487.83 143.6 4486.23 145.2 4483.03 145.2C4479.03 145.2 4475.43 142.8 4472.23 138C4469.03 133.2 4464.23 128.4 4457.83 123.6C4451.43 118.8 4441.43 116.4 4427.83 116.4C4410.23 116.4 4390.63 120 4369.03 127.2C4348.23 134.4 4329.83 141.2 4313.83 147.6C4281.83 161.2 4248.23 176 4213.03 192C4177.83 208 4144.63 224.8 4113.43 242.4C4085.43 257.6 4055.83 275.2 4024.63 295.2C3993.43 315.2 3963.03 335.6 3933.43 356.4C3904.63 376.4 3878.63 394.8 3855.43 411.6C3860.23 423.6 3868.23 441.6 3879.43 465.6C3890.63 489.6 3905.43 516.8 3923.83 547.2C3942.23 576.8 3963.83 606.8 3988.63 637.2C4007.03 659.6 4025.03 676 4042.63 686.4C4061.03 696 4078.23 700.8 4094.23 700.8C4115.83 700.8 4135.83 694.8 4154.23 682.8C4173.43 670 4191.43 654 4208.23 634.8C4225.83 615.6 4242.23 596 4257.43 576C4261.43 571.2 4264.23 568.8 4265.83 568.8C4269.03 568.8 4270.63 570.8 4270.63 574.8C4270.63 579.6 4268.63 584.4 4264.63 589.2C4229.43 638 4195.43 677.2 4162.63 706.8C4130.63 736.4 4098.23 751.2 4065.43 751.2ZM4254.52 754.8C4251.32 754.8 4251.32 751.6 4254.52 745.2C4258.52 738 4262.12 730 4265.32 721.2C4269.32 712.4 4273.32 702.8 4277.32 692.4C4285.32 673.2 4294.12 651.6 4303.72 627.6C4313.32 603.6 4322.52 580.4 4331.32 558C4340.12 534.8 4347.72 515.2 4354.12 499.2C4361.32 482.4 4366.12 471.6 4368.52 466.8C4357.32 478.8 4343.72 494 4327.72 512.4C4312.52 530 4298.12 547.2 4284.52 564C4270.92 580.8 4260.52 594 4253.32 603.6C4250.92 606.8 4248.92 608.4 4247.32 608.4C4245.72 608.4 4244.92 606.4 4244.92 602.4C4244.92 596 4246.92 590 4250.92 584.4C4266.12 565.2 4282.92 543.6 4301.32 519.6C4320.52 495.6 4337.72 473.6 4352.92 453.6C4368.12 432.8 4377.72 419.2 4381.72 412.8C4390.52 411.2 4403.32 408.8 4420.12 405.6C4437.72 402.4 4449.72 398 4456.12 392.4C4458.52 390 4460.92 388.8 4463.32 388.8C4464.92 388.8 4465.72 390.4 4465.72 393.6C4466.52 396 4465.72 398.8 4463.32 402C4458.52 406.8 4451.32 417.2 4441.72 433.2C4432.92 449.2 4422.92 467.6 4411.72 488.4C4400.52 509.2 4389.72 529.2 4379.32 548.4C4387.32 536.4 4397.72 522.4 4410.52 506.4C4424.12 489.6 4438.92 473.6 4454.92 458.4C4470.92 442.4 4486.92 429.2 4502.92 418.8C4519.72 408.4 4535.32 403.2 4549.72 403.2C4560.12 403.2 4568.92 405.6 4576.12 410.4C4583.32 414.4 4588.92 422 4592.92 433.2C4595.32 438.8 4596.52 445.2 4596.52 452.4C4596.52 466 4592.92 479.2 4585.72 492C4579.32 504 4574.52 513.2 4571.32 519.6C4570.52 522 4567.72 524.4 4562.92 526.8C4558.12 528.4 4556.12 527.6 4556.92 524.4C4557.72 520.4 4558.12 516.4 4558.12 512.4C4558.92 508.4 4559.32 504 4559.32 499.2C4559.32 485.6 4556.52 473.2 4550.92 462C4546.12 450.8 4536.92 445.2 4523.32 445.2C4510.52 445.2 4494.92 453.2 4476.52 469.2C4458.12 485.2 4439.72 503.6 4421.32 524.4C4398.12 551.6 4379.72 577.6 4366.12 602.4C4352.52 626.4 4341.32 650 4332.52 673.2C4327.72 686 4322.92 698.8 4318.12 711.6C4313.32 723.6 4309.72 733.2 4307.32 740.4C4296.92 741.2 4286.52 743.6 4276.12 747.6C4265.72 752.4 4258.52 754.8 4254.52 754.8ZM4823.87 279.6C4812.67 279.6 4804.67 276 4799.87 268.8C4796.67 264.8 4795.07 259.6 4795.07 253.2C4795.07 240.4 4801.07 230 4813.07 222C4821.87 217.2 4829.87 214.8 4837.07 214.8C4849.07 214.8 4857.47 218.4 4862.27 225.6C4865.47 229.6 4867.07 234.8 4867.07 241.2C4867.07 254 4860.67 264.4 4847.87 272.4C4840.67 277.2 4832.67 279.6 4823.87 279.6ZM4615.07 741.6C4607.07 741.6 4600.27 740 4594.67 736.8C4589.87 733.6 4587.47 727.6 4587.47 718.8C4587.47 707.6 4590.27 694.4 4595.87 679.2C4602.27 664 4609.07 648.8 4616.27 633.6C4624.27 618.4 4630.27 606 4634.27 596.4C4639.87 585.2 4646.67 570.8 4654.67 553.2C4663.47 534.8 4671.47 517.6 4678.67 501.6C4686.67 484.8 4692.27 473.2 4695.47 466.8C4684.27 478.8 4670.67 494 4654.67 512.4C4639.47 530 4625.07 547.2 4611.47 564C4597.87 580.8 4587.47 594 4580.27 603.6C4577.87 606.8 4575.87 608.4 4574.27 608.4C4572.67 608.4 4571.87 606.4 4571.87 602.4C4571.87 596 4573.87 590 4577.87 584.4C4593.07 565.2 4609.87 543.6 4628.27 519.6C4647.47 495.6 4664.67 473.6 4679.87 453.6C4695.07 432.8 4704.67 419.2 4708.67 412.8C4717.47 411.2 4730.27 408.8 4747.07 405.6C4764.67 402.4 4776.67 398 4783.07 392.4C4785.47 390 4787.87 388.8 4790.27 388.8C4791.87 388.8 4792.67 390.4 4792.67 393.6C4793.47 396 4792.67 398.8 4790.27 402C4785.47 407.6 4777.07 421.2 4765.07 442.8C4753.07 464.4 4740.27 488.4 4726.67 514.8C4713.87 540.4 4701.87 563.6 4690.67 584.4C4679.47 606 4669.87 626.8 4661.87 646.8C4653.87 666.8 4649.87 681.2 4649.87 690C4649.87 701.2 4655.47 706.8 4666.67 706.8C4677.07 706.8 4690.27 700.4 4706.27 687.6C4723.07 674.8 4739.87 659.6 4756.67 642C4773.47 623.6 4788.27 606.8 4801.07 591.6C4805.07 586.8 4809.87 581.2 4815.47 574.8C4821.87 567.6 4825.87 563.2 4827.47 561.6C4829.07 563.2 4829.87 566 4829.87 570C4829.07 575.6 4827.07 581.2 4823.87 586.8C4820.67 591.6 4817.47 596 4814.27 600C4797.47 620.8 4779.07 642.4 4759.07 664.8C4739.07 686.4 4717.07 704.8 4693.07 720C4669.07 734.4 4643.07 741.6 4615.07 741.6ZM4877.13 757.2C4862.73 757.2 4847.53 755.2 4831.53 751.2C4815.53 747.2 4801.13 740.8 4788.33 732C4776.33 722.4 4768.33 709.6 4764.33 693.6C4763.53 691.2 4763.13 687.6 4763.13 682.8C4763.13 671.6 4765.53 659.2 4770.33 645.6C4775.93 632 4782.73 622.4 4790.73 616.8C4793.93 615.2 4796.33 615.2 4797.93 616.8C4800.33 618.4 4800.73 620 4799.13 621.6C4798.33 624 4797.13 627.2 4795.53 631.2C4793.93 634.4 4792.73 638 4791.93 642C4789.53 662.8 4793.93 681.2 4805.13 697.2C4809.93 703.6 4815.53 709.6 4821.93 715.2C4829.13 720.8 4835.93 725.6 4842.33 729.6C4847.93 732.8 4854.73 735.2 4862.73 736.8C4870.73 737.6 4878.73 738 4886.73 738C4899.53 738 4911.93 736.4 4923.93 733.2C4935.93 730 4944.73 724.8 4950.33 717.6C4960.73 704.8 4965.93 690.4 4965.93 674.4C4965.93 662.4 4962.73 649.6 4956.33 636C4949.93 622.4 4939.93 608 4926.33 592.8C4917.53 583.2 4909.13 572.8 4901.13 561.6C4893.13 550.4 4887.93 538.4 4885.53 525.6C4884.73 523.2 4883.93 520.8 4883.13 518.4C4883.13 516 4883.13 513.6 4883.13 511.2C4872.73 526.4 4861.93 540.8 4850.73 554.4C4840.33 567.2 4831.13 578.4 4823.13 588C4819.93 592.8 4817.13 595.2 4814.73 595.2C4813.13 595.2 4812.33 593.6 4812.33 590.4C4812.33 583.2 4815.53 575.6 4821.93 567.6C4828.33 560.4 4835.53 551.6 4843.53 541.2C4851.53 530 4857.93 521.2 4862.73 514.8C4876.33 494.8 4886.33 479.2 4892.73 468C4899.93 456 4907.53 445.2 4915.53 435.6C4924.33 425.2 4935.13 416.8 4947.93 410.4C4961.53 404 4975.53 400.8 4989.93 400.8C5006.73 400.8 5021.93 403.6 5035.53 409.2C5049.93 414 5057.53 426.8 5058.33 447.6C5058.33 457.2 5056.33 467.2 5052.33 477.6C5049.13 487.2 5045.53 496.4 5041.53 505.2C5039.13 510 5035.53 513.6 5030.73 516C5026.73 517.6 5024.73 516.8 5024.73 513.6C5024.73 510.4 5025.13 506.8 5025.93 502.8C5026.73 498.8 5027.13 495.2 5027.13 492C5027.13 478.4 5024.73 466.4 5019.93 456C5015.93 444.8 5009.93 436.8 5001.93 432C4993.93 426.4 4985.53 423.6 4976.73 423.6C4963.93 423.6 4951.53 428.8 4939.53 439.2C4927.53 448.8 4921.53 461.6 4921.53 477.6C4921.53 479.2 4921.53 481.2 4921.53 483.6C4921.53 486 4921.93 488 4922.73 489.6C4925.93 502.4 4935.53 516.8 4951.53 532.8C4967.53 548.8 4979.93 562.8 4988.73 574.8C5003.93 595.6 5011.53 616.8 5011.53 638.4C5011.53 660 5005.13 680 4992.33 698.4C4980.33 716 4963.93 730 4943.13 740.4C4923.13 751.6 4901.13 757.2 4877.13 757.2ZM5261.63 745.2C5249.63 745.2 5238.83 742.8 5229.23 738C5220.43 733.2 5216.03 724.4 5216.03 711.6C5216.03 704.4 5217.63 696.4 5220.83 687.6C5228.03 669.2 5237.63 646.8 5249.63 620.4C5262.43 594 5275.23 568.4 5288.03 543.6C5300.83 518 5310.83 497.2 5318.03 481.2C5322.83 471.6 5325.23 464.8 5325.23 460.8C5325.23 453.6 5321.23 452 5313.23 456C5305.23 460 5296.43 465.6 5286.83 472.8C5277.23 480 5270.03 485.6 5265.23 489.6C5244.43 508.8 5222.43 531.6 5199.23 558C5176.83 583.6 5156.03 610.8 5136.83 639.6C5118.43 667.6 5104.03 695.6 5093.63 723.6C5092.83 728.4 5087.63 732.4 5078.03 735.6C5068.43 738.8 5059.63 740.4 5051.63 740.4C5038.83 740.4 5034.03 736.4 5037.23 728.4C5055.63 686.8 5074.43 640.8 5093.63 590.4C5113.63 540 5136.03 488.4 5160.83 435.6C5179.23 395.6 5199.63 354.4 5222.03 312C5245.23 269.6 5270.83 229.2 5298.83 190.8C5326.83 151.6 5357.63 117.2 5391.23 87.5999C5420.83 62 5453.23 41.2 5488.43 25.2C5524.43 8.39998 5563.23 -1.14441e-05 5604.83 -1.14441e-05C5623.23 -1.14441e-05 5639.23 3.99998 5652.83 12C5666.43 19.2 5674.03 32.4 5675.63 51.6V62.4C5675.63 73.6 5674.43 84.8 5672.03 96C5671.23 99.2 5668.03 100.8 5662.43 100.8C5660.03 100.8 5659.23 100.4 5660.03 99.6C5663.23 78.8 5657.63 64 5643.23 55.2C5629.63 46.4 5612.03 41.9999 5590.43 41.9999C5551.23 41.9999 5515.23 49.2 5482.43 63.6C5449.63 78 5419.23 97.2 5391.23 121.2C5348.03 158.8 5310.43 206.8 5278.43 265.2C5246.43 323.6 5218.83 383.2 5195.63 444C5184.43 473.6 5173.23 503.2 5162.03 532.8C5151.63 562.4 5141.63 590 5132.03 615.6C5168.03 567.6 5202.43 526.4 5235.23 492C5268.83 457.6 5298.03 433.2 5322.83 418.8C5342.83 407.6 5360.83 402 5376.83 402C5392.03 402 5399.63 408.4 5399.63 421.2C5399.63 432.4 5394.03 446.8 5382.83 464.4C5377.23 473.2 5368.43 488 5356.43 508.8C5345.23 529.6 5333.23 552.4 5320.43 577.2C5308.43 601.2 5298.03 623.6 5289.23 644.4C5280.43 665.2 5276.03 680.4 5276.03 690C5276.03 702.8 5281.63 709.2 5292.83 709.2C5299.23 709.2 5306.43 707.2 5314.43 703.2C5323.23 699.2 5329.63 695.6 5333.63 692.4C5355.23 676.4 5376.43 656.8 5397.23 633.6C5418.03 610.4 5435.63 590 5450.03 572.4C5450.83 571.6 5451.23 572.8 5451.23 576C5451.23 579.2 5450.43 584 5448.83 590.4C5448.03 596 5445.63 600.8 5441.63 604.8C5432.83 616.8 5423.63 628.4 5414.03 639.6C5405.23 650 5396.43 660.4 5387.63 670.8C5372.43 688.4 5354.03 705.2 5332.43 721.2C5311.63 737.2 5288.03 745.2 5261.63 745.2ZM5443.97 756C5440.77 756 5440.77 752.4 5443.97 745.2C5447.97 738 5451.57 730 5454.77 721.2C5458.77 712.4 5462.77 702.8 5466.77 692.4C5474.77 673.2 5483.57 651.6 5493.17 627.6C5502.77 603.6 5511.97 580.4 5520.77 558C5529.57 534.8 5537.17 515.2 5543.57 499.2C5550.77 482.4 5555.57 471.6 5557.97 466.8C5546.77 478.8 5533.17 494 5517.17 512.4C5501.97 530 5487.57 547.2 5473.97 564C5460.37 580.8 5449.97 594 5442.77 603.6C5440.37 606.8 5438.37 608.4 5436.77 608.4C5435.17 608.4 5434.37 606.4 5434.37 602.4C5434.37 596 5436.37 590 5440.37 584.4C5455.57 565.2 5472.37 543.6 5490.77 519.6C5509.97 495.6 5527.17 473.6 5542.37 453.6C5557.57 432.8 5567.17 419.2 5571.17 412.8C5579.97 411.2 5592.77 408.8 5609.57 405.6C5627.17 402.4 5639.17 398 5645.57 392.4C5647.97 390 5650.37 388.8 5652.77 388.8C5654.37 388.8 5655.17 390.4 5655.17 393.6C5655.97 396 5655.17 398.8 5652.77 402C5647.97 407.6 5639.57 420.8 5627.57 441.6C5616.37 461.6 5603.97 484 5590.37 508.8C5577.57 533.6 5565.57 556 5554.37 576C5563.97 563.2 5574.37 550.8 5585.57 538.8C5596.77 526.8 5607.57 515.2 5617.97 504C5627.57 494.4 5640.77 482.4 5657.57 468C5674.37 453.6 5691.97 440.4 5710.37 428.4C5728.77 416.4 5744.77 409.6 5758.37 408C5761.57 407.2 5764.37 406.8 5766.77 406.8C5769.97 406.8 5772.37 406.8 5773.97 406.8C5791.57 406.8 5800.37 413.2 5800.37 426C5800.37 435.6 5795.17 448.4 5784.77 464.4C5779.17 473.2 5770.37 488 5758.37 508.8C5747.17 528.8 5735.57 550.8 5723.57 574.8C5712.37 598 5702.37 620 5693.57 640.8C5685.57 660.8 5681.57 675.6 5681.57 685.2C5681.57 696.4 5687.17 702 5698.37 702C5711.97 702 5726.77 695.2 5742.77 681.6C5759.57 668 5777.57 650.8 5796.77 630C5815.97 608.4 5835.17 585.6 5854.37 561.6C5855.97 563.2 5856.77 566 5856.77 570C5856.77 575.6 5854.77 581.2 5850.77 586.8C5847.57 591.6 5844.37 596 5841.17 600C5833.17 610.4 5822.37 623.6 5808.77 639.6C5795.97 654.8 5782.77 670 5769.17 685.2C5755.57 699.6 5743.17 711.2 5731.97 720C5723.97 725.6 5713.57 731.6 5700.77 738C5687.97 744.4 5675.17 747.6 5662.37 747.6C5647.97 747.6 5637.97 744 5632.37 736.8C5626.77 728.8 5623.97 719.2 5623.97 708C5623.97 695.2 5626.37 681.6 5631.17 667.2C5635.97 652.8 5641.17 639.2 5646.77 626.4C5653.17 612.8 5657.97 602.8 5661.17 596.4C5675.57 568.4 5688.77 542 5700.77 517.2C5712.77 492.4 5721.17 474.8 5725.97 464.4C5728.37 459.6 5729.57 455.6 5729.57 452.4C5729.57 446.8 5725.17 446.4 5716.37 451.2C5707.57 456 5696.77 463.2 5683.97 472.8C5671.97 482.4 5660.77 492 5650.37 501.6C5639.97 510.4 5633.17 516.4 5629.97 519.6C5600.37 550.8 5574.37 585.6 5551.97 624C5530.37 661.6 5511.97 700.4 5496.77 740.4C5486.37 741.2 5475.97 744 5465.57 748.8C5455.17 753.6 5447.97 756 5443.97 756ZM5996.06 741.6C5988.06 741.6 5981.26 740 5975.66 736.8C5970.06 733.6 5967.26 727.6 5967.26 718.8C5967.26 707.6 5970.06 694.8 5975.66 680.4C5981.26 666 5987.66 652 5994.86 638.4C6002.06 624 6008.46 612.4 6014.06 603.6C5986.06 633.2 5956.86 661.2 5926.46 687.6C5911.26 700.4 5894.46 712.4 5876.06 723.6C5857.66 734.8 5838.06 740.4 5817.26 740.4C5809.26 740.4 5803.66 738 5800.46 733.2C5797.26 727.6 5795.66 721.2 5795.66 714C5795.66 710 5796.06 707.2 5796.86 705.6C5800.86 674.4 5810.86 642 5826.86 608.4C5842.86 574.8 5862.46 543.2 5885.66 513.6C5908.86 484 5932.46 460 5956.46 441.6C5983.66 420.8 6013.66 410.4 6046.46 410.4H6184.46C6188.46 410.4 6190.46 412 6190.46 415.2C6190.46 421.6 6186.86 424.8 6179.66 424.8C6171.66 424.8 6163.66 430 6155.66 440.4C6147.66 450 6141.66 458 6137.66 464.4C6132.06 473.2 6123.26 488 6111.26 508.8C6099.26 529.6 6086.86 552.4 6074.06 577.2C6062.06 601.2 6051.66 623.6 6042.86 644.4C6034.06 665.2 6029.66 680.4 6029.66 690C6029.66 701.2 6035.26 706.8 6046.46 706.8C6058.46 706.8 6072.06 701.2 6087.26 690C6102.46 678.8 6117.66 665.2 6132.86 649.2C6148.86 632.4 6163.26 616 6176.06 600C6189.66 583.2 6200.46 570 6208.46 560.4C6213.26 565.2 6212.86 572 6207.26 580.8C6202.46 588.8 6198.06 595.2 6194.06 600C6178.06 620.8 6159.66 642.4 6138.86 664.8C6118.06 686.4 6095.26 704.8 6070.46 720C6046.46 734.4 6021.66 741.6 5996.06 741.6ZM5866.46 699.6C5876.06 699.6 5889.26 692.8 5906.06 679.2C5923.66 664.8 5942.46 647.2 5962.46 626.4C5982.46 604.8 6001.26 582.4 6018.86 559.2C6036.46 535.2 6050.86 513.6 6062.06 494.4C6074.06 474.4 6080.06 459.2 6080.06 448.8C6080.06 440 6077.26 434 6071.66 430.8C6066.86 427.6 6060.46 426 6052.46 426C6039.66 426 6025.66 430.8 6010.46 440.4C5996.06 449.2 5984.46 458 5975.66 466.8C5966.06 475.6 5954.46 489.6 5940.86 508.8C5928.06 527.2 5915.26 547.6 5902.46 570C5889.66 592.4 5878.86 614 5870.06 634.8C5861.26 655.6 5856.86 672.4 5856.86 685.2C5856.86 694.8 5860.06 699.6 5866.46 699.6Z" fill="black"/>
</svg>
