<svg width="13430" height="1026" viewBox="0 0 13430 1026" fill="none" xmlns="http://www.w3.org/2000/svg">
<path d="M45.2697 964.138C43.2576 964.138 39.7369 963.133 34.7068 961.121C29.6768 960.116 27.1619 958.103 27.1619 955.085C27.1619 954.08 27.6649 953.073 28.6709 952.068C29.6768 951.063 30.1798 950.559 30.1798 950.559C37.2217 948.546 40.2397 947.541 39.2338 947.541C39.2338 948.546 42.7548 948.045 49.7967 946.032C66.8987 939.997 81.4855 931.448 93.5574 920.382C106.635 908.312 117.701 894.228 126.755 878.135C174.037 799.677 219.307 720.213 262.564 639.741C305.821 558.265 349.08 477.292 392.337 396.821C404.409 375.697 415.977 354.07 427.044 331.941C438.111 309.813 449.175 287.682 460.242 265.553C465.273 253.482 470.301 241.412 475.332 229.341C481.367 217.271 487.907 205.703 494.948 194.638C502.997 180.556 515.57 168.485 532.673 158.427C550.781 147.362 567.884 139.315 583.979 134.285H547.763C527.642 134.285 499.979 135.794 464.769 138.812C430.566 140.824 394.35 144.847 356.121 150.882C317.893 156.918 283.69 165.971 253.51 178.041C224.336 190.112 204.217 206.206 193.151 226.324C183.091 244.429 178.061 262.032 178.061 279.132C178.061 299.25 182.588 312.83 191.642 319.871C200.696 326.911 205.223 331.437 205.223 333.45C205.223 335.463 203.714 337.473 200.696 339.485C197.678 341.498 195.163 342.503 193.151 342.503C187.115 342.503 179.57 336.468 170.516 324.397C161.462 312.327 152.911 299.25 144.863 285.168C137.821 270.079 133.294 260.021 131.282 254.991C128.264 243.926 126.755 232.862 126.755 221.797C126.755 194.638 135.809 174.018 153.917 159.935C173.031 144.847 196.169 134.285 223.33 128.25C250.492 122.215 277.654 118.694 304.816 117.688C332.983 115.676 356.121 114.671 374.229 114.671C424.53 114.671 474.827 113.665 525.128 111.653C575.429 108.635 625.225 107.127 674.518 107.127C721.801 107.127 768.075 110.647 813.345 117.688C859.62 123.724 901.37 136.297 938.591 155.409C975.812 174.521 1005.49 201.679 1027.62 236.885C1050.76 272.091 1062.33 318.362 1062.33 375.697C1062.33 428.002 1052.27 481.819 1032.15 537.141C1013.04 591.459 988.892 640.245 959.717 683.497C836.985 867.574 664.96 959.612 443.643 959.612C409.44 959.612 374.229 956.09 338.014 949.05C302.803 942.01 269.606 930.44 238.42 914.347C231.378 910.325 223.833 907.307 215.785 905.294C208.744 902.277 201.199 900.768 193.151 900.768C176.049 900.768 158.947 906.299 141.845 917.365C124.743 927.423 108.144 937.483 92.0484 947.541C75.9526 958.607 60.3596 964.138 45.2697 964.138ZM425.535 938.488C500.984 938.488 571.403 923.904 636.793 894.732C702.184 865.561 759.525 824.823 808.818 772.518C858.111 719.205 896.843 658.351 925.01 589.95C938.087 557.761 948.65 524.066 956.699 488.859C965.753 453.652 970.28 418.949 970.28 384.75C970.28 306.291 946.136 245.938 897.848 203.691C850.566 160.438 788.196 138.812 710.734 138.812C691.621 138.812 671.5 140.824 650.374 144.847C630.253 148.871 613.654 158.427 600.578 173.515C587.501 189.609 574.925 207.212 562.853 226.324C551.786 245.435 540.722 264.044 529.655 282.15C506.516 322.384 484.385 364.13 463.26 407.382C443.139 449.629 422.517 491.373 401.391 532.615C368.193 595.985 335.5 659.86 303.307 724.235C296.265 738.319 288.72 752.903 280.672 767.991C273.63 782.075 266.588 796.155 259.546 810.238C257.534 815.269 255.522 820.8 253.51 826.835C251.498 831.866 250.492 837.901 250.492 844.941C250.492 858.017 254.516 869.082 262.564 878.135C270.612 887.188 279.163 895.737 288.217 903.785C307.33 917.869 329.464 927.423 354.612 932.453C379.761 936.476 403.404 938.488 425.535 938.488ZM1035.13 956.594C1031.11 956.594 1031.11 952.572 1035.13 944.524C1040.16 935.471 1044.69 925.413 1048.71 914.347C1053.74 903.281 1058.77 891.211 1063.8 878.135C1073.86 853.994 1084.93 826.835 1097 796.659C1109.07 766.482 1120.64 737.311 1131.71 709.147C1142.77 679.976 1152.33 655.333 1160.38 635.215C1169.43 614.091 1175.47 600.512 1178.48 594.477C1164.4 609.565 1147.3 628.676 1127.18 651.812C1108.07 673.94 1089.96 695.568 1072.85 716.691C1055.75 737.815 1042.67 754.412 1033.62 766.482C1030.6 770.505 1028.09 772.518 1026.08 772.518C1024.07 772.518 1023.06 770.004 1023.06 764.974C1023.06 756.926 1025.58 749.381 1030.6 742.341C1049.72 718.2 1070.84 691.041 1093.98 660.865C1118.12 630.688 1139.75 603.026 1158.87 577.879C1177.98 551.726 1190.05 534.628 1195.08 526.579C1206.15 524.567 1222.24 521.549 1243.37 517.527C1265.5 513.504 1280.59 507.97 1288.64 500.929C1291.66 497.912 1294.68 496.403 1297.69 496.403C1299.71 496.403 1300.71 498.416 1300.71 502.438C1301.72 505.456 1300.71 508.978 1297.69 513C1291.66 519.035 1282.6 532.111 1270.53 552.229C1259.47 572.348 1246.89 595.481 1232.81 621.635C1218.73 647.789 1205.14 672.935 1192.06 697.077C1202.13 681.988 1215.2 664.386 1231.3 644.268C1248.4 623.144 1267.01 603.026 1287.13 583.915C1307.25 563.796 1327.37 547.199 1347.49 534.124C1368.62 521.048 1388.23 514.509 1406.34 514.509C1419.42 514.509 1430.49 517.527 1439.54 523.562C1448.59 528.592 1455.64 538.146 1460.66 552.229C1463.68 559.27 1465.19 567.318 1465.19 576.371C1465.19 593.472 1460.66 610.069 1451.61 626.162C1443.56 641.25 1437.53 652.817 1433.5 660.865C1432.5 663.882 1428.98 666.9 1422.94 669.918C1416.9 671.93 1414.39 670.923 1415.4 666.9C1416.4 661.87 1416.9 656.842 1416.9 651.812C1417.91 646.781 1418.41 641.25 1418.41 635.215C1418.41 618.114 1414.89 602.525 1407.85 588.441C1401.81 574.358 1390.25 567.318 1373.14 567.318C1357.05 567.318 1337.43 577.375 1314.29 597.494C1291.16 617.613 1268.02 640.746 1244.88 666.9C1215.71 701.099 1192.57 733.792 1175.47 764.974C1158.37 795.15 1144.28 824.823 1133.21 853.994C1127.18 870.087 1121.14 886.183 1115.11 902.277C1109.07 917.365 1104.54 929.435 1101.53 938.488C1088.45 939.493 1075.37 942.511 1062.29 947.541C1049.21 953.577 1040.16 956.594 1035.13 956.594ZM1491.54 944.524C1481.48 944.524 1470.92 941.002 1459.85 933.962C1449.79 925.914 1441.75 918.37 1435.71 911.329C1434.7 909.317 1438.73 905.294 1447.78 899.259C1456.84 892.219 1466.39 885.679 1476.45 879.644C1487.52 873.609 1493.55 871.095 1494.56 872.1C1502.61 876.123 1510.65 880.649 1518.7 885.679C1526.75 889.702 1535.3 891.211 1544.36 890.206H1550.39C1555.42 890.206 1557.94 891.715 1557.94 894.732C1557.94 897.75 1554.42 902.78 1547.37 909.821C1538.32 916.861 1528.76 924.405 1518.7 932.453C1509.65 940.501 1500.6 944.524 1491.54 944.524ZM2029.37 1009.4C2021.32 1009.4 2014.78 1007.89 2009.75 1004.88C2004.72 1002.86 2002.71 997.836 2003.71 989.788C2003.71 986.771 2005.22 982.244 2008.24 976.209C2011.26 970.174 2013.27 965.647 2014.28 962.629C2019.3 948.546 2023.83 934.466 2027.86 920.382C2031.88 905.294 2035.9 891.211 2039.93 878.135C2054.01 822.813 2067.09 767.991 2079.16 713.674C2091.24 658.351 2100.79 603.026 2107.83 547.703C2111.86 515.514 2116.89 472.262 2122.92 417.944C2128.96 362.622 2131.98 309.309 2131.98 258.009C2131.98 237.891 2131.47 219.283 2130.47 202.182C2129.46 184.077 2126.95 167.983 2122.92 153.9C2089.73 153.9 2056.53 153.9 2023.33 153.9C1990.13 152.894 1957.44 152.391 1925.25 152.391C1910.16 152.391 1889.03 153.397 1861.87 155.409C1835.71 157.42 1808.55 161.947 1780.38 168.988C1753.22 176.029 1730.59 187.597 1712.48 203.691C1694.37 219.785 1686.32 241.412 1688.34 268.571C1689.34 276.618 1692.36 287.682 1697.39 301.765C1702.42 314.84 1705.94 322.888 1707.95 325.906L1691.35 337.977C1685.32 326.911 1677.77 314.339 1668.72 300.256C1659.66 285.168 1651.62 270.583 1644.57 256.5C1637.53 242.418 1633.51 231.856 1632.5 224.815C1631.49 214.756 1632 201.679 1634.01 185.585C1636.02 169.491 1644.07 155.409 1658.16 143.338C1673.25 130.262 1693.87 121.712 1720.02 117.688C1747.19 113.665 1774.85 111.653 1803.02 111.653C1830.18 111.653 1856.33 112.659 1881.49 114.671C1906.63 116.682 1927.26 117.688 1943.35 117.688C1943.35 117.688 1954.92 117.688 1978.06 117.688C2001.2 117.688 2030.37 117.688 2065.58 117.688C2101.8 116.682 2140.02 116.179 2180.27 116.179C2220.5 116.179 2257.22 116.179 2290.42 116.179L2258.73 155.409H2153.1C2168.19 183.573 2177.75 222.803 2181.77 273.097C2186.8 323.392 2189.32 371.675 2189.32 417.944C2189.32 437.055 2189.32 455.161 2189.32 472.262C2189.32 489.363 2188.82 504.451 2187.81 517.527C2185.8 564.804 2179.26 621.635 2168.19 688.024C2157.13 754.412 2143.04 817.278 2125.94 876.626C2167.19 818.286 2217.49 748.88 2276.84 668.409C2337.2 587.937 2406.11 504.451 2483.57 417.944C2562.04 330.432 2648.55 247.447 2743.12 168.988C2762.23 152.894 2787.38 134.788 2818.57 114.671C2849.75 94.5529 2882.95 77.4531 2918.16 63.3707C2953.37 48.2824 2986.57 40.7383 3017.75 40.7383C3046.92 40.7383 3067.05 45.7675 3078.13 55.8265C3090.2 65.8853 3096.23 78.9619 3096.23 95.056C3096.23 114.168 3090.2 135.291 3078.13 158.427C3067.05 181.562 3058.51 200.674 3052.47 215.762C3051.45 218.779 3046.92 220.791 3038.89 221.797C3030.83 222.803 3027.3 221.294 3028.33 217.271C3030.32 209.223 3032.34 199.668 3034.36 188.603C3037.38 176.532 3038.89 164.462 3038.89 152.391C3038.89 136.297 3035.87 121.712 3029.84 108.635C3023.8 95.5587 3012.22 88.0146 2995.12 86.003C2992.1 84.9972 2989.08 84.4942 2986.07 84.4942C2983.05 84.4942 2980.03 84.4942 2977.01 84.4942C2947.84 84.4942 2916.15 94.5529 2881.95 114.671C2848.75 133.782 2810.01 160.941 2765.75 196.147C2681.25 263.541 2600.77 337.977 2524.31 419.453C2448.87 499.925 2376.43 584.419 2307.02 672.935C2270.8 718.2 2235.59 763.969 2201.39 810.238C2167.19 856.508 2135.5 904.79 2106.32 955.085C2104.31 959.108 2102.3 963.634 2100.29 968.665C2099.28 974.7 2097.77 979.226 2095.76 982.244C2093.75 984.257 2087.71 987.275 2077.65 991.297C2067.59 996.327 2057.53 1000.35 2047.47 1003.37C2038.42 1007.39 2032.38 1009.4 2029.37 1009.4ZM2679.87 939.997C2669.81 939.997 2661.26 937.984 2654.22 933.962C2647.17 929.939 2643.65 922.395 2643.65 911.329C2643.65 897.246 2647.17 881.153 2654.22 863.047C2661.26 844.941 2669.31 827.339 2678.36 810.238C2687.42 792.132 2695.46 777.548 2702.51 766.482C2667.29 803.699 2630.57 838.906 2592.35 872.1C2573.23 888.193 2552.11 903.281 2528.97 917.365C2505.83 931.448 2481.18 938.488 2455.03 938.488C2444.97 938.488 2437.93 935.471 2433.91 929.435C2429.88 922.395 2427.87 914.347 2427.87 905.294C2427.87 900.264 2428.37 896.745 2429.38 894.732C2434.41 855.503 2446.98 814.765 2467.1 772.518C2487.22 730.271 2511.87 690.537 2541.04 653.321C2570.22 616.104 2599.89 585.928 2630.07 562.791C2664.28 536.637 2702 523.562 2743.25 523.562H2916.78C2921.81 523.562 2924.33 525.575 2924.33 529.597C2924.33 537.645 2919.8 541.668 2910.75 541.668C2900.68 541.668 2890.62 548.207 2880.57 561.282C2870.5 573.353 2862.96 583.411 2857.93 591.459C2850.89 602.525 2839.82 621.131 2824.73 647.285C2809.64 673.439 2794.05 702.107 2777.95 733.288C2762.86 763.465 2749.78 791.628 2738.72 817.782C2727.65 843.936 2722.12 863.047 2722.12 875.118C2722.12 889.201 2729.16 896.241 2743.25 896.241C2758.34 896.241 2775.44 889.201 2794.55 875.118C2813.67 861.034 2832.78 843.936 2851.9 823.818C2872.01 802.694 2890.12 782.075 2906.22 761.956C2923.32 740.832 2936.9 724.235 2946.96 712.165C2953 718.2 2952.49 726.749 2945.45 737.815C2939.42 747.873 2933.88 755.921 2928.85 761.956C2908.73 788.11 2885.59 815.269 2859.44 843.432C2833.28 870.591 2804.61 893.728 2773.43 912.838C2743.25 930.944 2712.06 939.997 2679.87 939.997ZM2516.9 887.188C2528.97 887.188 2545.57 878.639 2566.7 861.538C2588.83 843.432 2612.47 821.304 2637.62 795.15C2662.77 767.991 2686.41 739.828 2708.54 710.656C2730.67 680.479 2748.78 653.321 2762.86 629.179C2777.95 604.033 2785.5 584.92 2785.5 571.844C2785.5 560.778 2781.98 553.234 2774.94 549.212C2768.9 545.189 2760.85 543.177 2750.79 543.177C2734.69 543.177 2717.09 549.212 2697.98 561.282C2679.87 572.348 2665.28 583.411 2654.22 594.477C2642.15 605.542 2627.56 623.144 2610.46 647.285C2594.36 670.422 2578.26 696.072 2562.17 724.235C2546.07 752.399 2532.49 779.558 2521.43 805.712C2510.36 831.866 2504.83 852.989 2504.83 869.082C2504.83 881.153 2508.85 887.188 2516.9 887.188ZM2927.26 958.103C2923.24 958.103 2923.24 953.576 2927.26 944.524C2932.29 935.471 2936.82 925.413 2940.84 914.347C2945.87 903.281 2950.9 891.211 2955.93 878.135C2965.99 853.994 2977.06 826.835 2989.13 796.659C3001.2 766.482 3012.77 737.311 3023.83 709.147C3034.91 679.976 3044.44 655.333 3052.5 635.215C3061.56 614.091 3067.59 600.512 3070.61 594.477C3056.52 609.565 3039.44 628.676 3019.31 651.812C3000.2 673.94 2982.09 695.568 2964.98 716.691C2947.88 737.815 2934.8 754.412 2925.75 766.482C2922.73 770.505 2920.22 772.518 2918.21 772.518C2916.2 772.518 2915.19 770.004 2915.19 764.974C2915.19 756.926 2917.71 749.381 2922.73 742.341C2941.85 718.2 2962.97 691.041 2986.11 660.865C3010.25 630.688 3031.89 603.026 3050.99 577.879C3070.1 551.726 3082.17 534.628 3087.21 526.579C3098.29 524.567 3114.37 521.549 3135.5 517.527C3157.62 513.504 3172.71 507.97 3180.77 500.929C3183.78 497.912 3186.8 496.403 3189.82 496.403C3191.84 496.403 3192.84 498.416 3192.84 502.438C3193.83 505.456 3192.84 508.978 3189.82 513C3183.79 520.04 3173.22 536.637 3158.13 562.791C3144.04 587.937 3128.47 616.104 3111.35 647.285C3095.27 678.467 3080.18 706.633 3066.08 731.779C3082.17 712.669 3097.77 694.563 3112.86 677.462C3128.95 660.361 3140.02 648.29 3146.06 641.25C3158.13 629.179 3174.73 614.091 3195.86 595.985C3216.98 577.879 3239.1 561.282 3262.25 546.194C3285.4 531.106 3305.5 522.557 3322.61 520.544C3326.63 519.539 3330.16 519.035 3333.17 519.035C3336.19 519.035 3339.21 519.035 3342.23 519.035C3361.33 519.035 3370.9 526.076 3370.9 540.159C3370.9 546.194 3369.39 553.234 3366.37 561.282C3363.35 569.33 3359.34 577.376 3354.3 585.424C3348.26 597.494 3338.21 616.605 3324.12 642.759C3310.03 667.905 3297.47 691.041 3286.4 712.165L3357.32 641.25C3369.39 629.179 3385.99 614.091 3407.12 595.985C3428.24 577.879 3450.36 561.282 3473.51 546.194C3496.66 531.106 3516.76 522.557 3533.87 520.544C3537.88 519.539 3541.42 519.035 3544.43 519.035C3548.45 519.035 3551.47 519.035 3553.49 519.035C3575.61 519.035 3586.69 527.083 3586.69 543.177C3586.69 555.247 3580.14 571.34 3567.07 591.459C3560.04 602.525 3548.96 621.131 3533.87 647.285C3518.78 673.439 3503.18 702.107 3487.09 733.288C3472 763.465 3458.93 791.628 3447.86 817.782C3436.78 843.936 3431.26 863.047 3431.26 875.118C3431.26 889.201 3438.29 896.241 3452.38 896.241C3465.45 896.241 3482.05 888.697 3502.18 873.609C3523.31 857.516 3544.43 838.402 3565.56 816.274C3587.68 794.145 3606.81 773.022 3622.9 752.903C3629.93 744.855 3636.48 736.81 3642.52 728.762C3649.55 719.709 3653.59 714.678 3654.59 713.674C3656.61 715.686 3657.61 719.205 3657.61 724.235C3657.61 731.276 3655.1 738.319 3650.06 745.359C3646.05 751.394 3642 756.926 3637.99 761.956C3618.89 787.102 3596.73 813.256 3571.6 840.415C3547.45 867.574 3520.8 890.71 3491.62 909.821C3462.43 927.927 3431.26 938.488 3398.06 941.506C3388.01 942.511 3377.93 940.501 3367.88 935.471C3357.83 930.44 3352.79 922.395 3352.79 911.329C3352.79 897.246 3356.32 880.649 3363.35 861.538C3371.41 842.428 3379.95 823.314 3389.01 804.203C3399.06 785.092 3406.6 769.5 3411.64 757.429C3429.75 722.223 3446.35 689.028 3461.44 657.847C3476.53 626.666 3487.09 604.534 3493.13 591.459C3496.15 585.424 3497.65 580.393 3497.65 576.371C3497.65 569.33 3492.13 568.827 3481.06 574.862C3469.98 580.897 3456.4 589.95 3440.31 602.021C3425.22 614.091 3411.13 626.162 3398.06 638.232C3384.99 649.298 3376.42 656.842 3372.41 660.865C3355.3 677.966 3334.68 701.099 3310.54 730.271C3287.39 759.442 3265.78 790.12 3245.65 822.309C3225.52 853.49 3211.46 882.662 3203.4 909.821C3193.35 918.874 3183.79 923.4 3174.73 923.4C3167.7 923.4 3161.66 920.886 3156.62 915.856C3152.61 910.826 3150.59 904.79 3150.59 897.75C3150.59 877.631 3156.62 853.994 3168.7 826.835C3181.76 798.672 3192.33 775.535 3200.38 757.429C3218.49 722.223 3235.09 689.028 3250.18 657.847C3265.27 626.666 3275.83 604.534 3281.87 591.459C3284.89 585.424 3286.4 580.393 3286.4 576.371C3286.4 569.33 3280.87 568.827 3269.8 574.862C3258.72 580.897 3245.14 589.95 3229.05 602.021C3213.96 614.091 3199.87 626.162 3186.8 638.232C3173.74 649.298 3165.16 656.842 3161.15 660.865C3137.01 686.011 3114.37 711.661 3093.25 737.815C3073.12 763.969 3056.03 792.132 3041.94 822.309C3033.88 840.415 3025.34 860.533 3016.29 882.662C3007.24 904.79 2999.69 923.4 2993.66 938.488C2980.58 939.493 2967.5 943.015 2954.42 949.05C2941.34 955.085 2932.29 958.103 2927.26 958.103ZM3717.54 959.612C3699.44 959.612 3680.33 957.098 3660.2 952.068C3640.1 947.037 3622 938.992 3605.88 927.927C3590.79 915.856 3580.74 899.763 3575.7 879.644C3574.7 876.627 3574.19 872.1 3574.19 866.065C3574.19 851.981 3577.21 836.392 3583.24 819.291C3590.31 802.19 3598.85 790.12 3608.9 783.079C3612.94 781.067 3615.96 781.067 3617.95 783.079C3620.97 785.092 3621.48 787.102 3619.46 789.115C3618.46 792.132 3616.96 796.155 3614.93 801.185C3612.94 805.208 3611.43 809.734 3610.41 814.765C3607.39 840.919 3612.94 864.052 3627.01 884.171C3633.04 892.219 3640.1 899.763 3648.13 906.803C3657.18 913.843 3665.76 919.878 3673.78 924.909C3680.85 928.931 3689.39 931.949 3699.44 933.962C3709.52 934.967 3719.57 935.471 3729.62 935.471C3745.73 935.471 3761.31 933.458 3776.39 929.435C3791.48 925.413 3802.56 918.874 3809.59 909.821C3822.69 893.728 3829.21 875.622 3829.21 855.503C3829.21 840.415 3825.2 824.322 3817.14 807.221C3809.11 790.12 3796.53 772.014 3779.41 752.903C3768.37 740.832 3757.8 727.757 3747.72 713.674C3737.67 699.59 3731.13 684.502 3728.11 668.409C3727.11 665.391 3726.12 662.374 3725.09 659.356C3725.09 656.338 3725.09 653.321 3725.09 650.303C3712.02 669.414 3698.44 687.52 3684.35 704.621C3671.28 720.714 3659.72 734.797 3649.64 746.868C3645.63 752.903 3642.1 755.921 3639.08 755.921C3637.09 755.921 3636.06 753.908 3636.06 749.885C3636.06 740.832 3640.1 731.276 3648.13 721.218C3656.19 712.165 3665.24 701.099 3675.29 688.024C3685.37 673.94 3693.4 662.878 3699.44 654.829C3716.55 629.683 3729.13 610.069 3737.16 595.985C3746.22 580.897 3755.78 567.318 3765.83 555.247C3776.91 542.172 3790.49 531.61 3806.57 523.562C3823.69 515.514 3841.28 511.491 3859.39 511.491C3880.52 511.491 3899.65 515.013 3916.73 522.053C3934.84 528.088 3944.41 544.181 3945.4 570.335C3945.4 582.406 3942.9 594.98 3937.86 608.056C3933.84 620.127 3929.32 631.693 3924.28 642.759C3921.26 648.794 3916.73 653.321 3910.7 656.338C3905.69 658.351 3903.15 657.343 3903.15 653.321C3903.15 649.298 3903.66 644.772 3904.66 639.741C3905.69 634.711 3906.17 630.184 3906.17 626.162C3906.17 609.061 3903.15 593.973 3897.11 580.897C3892.1 566.814 3884.56 556.756 3874.48 550.721C3864.43 543.68 3853.87 540.159 3842.79 540.159C3826.7 540.159 3811.1 546.698 3796.01 559.774C3780.92 571.844 3773.38 587.937 3773.38 608.056C3773.38 610.069 3773.38 612.582 3773.38 615.6C3773.38 618.618 3773.89 621.131 3774.89 623.144C3778.93 639.237 3791 657.343 3811.1 677.462C3831.23 697.58 3846.83 715.182 3857.88 730.271C3877.01 756.425 3886.55 783.079 3886.55 810.238C3886.55 837.397 3878.52 862.543 3862.41 885.679C3847.32 907.808 3826.7 925.413 3800.54 938.488C3775.4 952.572 3747.72 959.612 3717.54 959.612ZM4291.62 359.1C4277.53 359.1 4267.48 354.574 4261.44 345.521C4257.4 340.49 4255.41 333.954 4255.41 325.906C4255.41 309.813 4262.95 296.735 4278.04 286.677C4289.09 280.641 4299.17 277.624 4308.22 277.624C4323.31 277.624 4333.88 282.15 4339.91 291.203C4343.93 296.233 4345.95 302.77 4345.95 310.818C4345.95 326.911 4337.89 339.989 4321.8 350.047C4312.75 356.082 4302.67 359.1 4291.62 359.1ZM4029.06 939.997C4018.98 939.997 4010.44 937.984 4003.41 933.962C3997.37 929.939 3994.35 922.395 3994.35 911.329C3994.35 897.246 3997.85 880.649 4004.92 861.538C4012.94 842.428 4021.52 823.314 4030.57 804.203C4040.62 785.092 4048.16 769.5 4053.2 757.429C4060.24 743.346 4068.78 725.24 4078.86 703.112C4089.9 679.975 4099.98 658.351 4109.04 638.232C4119.09 617.109 4126.12 602.525 4130.16 594.477C4116.07 609.565 4098.96 628.676 4078.86 651.812C4059.72 673.94 4041.62 695.568 4024.53 716.691C4007.42 737.815 3994.35 754.412 3985.3 766.482C3982.28 770.505 3979.75 772.518 3977.75 772.518C3975.73 772.518 3974.74 770.004 3974.74 764.974C3974.74 756.926 3977.24 749.381 3982.28 742.341C4001.39 718.2 4022.51 691.041 4045.66 660.865C4069.8 630.688 4091.41 603.026 4110.55 577.879C4129.65 551.726 4141.72 534.628 4146.76 526.579C4157.81 524.567 4173.92 521.549 4195.05 517.527C4217.17 513.504 4232.26 507.97 4240.32 500.929C4243.34 497.912 4246.35 496.403 4249.37 496.403C4251.36 496.403 4252.39 498.416 4252.39 502.438C4253.39 505.456 4252.39 508.978 4249.37 513C4243.34 520.04 4232.77 537.141 4217.68 564.3C4202.59 591.459 4186.48 621.635 4169.4 654.829C4153.28 687.019 4138.19 716.187 4124.13 742.341C4110.03 769.5 4097.96 795.654 4087.91 820.8C4077.83 845.946 4072.82 864.052 4072.82 875.118C4072.82 889.201 4079.85 896.241 4093.95 896.241C4107.01 896.241 4123.61 888.193 4143.74 872.1C4164.87 856.007 4185.99 836.893 4207.12 814.765C4228.25 791.628 4246.84 770.505 4262.95 751.394C4267.96 745.359 4274 738.319 4281.06 730.271C4289.09 721.218 4294.13 715.686 4296.15 713.674C4298.14 715.686 4299.17 719.205 4299.17 724.235C4298.14 731.276 4295.64 738.319 4291.62 745.359C4287.58 751.394 4283.57 756.926 4279.55 761.956C4258.43 788.11 4235.28 815.269 4210.14 843.432C4184.97 870.591 4157.32 893.728 4127.14 912.838C4096.96 930.944 4064.25 939.997 4029.06 939.997ZM4480.73 967.156C4476.72 967.156 4473.7 966.151 4471.68 964.138C4468.66 962.126 4468.15 960.617 4470.17 959.612C4493.32 941.506 4512.42 923.4 4527.51 905.294C4543.6 887.188 4559.71 864.052 4575.8 835.888L4596.92 799.677C4617.05 765.478 4639.69 726.248 4664.83 681.988C4689.97 637.728 4715.14 592.968 4740.28 547.703C4766.44 502.438 4790.07 460.695 4811.2 422.471C4833.32 384.246 4850.95 353.569 4864.01 330.432C4877.08 306.291 4883.63 294.221 4883.63 294.221C4910.79 246.944 4940.46 211.235 4972.66 187.094C5005.86 161.947 5035.04 145.853 5060.18 138.812C4986.76 139.818 4921.36 145.35 4864.01 155.409C4806.67 165.468 4767.95 189.106 4747.82 226.324C4743.81 233.365 4740.79 241.412 4738.77 250.465C4737.77 258.512 4737.26 266.559 4737.26 274.606C4737.26 300.759 4744.29 319.367 4758.38 330.432C4759.38 331.437 4759.89 332.445 4759.89 333.45C4759.89 335.463 4757.87 337.473 4753.86 339.485C4750.84 341.498 4747.82 341.999 4744.8 340.994C4735.75 335.964 4724.67 323.893 4711.61 304.782C4698.54 284.665 4690.48 268.068 4687.46 254.991C4684.44 242.921 4682.94 231.856 4682.94 221.797C4682.94 194.638 4692.5 173.515 4711.61 158.427C4730.71 143.338 4753.86 132.777 4781.02 126.741C4809.18 120.706 4837.85 117.185 4867.03 116.179C4896.22 115.173 4920.36 114.671 4939.46 114.671H4999.82C5019.95 114.671 5041.56 114.671 5064.71 114.671C5088.85 113.665 5108.98 111.653 5125.07 108.635H5131.11C5137.14 108.635 5141.67 110.647 5144.69 114.671C5147.7 118.694 5149.21 122.718 5149.21 126.741C5149.21 134.788 5145.68 138.812 5138.65 138.812C5134.64 138.812 5131.1 138.812 5128.09 138.812C5126.06 137.806 5123.05 137.303 5119.03 137.303C5072.77 137.303 5026.47 177.538 4980.21 258.009C4980.21 258.009 4974.68 267.062 4963.61 285.168C4953.56 302.269 4940.46 324.397 4924.37 351.556C4909.28 378.715 4893.2 407.382 4876.09 437.559C4858.97 467.735 4843.88 494.894 4830.82 519.035C4803.65 569.33 4774.47 624.149 4743.29 683.497C4713.12 741.837 4681.94 802.694 4649.74 866.065C4642.71 878.135 4636.67 892.219 4631.63 908.312C4626.59 923.4 4619.04 930.944 4608.99 930.944C4604.98 930.944 4599.94 930.44 4593.91 929.435C4587.87 928.43 4581.32 927.927 4574.29 927.927C4557.18 927.927 4541.6 930.944 4527.51 936.979C4514.44 943.015 4500.86 952.572 4486.77 965.647C4485.77 966.652 4483.75 967.156 4480.73 967.156ZM5138.65 952.068C5113.51 952.068 5087.86 944.02 5061.69 927.927C5035.53 910.826 5008.88 884.675 4981.71 849.468C4949.51 806.216 4922.35 764.47 4900.23 724.235C4878.11 682.993 4860 647.285 4845.91 617.109C4832.84 586.932 4822.76 565.305 4815.73 552.229C4872.07 499.925 4929.9 453.151 4989.26 411.909C5049.62 370.667 5109.47 331.437 5168.83 294.221C5209.06 270.079 5252.34 243.424 5298.6 214.253C5344.87 184.077 5391.65 158.93 5438.94 138.812C5472.14 124.729 5504.34 117.688 5535.51 117.688C5549.61 117.688 5563.67 119.197 5577.77 122.215C5591.86 124.227 5605.44 127.747 5618.51 132.777C5628.56 135.794 5640.15 142.332 5653.21 152.391C5666.28 161.444 5671.84 172.006 5669.81 184.077C5669.81 188.1 5667.79 190.112 5663.78 190.112C5658.74 190.112 5654.21 187.094 5650.2 181.059C5646.18 175.024 5640.15 168.988 5632.09 162.953C5624.03 156.918 5611.48 153.9 5594.36 153.9C5572.24 153.9 5547.59 158.427 5520.42 167.479C5494.26 176.532 5471.14 185.082 5451.01 193.129C5410.78 210.23 5368.53 228.838 5324.26 248.956C5279.98 269.074 5238.24 290.197 5199.01 312.327C5163.79 331.437 5126.58 353.569 5087.34 378.715C5048.11 403.861 5009.87 429.511 4972.66 455.665C4936.45 480.811 4903.76 503.947 4874.58 525.071C4880.61 540.159 4890.66 562.791 4904.76 592.968C4918.85 623.144 4937.44 657.343 4960.59 695.568C4983.74 732.784 5010.9 770.505 5042.07 808.729C5065.22 836.893 5087.86 857.516 5109.98 870.591C5133.13 882.662 5154.74 888.697 5174.87 888.697C5202.03 888.697 5227.17 881.153 5250.32 866.065C5274.46 849.972 5297.09 829.853 5318.22 805.712C5340.34 781.571 5360.98 756.926 5380.09 731.779C5385.13 725.744 5388.63 722.727 5390.65 722.727C5394.66 722.727 5396.69 725.24 5396.69 730.271C5396.69 736.306 5394.18 742.341 5389.14 748.377C5344.87 809.734 5302.13 859.025 5260.88 896.241C5220.65 933.458 5179.91 952.068 5138.65 952.068ZM5376.41 956.594C5372.39 956.594 5372.39 952.572 5376.41 944.524C5381.45 935.471 5385.97 925.413 5389.99 914.347C5395.03 903.281 5400.07 891.211 5405.08 878.135C5415.16 853.994 5426.2 826.835 5438.27 796.659C5450.35 766.482 5461.94 737.311 5472.98 709.147C5484.06 679.976 5493.62 655.333 5501.65 635.215C5510.71 614.091 5516.74 600.512 5519.76 594.477C5505.7 609.565 5488.58 628.676 5468.45 651.812C5449.35 673.94 5431.24 695.568 5414.13 716.691C5397.05 737.815 5383.95 754.412 5374.9 766.482C5371.88 770.505 5369.37 772.518 5367.35 772.518C5365.36 772.518 5364.33 770.004 5364.33 764.974C5364.33 756.926 5366.87 749.381 5371.88 742.341C5391.01 718.2 5412.14 691.041 5435.26 660.865C5459.4 630.688 5481.04 603.026 5500.14 577.879C5519.28 551.726 5531.35 534.628 5536.36 526.579C5547.43 524.567 5563.52 521.549 5584.65 517.527C5606.8 513.504 5621.89 507.97 5629.92 500.929C5632.93 497.912 5635.95 496.403 5638.97 496.403C5640.99 496.403 5641.99 498.416 5641.99 502.438C5643.01 505.456 5641.99 508.978 5638.97 513C5632.93 519.035 5623.88 532.111 5611.81 552.229C5600.76 572.348 5588.18 595.481 5574.08 621.635C5560.02 647.789 5546.44 672.935 5533.34 697.077C5543.42 681.988 5556.49 664.386 5572.57 644.268C5589.69 623.144 5608.31 603.026 5628.41 583.915C5648.54 563.796 5668.67 547.199 5688.77 534.124C5709.89 521.048 5729.51 514.509 5747.62 514.509C5760.72 514.509 5771.76 517.527 5780.82 523.562C5789.87 528.592 5796.93 538.146 5801.94 552.229C5804.96 559.27 5806.47 567.318 5806.47 576.371C5806.47 593.472 5801.94 610.069 5792.89 626.162C5784.86 641.25 5778.82 652.817 5774.78 660.865C5773.78 663.882 5770.25 666.9 5764.22 669.918C5758.18 671.93 5755.68 670.923 5756.67 666.9C5757.7 661.87 5758.18 656.842 5758.18 651.812C5759.21 646.781 5759.69 641.25 5759.69 635.215C5759.69 618.114 5756.19 602.525 5749.13 588.441C5743.09 574.358 5731.53 567.318 5714.42 567.318C5698.33 567.318 5678.72 577.375 5655.57 597.494C5632.45 617.613 5609.3 640.746 5586.16 666.9C5557 701.099 5533.85 733.792 5516.74 764.974C5499.66 795.15 5485.57 824.823 5474.49 853.994C5468.45 870.087 5462.42 886.183 5456.38 902.277C5450.35 917.365 5445.82 929.435 5442.8 938.488C5429.73 939.493 5416.67 942.511 5403.57 947.541C5390.5 953.577 5381.45 956.594 5376.41 956.594ZM6092.39 359.1C6078.3 359.1 6068.25 354.574 6062.21 345.521C6058.17 340.49 6056.18 333.954 6056.18 325.906C6056.18 309.813 6063.72 296.735 6078.81 286.677C6089.86 280.641 6099.94 277.624 6108.99 277.624C6124.08 277.624 6134.64 282.15 6140.68 291.203C6144.69 296.233 6146.71 302.77 6146.71 310.818C6146.71 326.911 6138.66 339.989 6122.57 350.047C6113.52 356.082 6103.44 359.1 6092.39 359.1ZM5829.83 939.997C5819.75 939.997 5811.21 937.984 5804.17 933.962C5798.14 929.939 5795.12 922.395 5795.12 911.329C5795.12 897.246 5798.62 880.649 5805.68 861.538C5813.71 842.428 5822.28 823.314 5831.34 804.203C5841.39 785.092 5848.93 769.5 5853.97 757.429C5861 743.346 5869.54 725.24 5879.62 703.112C5890.67 679.975 5900.75 658.351 5909.8 638.232C5919.85 617.109 5926.89 602.525 5930.93 594.477C5916.84 609.565 5899.72 628.676 5879.62 651.812C5860.49 673.94 5842.38 695.568 5825.3 716.691C5808.19 737.815 5795.12 754.412 5786.07 766.482C5783.05 770.505 5780.51 772.518 5778.52 772.518C5776.5 772.518 5775.5 770.004 5775.5 764.974C5775.5 756.926 5778.01 749.381 5783.05 742.341C5802.15 718.2 5823.28 691.041 5846.43 660.865C5870.57 630.688 5892.18 603.026 5911.31 577.879C5930.42 551.726 5942.49 534.628 5947.53 526.579C5958.57 524.567 5974.69 521.549 5995.82 517.527C6017.94 513.504 6033.03 507.97 6041.09 500.929C6044.1 497.912 6047.12 496.403 6050.14 496.403C6052.13 496.403 6053.16 498.416 6053.16 502.438C6054.15 505.456 6053.16 508.978 6050.14 513C6044.1 520.04 6033.54 537.141 6018.45 564.3C6003.36 591.459 5987.24 621.635 5970.16 654.829C5954.05 687.019 5938.96 716.187 5924.89 742.341C5910.8 769.5 5898.73 795.654 5888.68 820.8C5878.6 845.946 5873.59 864.052 5873.59 875.118C5873.59 889.201 5880.62 896.241 5894.71 896.241C5907.78 896.241 5924.38 888.193 5944.51 872.1C5965.64 856.007 5986.76 836.893 6007.89 814.765C6029.01 791.628 6047.6 770.505 6063.72 751.394C6068.73 745.359 6074.77 738.319 6081.83 730.271C6089.86 721.218 6094.9 715.686 6096.92 713.674C6098.91 715.686 6099.94 719.205 6099.94 724.235C6098.91 731.276 6096.4 738.319 6092.39 745.359C6088.35 751.394 6084.33 756.926 6080.32 761.956C6059.19 788.11 6036.05 815.269 6010.91 843.432C5985.74 870.591 5958.09 893.728 5927.91 912.838C5897.73 930.944 5865.02 939.997 5829.83 939.997ZM6159.36 959.612C6141.25 959.612 6122.12 957.098 6102.02 952.068C6081.89 947.037 6063.78 938.992 6047.7 927.927C6032.61 915.856 6022.53 899.763 6017.52 879.644C6016.49 876.627 6016.01 872.1 6016.01 866.065C6016.01 851.981 6019.02 836.392 6025.06 819.291C6032.09 802.19 6040.63 790.12 6050.71 783.079C6054.73 781.067 6057.74 781.067 6059.77 783.079C6062.78 785.092 6063.27 787.102 6061.28 789.115C6060.25 792.132 6058.74 796.155 6056.75 801.185C6054.73 805.208 6053.22 809.734 6052.22 814.765C6049.2 840.919 6054.73 864.052 6068.82 884.171C6074.86 892.219 6081.89 899.763 6089.95 906.803C6099 913.843 6107.54 919.878 6115.6 924.909C6122.63 928.931 6131.17 931.949 6141.25 933.962C6151.3 934.967 6161.35 935.471 6171.43 935.471C6187.52 935.471 6203.12 933.458 6218.21 929.435C6233.3 925.413 6244.35 918.874 6251.41 909.821C6264.48 893.728 6271.03 875.622 6271.03 855.503C6271.03 840.415 6266.98 824.322 6258.95 807.221C6250.9 790.12 6238.31 772.014 6221.23 752.903C6210.15 740.832 6199.59 727.757 6189.54 713.674C6179.46 699.59 6172.94 684.502 6169.92 668.409C6168.9 665.391 6167.9 662.374 6166.91 659.356C6166.91 656.338 6166.91 653.321 6166.91 650.303C6153.81 669.414 6140.23 687.52 6126.16 704.621C6113.06 720.714 6101.51 734.797 6091.46 746.868C6087.41 752.903 6083.91 755.921 6080.89 755.921C6078.87 755.921 6077.87 753.908 6077.87 749.885C6077.87 740.832 6081.89 731.276 6089.95 721.218C6097.97 712.165 6107.03 701.099 6117.11 688.024C6127.16 673.94 6135.22 662.878 6141.25 654.829C6158.33 629.683 6170.92 610.069 6178.98 595.985C6188.03 580.897 6197.57 567.318 6207.65 555.247C6218.69 542.172 6232.27 531.61 6248.39 523.562C6265.47 515.514 6283.1 511.491 6301.2 511.491C6322.33 511.491 6341.43 515.013 6358.55 522.053C6376.65 528.088 6386.19 544.181 6387.22 570.335C6387.22 582.406 6384.68 594.98 6379.67 608.056C6375.63 620.127 6371.1 631.693 6366.09 642.759C6363.07 648.794 6358.55 653.321 6352.51 656.338C6347.47 658.351 6344.97 657.343 6344.97 653.321C6344.97 649.298 6345.45 644.772 6346.47 639.741C6347.47 634.711 6347.98 630.184 6347.98 626.162C6347.98 609.061 6344.97 593.973 6338.93 580.897C6333.89 566.814 6326.34 556.756 6316.29 550.721C6306.21 543.68 6295.65 540.159 6284.61 540.159C6268.49 540.159 6252.92 546.698 6237.83 559.774C6222.74 571.844 6215.19 587.937 6215.19 608.056C6215.19 610.069 6215.19 612.582 6215.19 615.6C6215.19 618.618 6215.68 621.131 6216.7 623.144C6220.72 639.237 6232.79 657.343 6252.92 677.462C6273.02 697.58 6288.62 715.182 6299.7 730.271C6318.8 756.425 6328.37 783.079 6328.37 810.238C6328.37 837.397 6320.31 862.543 6304.22 885.679C6289.13 907.808 6268.49 925.413 6242.35 938.488C6217.18 952.572 6189.54 959.612 6159.36 959.612ZM6642.87 944.524C6627.78 944.524 6614.2 941.506 6602.13 935.471C6591.05 929.435 6585.53 918.37 6585.53 902.277C6585.53 893.224 6587.52 883.166 6591.56 872.1C6600.62 848.964 6612.69 820.8 6627.78 787.606C6643.87 754.412 6659.95 722.223 6676.07 691.041C6692.15 658.852 6704.74 632.701 6713.79 612.582C6719.83 600.512 6722.85 591.963 6722.85 586.932C6722.85 577.879 6717.81 575.867 6707.76 580.897C6697.68 585.928 6686.63 592.968 6674.56 602.021C6662.49 611.074 6653.43 618.114 6647.4 623.144C6621.23 647.285 6593.56 675.953 6564.4 709.147C6536.21 741.336 6510.08 775.535 6485.94 811.747C6462.79 846.954 6444.68 882.158 6431.61 917.365C6430.59 923.4 6424.07 928.43 6412 932.453C6399.92 936.476 6388.85 938.488 6378.8 938.488C6362.68 938.488 6356.65 933.458 6360.69 923.4C6383.81 871.095 6407.47 813.256 6431.61 749.885C6456.75 686.515 6484.91 621.635 6516.12 555.247C6539.23 504.952 6564.89 453.151 6593.07 399.838C6622.23 346.526 6654.43 295.729 6689.65 247.447C6724.84 198.159 6763.59 154.906 6805.84 117.688C6843.05 85.5 6883.8 59.3472 6928.07 39.2295C6973.34 18.1059 7022.11 7.54419 7074.44 7.54419C7097.56 7.54419 7117.69 12.5736 7134.8 22.6324C7151.88 31.6854 7161.45 48.2824 7163.47 72.4236V86.003C7163.47 100.085 7161.96 114.168 7158.94 128.25C7157.92 132.273 7153.9 134.285 7146.87 134.285C7143.85 134.285 7142.83 133.782 7143.85 132.777C7147.87 106.624 7140.84 88.0149 7122.73 76.9501C7105.62 65.8853 7083.49 60.353 7056.33 60.353C7007.02 60.353 6961.75 69.406 6920.52 87.5118C6879.27 105.618 6841.03 129.759 6805.84 159.935C6751.52 207.212 6704.23 267.565 6664 340.994C6623.74 414.423 6589.03 489.363 6559.88 565.809C6545.78 603.026 6531.69 640.245 6517.62 677.462C6504.53 714.678 6491.97 749.381 6479.9 781.571C6525.17 721.218 6568.42 669.414 6609.67 626.162C6651.92 582.91 6688.62 552.229 6719.83 534.124C6744.97 520.04 6767.6 513 6787.73 513C6806.84 513 6816.4 521.048 6816.4 537.141C6816.4 551.225 6809.34 569.33 6795.28 591.459C6788.22 602.525 6777.17 621.131 6762.08 647.285C6747.99 673.439 6732.9 702.107 6716.81 733.288C6701.72 763.465 6688.62 791.628 6677.58 817.782C6666.5 843.936 6660.98 863.047 6660.98 875.118C6660.98 891.211 6668.01 899.259 6682.1 899.259C6690.13 899.259 6699.19 896.745 6709.27 891.715C6720.31 886.684 6728.37 882.158 6733.41 878.135C6760.57 858.017 6787.22 833.375 6813.39 804.203C6839.52 775.031 6861.67 749.381 6879.78 727.253C6880.78 726.248 6881.29 727.757 6881.29 731.779C6881.29 735.802 6880.26 741.837 6878.27 749.885C6877.25 756.926 6874.23 762.961 6869.22 767.991C6858.14 783.079 6846.58 797.664 6834.51 811.747C6823.44 824.823 6812.36 837.901 6801.31 850.977C6782.18 873.105 6759.06 894.228 6731.9 914.347C6705.73 934.466 6676.07 944.524 6642.87 944.524ZM6872.15 958.103C6868.13 958.103 6868.13 953.576 6872.15 944.524C6877.19 935.471 6881.71 925.413 6885.73 914.347C6890.77 903.281 6895.78 891.211 6900.82 878.135C6910.87 853.994 6921.94 826.835 6934.01 796.659C6946.09 766.482 6957.65 737.311 6968.72 709.147C6979.8 679.976 6989.33 655.333 6997.39 635.215C7006.45 614.091 7012.48 600.512 7015.5 594.477C7001.41 609.565 6984.32 628.676 6964.19 651.812C6945.09 673.94 6926.98 695.568 6909.87 716.691C6892.76 737.815 6879.69 754.412 6870.64 766.482C6867.62 770.505 6865.11 772.518 6863.09 772.518C6861.07 772.518 6860.07 770.004 6860.07 764.974C6860.07 756.926 6862.58 749.381 6867.62 742.341C6886.72 718.2 6907.85 691.041 6931 660.865C6955.14 630.688 6976.78 603.026 6995.88 577.879C7014.99 551.726 7027.06 534.628 7032.1 526.579C7043.17 524.567 7059.26 521.549 7080.39 517.527C7102.51 513.504 7117.6 507.97 7125.66 500.929C7128.67 497.912 7131.69 496.403 7134.71 496.403C7136.73 496.403 7137.73 498.416 7137.73 502.438C7138.72 505.456 7137.73 508.978 7134.71 513C7128.67 520.04 7118.11 536.637 7103.02 562.791C7088.93 587.937 7073.35 616.104 7056.24 647.285C7040.16 678.467 7025.07 706.633 7010.97 731.779C7023.04 715.686 7036.11 700.094 7050.21 685.006C7064.3 669.918 7077.88 655.333 7090.95 641.25C7103.02 629.179 7119.62 614.091 7140.75 595.985C7161.87 577.879 7183.99 561.282 7207.14 546.194C7230.29 531.106 7250.39 522.557 7267.5 520.544C7271.52 519.539 7275.05 519.035 7278.06 519.035C7282.08 519.035 7285.1 519.035 7287.12 519.035C7309.24 519.035 7320.32 527.083 7320.32 543.177C7320.32 555.247 7313.77 571.34 7300.7 591.459C7293.67 602.525 7282.59 621.131 7267.5 647.285C7253.41 672.431 7238.83 700.094 7223.74 730.271C7209.65 759.442 7197.09 787.102 7186.02 813.256C7175.97 838.402 7170.93 857.012 7170.93 869.082C7170.93 883.166 7177.96 890.206 7192.05 890.206C7209.16 890.206 7227.75 881.657 7247.88 864.556C7269.01 847.455 7291.64 825.83 7315.79 799.677C7339.93 772.518 7364.08 743.85 7388.22 713.674C7390.24 715.686 7391.24 719.205 7391.24 724.235C7391.24 731.276 7388.73 738.319 7383.69 745.359C7379.68 751.394 7375.64 756.926 7371.62 761.956C7361.57 775.031 7347.99 791.628 7330.88 811.747C7314.79 830.858 7298.19 849.972 7281.08 869.082C7263.97 887.188 7248.4 901.773 7234.3 912.838C7224.25 919.878 7211.16 927.423 7195.07 935.471C7178.98 943.519 7162.87 947.541 7146.78 947.541C7128.67 947.541 7116.09 943.015 7109.06 933.962C7102.03 923.904 7098.49 911.833 7098.49 897.75C7098.49 881.657 7101.51 864.556 7107.55 846.45C7113.58 828.344 7120.13 811.243 7127.16 795.15C7135.22 778.049 7141.26 765.478 7145.27 757.429C7163.38 722.223 7179.98 689.028 7195.07 657.847C7210.16 626.666 7220.72 604.534 7226.76 591.459C7229.78 585.424 7231.29 580.393 7231.29 576.371C7231.29 569.33 7225.76 568.827 7214.69 574.862C7203.61 580.897 7190.03 589.95 7173.94 602.021C7158.85 614.091 7144.76 626.162 7131.69 638.232C7118.62 649.298 7110.05 656.842 7106.04 660.865C7068.83 700.094 7036.11 743.85 7007.95 792.132C6980.79 839.41 6957.65 888.193 6938.54 938.488C6925.47 939.493 6912.38 943.015 6899.31 949.05C6886.24 955.085 6877.19 958.103 6872.15 958.103ZM7566.4 939.997C7556.35 939.997 7547.78 937.984 7540.75 933.962C7533.72 929.939 7530.19 922.395 7530.19 911.329C7530.19 897.246 7533.72 881.153 7540.75 863.047C7547.78 844.941 7555.84 827.339 7564.89 810.238C7573.95 792.132 7582 777.548 7589.04 766.482C7553.82 803.699 7517.12 838.906 7478.88 872.1C7459.78 888.193 7438.65 903.281 7415.5 917.365C7392.35 931.448 7367.73 938.488 7341.56 938.488C7331.51 938.488 7324.45 935.471 7320.44 929.435C7316.42 922.395 7314.4 914.347 7314.4 905.294C7314.4 900.264 7314.91 896.745 7315.91 894.732C7320.95 855.503 7333.5 814.765 7353.63 772.518C7373.76 730.271 7398.39 690.537 7427.57 653.321C7456.76 616.104 7486.43 585.928 7516.6 562.791C7550.8 536.637 7588.52 523.562 7629.78 523.562H7803.31C7808.35 523.562 7810.86 525.575 7810.86 529.597C7810.86 537.645 7806.33 541.668 7797.28 541.668C7787.23 541.668 7777.15 548.207 7767.1 561.282C7757.05 573.353 7749.5 583.411 7744.46 591.459C7737.43 602.525 7726.35 621.131 7711.26 647.285C7696.17 673.439 7680.57 702.107 7664.49 733.288C7649.4 763.465 7636.33 791.628 7625.25 817.782C7614.18 843.936 7608.65 863.047 7608.65 875.118C7608.65 889.201 7615.69 896.241 7629.78 896.241C7644.87 896.241 7661.98 889.201 7681.08 875.118C7700.19 861.034 7719.32 843.936 7738.43 823.818C7758.56 802.694 7776.66 782.075 7792.75 761.956C7809.86 740.832 7823.44 724.235 7833.49 712.165C7839.53 718.2 7839.01 726.749 7831.98 737.815C7825.95 747.873 7820.42 755.921 7815.38 761.956C7795.25 788.11 7772.14 815.269 7745.97 843.432C7719.81 870.591 7691.13 893.728 7659.96 912.838C7629.78 930.944 7598.6 939.997 7566.4 939.997ZM7403.43 887.188C7415.5 887.188 7432.1 878.639 7453.23 861.538C7475.35 843.432 7499.01 821.304 7524.15 795.15C7549.29 767.991 7572.95 739.828 7595.07 710.656C7617.19 680.479 7635.3 653.321 7649.4 629.179C7664.49 604.033 7672.03 584.92 7672.03 571.844C7672.03 560.778 7668.5 553.234 7661.47 549.212C7655.43 545.189 7647.37 543.177 7637.32 543.177C7621.24 543.177 7603.61 549.212 7584.51 561.282C7566.4 572.348 7551.82 583.411 7540.75 594.477C7528.68 605.542 7514.1 623.144 7496.99 647.285C7480.9 670.422 7464.79 696.072 7448.7 724.235C7432.61 752.399 7419.03 779.558 7407.96 805.712C7396.88 831.866 7391.36 852.989 7391.36 869.082C7391.36 881.153 7395.37 887.188 7403.43 887.188ZM8009.95 939.997C7999.9 939.997 7991.36 937.984 7984.3 933.962C7977.27 929.939 7973.74 922.395 7973.74 911.329C7973.74 897.246 7977.27 881.153 7984.3 863.047C7991.36 844.941 7999.39 827.339 8008.44 810.238C8017.5 792.132 8025.56 777.548 8032.59 766.482C7997.4 803.699 7960.67 838.906 7922.43 872.1C7903.33 888.193 7882.2 903.281 7859.05 917.365C7835.94 931.448 7811.28 938.488 7785.11 938.488C7775.06 938.488 7768.03 935.471 7763.99 929.435C7759.97 922.395 7757.95 914.347 7757.95 905.294C7757.95 900.264 7758.47 896.745 7759.46 894.732C7764.5 855.503 7777.09 814.765 7797.19 772.518C7817.32 730.271 7841.97 690.537 7871.13 653.321C7900.31 616.104 7929.98 585.928 7960.16 562.791C7994.38 536.637 8032.11 523.562 8073.33 523.562H8246.86C8251.9 523.562 8254.41 525.575 8254.41 529.597C8254.41 537.645 8249.88 541.668 8240.83 541.668C8230.78 541.668 8220.73 548.207 8210.65 561.282C8200.6 573.353 8193.05 583.411 8188.01 591.459C8180.98 602.525 8169.91 621.131 8154.82 647.285C8139.73 673.439 8124.15 702.107 8108.04 733.288C8092.95 763.465 8079.88 791.628 8068.8 817.782C8057.76 843.936 8052.21 863.047 8052.21 875.118C8052.21 889.201 8059.27 896.241 8073.33 896.241C8088.42 896.241 8105.53 889.201 8124.64 875.118C8143.77 861.034 8162.87 843.936 8181.98 823.818C8202.11 802.694 8220.22 782.075 8236.3 761.956C8253.41 740.832 8266.99 724.235 8277.04 712.165C8283.08 718.2 8282.6 726.749 8275.54 737.815C8269.5 747.873 8263.98 755.921 8258.94 761.956C8238.84 788.11 8215.69 815.269 8189.52 843.432C8163.39 870.591 8134.72 893.728 8103.51 912.838C8073.33 930.944 8042.16 939.997 8009.95 939.997ZM7846.98 887.188C7859.05 887.188 7875.65 878.639 7896.78 861.538C7918.93 843.432 7942.56 821.304 7967.7 795.15C7992.87 767.991 8016.5 739.828 8038.62 710.656C8060.78 680.479 8078.88 653.321 8092.95 629.179C8108.04 604.033 8115.58 584.92 8115.58 571.844C8115.58 560.778 8112.08 553.234 8105.02 549.212C8098.98 545.189 8090.96 543.177 8080.88 543.177C8064.79 543.177 8047.2 549.212 8028.06 561.282C8009.95 572.348 7995.38 583.411 7984.3 594.477C7972.23 605.542 7957.65 623.144 7940.54 647.285C7924.45 670.422 7908.37 696.072 7892.25 724.235C7876.17 752.399 7862.59 779.558 7851.51 805.712C7840.46 831.866 7834.91 852.989 7834.91 869.082C7834.91 881.153 7838.95 887.188 7846.98 887.188ZM8802.02 953.577C8761.76 953.577 8721.53 950.055 8681.3 943.015C8641.04 936.979 8604.34 925.413 8571.15 908.312C8538.94 891.211 8512.78 867.07 8492.68 835.888C8472.55 804.707 8462.5 764.47 8462.5 715.182C8462.5 673.94 8470.53 626.666 8486.64 573.353C8503.72 519.035 8528.89 464.718 8562.09 410.4C8595.29 355.078 8636.52 303.778 8685.83 256.5C8736.11 209.223 8793.96 171.503 8859.36 143.338C8925.76 114.168 9000.18 99.5824 9082.69 99.5824C9203.41 99.5824 9291.42 119.197 9346.77 158.427C9402.09 196.65 9429.76 256.5 9429.76 337.977C9429.76 417.44 9413.16 493.889 9379.96 567.318C9347.76 640.746 9302.49 706.633 9244.16 764.974C9186.81 823.314 9120.42 869.586 9044.97 903.785C8969.52 936.979 8888.52 953.577 8802.02 953.577ZM8789.95 930.944C8851.3 930.944 8909.64 919.378 8964.99 896.241C9021.31 872.1 9072.13 839.911 9117.4 799.677C9163.67 758.434 9203.41 711.661 9236.61 659.356C9270.8 607.051 9296.97 552.229 9315.08 494.894C9334.18 437.559 9343.75 380.728 9343.75 324.397C9343.75 262.032 9324.13 212.744 9284.9 176.532C9245.66 140.321 9179.27 122.215 9085.71 122.215C9032.38 122.215 8979.06 135.794 8925.76 162.953C8873.43 189.106 8824.14 224.312 8777.88 268.571C8732.61 312.83 8691.87 361.614 8655.65 414.927C8620.43 468.239 8592.76 522.053 8572.66 576.371C8552.53 630.688 8542.48 681.484 8542.48 728.762C8542.48 792.132 8561.07 841.924 8598.31 878.135C8636.52 913.342 8700.41 930.944 8789.95 930.944ZM9408.24 956.594C9404.23 956.594 9404.23 952.572 9408.24 944.524C9413.28 935.471 9417.81 925.413 9421.82 914.347C9426.86 903.281 9431.9 891.211 9436.91 878.135C9446.99 853.994 9458.04 826.835 9470.11 796.659C9482.18 766.482 9493.77 737.311 9504.82 709.147C9515.89 679.976 9525.46 655.333 9533.49 635.215C9542.54 614.091 9548.58 600.512 9551.6 594.477C9537.53 609.565 9520.42 628.676 9500.29 651.812C9481.19 673.94 9463.08 695.568 9445.97 716.691C9428.89 737.815 9415.79 754.412 9406.73 766.482C9403.72 770.505 9401.21 772.518 9399.19 772.518C9397.2 772.518 9396.17 770.004 9396.17 764.974C9396.17 756.926 9398.71 749.381 9403.72 742.341C9422.85 718.2 9443.98 691.041 9467.09 660.865C9491.24 630.688 9512.88 603.026 9531.98 577.879C9551.11 551.726 9563.19 534.628 9568.2 526.579C9579.27 524.567 9595.36 521.549 9616.48 517.527C9638.64 513.504 9653.73 507.97 9661.75 500.929C9664.77 497.912 9667.79 496.403 9670.81 496.403C9672.83 496.403 9673.83 498.416 9673.83 502.438C9674.85 505.456 9673.82 508.978 9670.81 513C9664.77 519.035 9655.72 532.111 9643.65 552.229C9632.6 572.348 9620.01 595.481 9605.92 621.635C9591.86 647.789 9578.28 672.935 9565.18 697.077C9575.26 681.988 9588.33 664.386 9604.41 644.268C9621.52 623.144 9640.14 603.026 9660.24 583.915C9680.37 563.796 9700.5 547.199 9720.6 534.124C9741.73 521.048 9761.35 514.509 9779.45 514.509C9792.55 514.509 9803.6 517.527 9812.65 523.562C9821.71 528.592 9828.77 538.146 9833.78 552.229C9836.8 559.27 9838.3 567.318 9838.3 576.371C9838.3 593.472 9833.78 610.069 9824.72 626.162C9816.7 641.25 9810.66 652.817 9806.62 660.865C9805.62 663.882 9802.09 666.9 9796.05 669.918C9790.02 671.93 9787.51 670.923 9788.51 666.9C9789.53 661.87 9790.02 656.842 9790.02 651.812C9791.04 646.781 9791.53 641.25 9791.53 635.215C9791.53 618.114 9788.02 602.525 9780.96 588.441C9774.93 574.358 9763.37 567.318 9746.26 567.318C9730.17 567.318 9710.55 577.375 9687.41 597.494C9664.29 617.613 9641.14 640.746 9617.99 666.9C9588.84 701.099 9565.69 733.792 9548.58 764.974C9531.5 795.15 9517.4 824.823 9506.33 853.994C9500.29 870.087 9494.26 886.183 9488.22 902.277C9482.18 917.365 9477.66 929.435 9474.64 938.488C9461.57 939.493 9448.5 942.511 9435.41 947.541C9422.34 953.577 9413.28 956.594 9408.24 956.594ZM9870.69 939.997C9860.64 939.997 9852.1 937.984 9845.04 933.962C9838 929.939 9834.47 922.395 9834.47 911.329C9834.47 897.246 9838 880.649 9845.04 861.538C9853.09 842.428 9861.63 823.314 9870.69 804.203C9879.74 785.092 9887.29 769.5 9893.32 757.429C9898.36 748.377 9904.91 734.293 9912.94 715.182C9921.99 695.064 9931.05 674.444 9940.1 653.321C9950.18 631.192 9958.21 612.582 9964.24 597.494C9971.31 582.406 9974.81 574.862 9974.81 574.862C9965.75 584.92 9953.68 599.003 9938.59 617.109C9924.53 635.215 9908.93 654.326 9891.81 674.444C9875.73 693.555 9860.64 711.661 9846.54 728.762C9833.48 745.863 9823.91 758.434 9817.87 766.482C9814.85 770.505 9812.35 772.518 9810.33 772.518C9808.34 772.518 9807.31 770.004 9807.31 764.974C9807.31 756.926 9809.85 749.381 9814.86 742.341C9826.93 727.253 9841.53 709.147 9858.62 688.024C9875.73 665.895 9892.84 643.764 9909.92 621.635C9928.03 599.507 9943.63 579.892 9956.7 562.791C9948.67 562.791 9938.11 563.295 9925.01 564.3C9912.94 565.305 9901.89 566.814 9891.81 568.827C9881.76 569.831 9876.24 570.335 9875.21 570.335C9870.2 570.335 9870.69 566.313 9876.72 558.265C9882.76 550.217 9890.82 542.172 9900.87 534.124C9910.95 526.076 9918.49 522.053 9923.5 522.053C9924.53 522.053 9932.56 522.557 9947.65 523.562C9962.74 523.562 9973.81 523.562 9980.84 523.562C10001 496.403 10020.6 465.222 10039.7 430.015C10059.8 394.808 10079.4 356.082 10098.5 313.835C10106.6 312.83 10120.2 307.296 10139.3 297.238C10159.4 286.174 10175 275.109 10186.1 264.044C10191.1 259.015 10195.1 256.5 10198.1 256.5C10204.2 256.5 10204.2 260.523 10198.1 268.571C10191.1 276.618 10179 293.718 10161.9 319.871C10144.8 345.017 10125.7 375.697 10104.6 411.909C10083.5 447.116 10063.4 484.332 10044.2 523.562H10166.4C10177.5 523.562 10183 525.071 10183 528.088C10183 532.111 10175.5 536.136 10160.4 540.159C10143.3 545.189 10125.2 548.207 10106.1 549.212C10088 550.217 10070.9 552.229 10054.8 555.247C10039.7 558.265 10028.6 564.804 10021.6 574.862C10015.6 581.902 10007 596.99 9995.93 620.127C9984.89 643.263 9972.82 669.918 9959.72 700.094C9947.65 729.266 9937.08 758.938 9928.03 789.115C9918.98 818.286 9913.45 842.928 9911.43 863.047V869.082C9911.43 877.13 9913.97 883.667 9918.97 888.697C9924.01 893.728 9929.05 896.241 9934.06 896.241C9947.16 896.241 9963.76 888.193 9983.86 872.1C10005 856.007 10026.6 836.893 10048.7 814.765C10070.9 791.628 10090 770.505 10106.1 751.394C10113.2 743.346 10119.2 735.802 10124.2 728.762C10130.2 721.722 10133.8 717.195 10134.8 715.182C10136.8 719.205 10137.8 722.223 10137.8 724.235C10137.8 730.271 10135.8 736.81 10131.7 743.85C10128.7 750.89 10125.2 756.926 10121.2 761.956C10102.1 787.102 10078.9 813.76 10051.8 841.924C10024.6 869.082 9995.45 892.219 9964.24 911.329C9934.06 930.44 9902.89 939.997 9870.69 939.997ZM10332.8 944.524C10317.7 944.524 10304.1 941.506 10292.1 935.471C10281 929.435 10275.5 918.37 10275.5 902.277C10275.5 893.224 10277.5 883.166 10281.5 872.1C10290.5 848.964 10302.6 820.8 10317.7 787.606C10333.8 754.412 10349.9 722.223 10366 691.041C10382.1 658.852 10394.7 632.701 10403.7 612.582C10409.8 600.512 10412.8 591.963 10412.8 586.932C10412.8 577.879 10407.8 575.867 10397.7 580.897C10387.6 585.928 10376.6 592.968 10364.5 602.021C10352.4 611.074 10343.4 618.114 10337.3 623.144C10311.2 647.285 10283.5 675.953 10254.3 709.147C10226.2 741.336 10200 775.535 10175.9 811.747C10152.7 846.954 10134.6 882.158 10121.5 917.365C10120.5 923.4 10114 928.43 10101.9 932.453C10089.9 936.476 10078.8 938.488 10068.7 938.488C10052.6 938.488 10046.6 933.458 10050.6 923.4C10073.8 871.095 10097.4 813.256 10121.5 749.885C10146.7 686.515 10174.9 621.635 10206 555.247C10229.2 504.952 10254.8 453.151 10283 399.838C10312.2 346.526 10344.4 295.729 10379.6 247.447C10414.8 198.159 10453.5 154.906 10495.8 117.688C10533 85.5 10573.8 59.3472 10618 39.2295C10663.3 18.1059 10712.1 7.54419 10764.4 7.54419C10787.5 7.54419 10807.6 12.5736 10824.7 22.6324C10841.8 31.6854 10851.4 48.2824 10853.4 72.4236V86.003C10853.4 100.085 10851.9 114.168 10848.9 128.25C10847.9 132.273 10843.9 134.285 10836.8 134.285C10833.8 134.285 10832.8 133.782 10833.8 132.777C10837.8 106.624 10830.8 88.0149 10812.7 76.9501C10795.6 65.8853 10773.4 60.353 10746.3 60.353C10697 60.353 10651.7 69.406 10610.5 87.5118C10569.2 105.618 10531 129.759 10495.8 159.935C10441.4 207.212 10394.2 267.565 10353.9 340.994C10313.7 414.423 10279 489.363 10249.8 565.809C10235.7 603.026 10221.6 640.245 10207.6 677.462C10194.5 714.678 10181.9 749.381 10169.8 781.571C10215.1 721.218 10258.4 669.414 10299.6 626.162C10341.9 582.91 10378.6 552.229 10409.8 534.124C10434.9 520.04 10457.6 513 10477.7 513C10496.8 513 10506.3 521.048 10506.3 537.141C10506.3 551.225 10499.3 569.33 10485.2 591.459C10478.2 602.525 10467.1 621.131 10452 647.285C10437.9 673.439 10422.9 702.107 10406.7 733.288C10391.7 763.465 10378.6 791.628 10367.5 817.782C10356.5 843.936 10350.9 863.047 10350.9 875.118C10350.9 891.211 10358 899.259 10372 899.259C10380.1 899.259 10389.1 896.745 10399.2 891.715C10410.3 886.684 10418.3 882.158 10423.3 878.135C10450.5 858.017 10477.2 833.375 10503.3 804.203C10529.5 775.031 10551.6 749.381 10569.7 727.253C10570.7 726.248 10571.2 727.757 10571.2 731.779C10571.2 735.802 10570.2 741.837 10568.2 749.885C10567.2 756.926 10564.2 762.961 10559.1 767.991C10548.1 783.079 10536.5 797.664 10524.4 811.747C10513.4 824.823 10502.3 837.901 10491.2 850.977C10472.1 873.105 10449 894.228 10421.8 914.347C10395.7 934.466 10366 944.524 10332.8 944.524ZM10577.2 938.488C10561.1 938.488 10546.5 935.471 10533.4 929.435C10521.4 922.395 10515.3 907.808 10515.3 885.679C10515.3 850.473 10524.4 815.269 10542.5 780.062C10560.6 743.85 10579.2 712.165 10598.3 685.006C10615.4 661.87 10634.5 640.245 10655.7 620.127C10677.8 599.003 10701.4 580.897 10726.6 565.809C10742.7 555.751 10764.3 545.189 10791.5 534.124C10819.6 522.053 10843.3 516.018 10862.4 516.018C10878.5 516.018 10892.6 520.544 10904.6 529.597C10916.7 537.645 10922.8 552.733 10922.8 574.862C10922.8 609.061 10913.7 644.268 10895.6 680.479C10878.5 715.686 10860.4 746.868 10841.3 774.027C10832.2 786.097 10823.2 797.664 10814.1 808.729C10805.1 818.787 10795 829.349 10783.9 840.415C10821.1 840.415 10855.3 829.853 10886.5 808.729C10917.7 786.601 10944.9 759.943 10968 728.762L10971 725.744C10974.1 725.744 10975.6 728.762 10975.6 734.797C10975.6 741.837 10973.5 748.377 10969.5 754.412C10949.4 782.576 10924.3 807.725 10894.1 829.853C10863.9 850.977 10829.7 861.538 10791.5 861.538C10787.4 861.538 10783.4 861.538 10779.4 861.538C10775.4 861.538 10771.3 861.034 10767.3 860.029C10711 912.334 10647.6 938.488 10577.2 938.488ZM10616.4 912.838C10630.5 912.838 10645.6 907.808 10661.7 897.75C10678.8 887.692 10691.9 878.135 10700.9 869.082C10718 851.981 10733.6 833.876 10747.7 814.765C10761.8 794.646 10774.9 774.53 10786.9 754.412C10801 730.271 10815.1 701.603 10829.2 668.409C10843.3 635.215 10850.3 604.033 10850.3 574.862C10850.3 551.725 10842.3 540.159 10826.2 540.159C10813.1 540.159 10797 545.69 10777.9 556.756C10759.8 567.822 10746.2 577.879 10737.1 586.932C10702.9 622.139 10674.3 660.361 10651.1 701.603C10638 724.739 10624 751.898 10608.9 783.079C10593.8 814.261 10586.3 842.928 10586.3 869.082C10586.3 873.105 10586.3 877.13 10586.3 881.153C10587.2 884.171 10588.2 887.692 10589.3 891.715C10593.3 905.798 10602.3 912.838 10616.4 912.838ZM11379.3 994.315C11348.2 994.315 11318.5 985.262 11290.3 967.156C11262.2 950.055 11241 923.4 11226.9 887.188C11221.9 874.113 11218.4 860.029 11216.4 844.941C11214.4 829.853 11213.4 815.77 11213.4 802.694V789.115C11213.4 781.067 11213.9 773.022 11214.9 764.974C11216.9 756.926 11221.4 752.903 11228.4 752.903C11230.5 752.903 11231.5 753.908 11231.5 755.921C11231.5 761.956 11231 768.495 11230 775.535C11230 781.571 11230 787.606 11230 793.641C11230 840.919 11241.5 876.627 11264.7 900.768C11288.8 924.909 11318.5 936.979 11353.7 936.979C11388.9 936.979 11423.1 926.922 11456.3 906.803C11489.5 886.684 11520.2 861.034 11548.4 829.853C11576.5 798.672 11603.2 759.943 11628.3 713.674C11653.5 667.404 11677.1 618.618 11699.2 567.318C11721.4 515.013 11742 463.713 11761.1 413.418C11781.2 363.123 11799.9 318.362 11817 279.132C11827 255.997 11845.6 236.382 11872.8 220.288C11901 204.194 11927.6 192.626 11952.8 185.585C11945.7 184.58 11938.7 184.077 11931.6 184.077C11925.6 183.071 11919.6 182.065 11913.5 181.059L11700.8 159.935C11684.7 157.924 11663.5 156.415 11637.4 155.409C11611.2 154.403 11583.6 153.9 11554.4 153.9C11515.2 153.9 11474.9 156.415 11433.7 161.444C11392.4 165.468 11355.2 173.012 11322 184.077C11288.8 195.141 11264.7 211.738 11249.6 233.868C11241.5 245.938 11237.5 260.021 11237.5 276.115C11237.5 292.209 11242 307.296 11251.1 321.379C11260.1 335.463 11271.7 346.526 11285.8 354.574C11287.8 356.586 11288.8 358.095 11288.8 359.1C11288.8 362.118 11286.3 364.631 11281.3 366.644C11277.2 368.657 11272.7 368.657 11267.7 366.644C11258.6 361.614 11248.1 353.065 11236 340.994C11223.9 328.924 11212.9 316.349 11202.8 303.274C11193.7 289.191 11187.2 277.624 11183.2 268.571C11177.1 251.471 11174.1 236.382 11174.1 223.306C11174.1 199.165 11182.2 179.55 11198.3 164.462C11215.4 148.368 11237 136.297 11263.2 128.25C11290.3 119.197 11319 113.162 11349.2 110.144C11380.4 106.121 11410 104.109 11438.2 104.109C11449.3 104.109 11459.8 104.109 11469.9 104.109C11480 104.109 11489.5 104.612 11498.6 105.618C11530.8 107.63 11564.5 109.641 11599.7 111.653C11634.9 113.665 11670.6 116.179 11706.8 119.197L11946.7 138.812C11962.8 139.818 11987 141.829 12019.2 144.847C12052.4 146.859 12086.1 147.865 12120.3 147.865C12157.5 147.865 12191.7 145.853 12222.9 141.829C12254.1 136.8 12274.7 128.25 12284.7 116.179C12286.8 112.156 12289.8 111.15 12293.8 113.162C12297.8 115.173 12298.8 117.688 12296.8 120.706C12293.8 132.777 12289.8 141.829 12284.7 147.865C12279.7 157.923 12272.7 168.988 12263.6 181.059C12255.6 193.129 12243 201.177 12225.9 205.2C12221.9 206.206 12216.4 207.212 12209.3 208.218C12202.3 208.218 12194.7 208.218 12186.7 208.218C12163.5 208.218 12135.3 206.709 12102.2 203.691C12070 199.668 12038.3 195.644 12007.1 191.621C11976.9 196.65 11950.8 210.732 11928.6 233.868C11906.5 257.003 11887.4 283.659 11871.3 313.835C11855.2 343.007 11841.1 370.667 11829 396.821C11806.9 442.085 11788.3 483.828 11773.2 522.053C11759.1 559.27 11741.5 600.512 11720.4 645.777C11699.2 692.046 11677.1 737.815 11654 783.079C11630.9 827.339 11602.7 867.574 11569.5 903.785C11544.3 930.944 11515.2 952.572 11482 968.665C11448.8 985.766 11414.6 994.315 11379.3 994.315ZM11944.7 947.541C11903.4 947.541 11874.8 939.493 11858.7 923.4C11842.6 907.307 11834.5 887.692 11834.5 864.556C11834.5 835.384 11842.1 804.203 11857.2 771.009C11873.3 737.815 11888.4 709.651 11902.4 686.515C11918.5 662.374 11940.1 637.228 11967.3 611.074C11994.5 584.92 12024.2 562.791 12056.3 544.685C12088.5 526.579 12119.7 517.527 12149.9 517.527C12176.1 517.527 12194.2 524.066 12204.2 537.141C12214.3 549.212 12219.3 563.796 12219.3 580.897C12219.3 612.078 12209.8 637.728 12190.6 657.847C12172.5 677.966 12149.9 694.563 12122.7 707.638C12095.6 719.709 12069.4 729.767 12044.3 737.815C12029.2 741.837 12011.6 745.863 11991.5 749.885C11971.4 753.908 11952.2 755.921 11934.1 755.921C11927.1 774.027 11921.6 791.628 11917.5 808.729C11913.5 825.83 11911.5 841.42 11911.5 855.503C11911.5 872.604 11915.5 886.684 11923.5 897.75C11932.6 908.816 11947.2 914.347 11967.3 914.347C11975.4 914.347 11984.9 913.342 11996 911.329C12007.1 909.317 12019.1 906.299 12032.2 902.277C12062.4 892.219 12092.1 876.123 12121.2 853.994C12150.4 831.866 12177.1 808.226 12201.2 783.079C12226.4 756.926 12245.5 735.301 12258.5 718.2C12261.6 721.218 12263.1 724.739 12263.1 728.762C12263.1 733.792 12259.6 741.837 12252.5 752.903C12232.4 781.067 12206.2 810.238 12174 840.415C12141.9 870.591 12106.1 896.241 12066.9 917.365C12027.7 937.483 11986.9 947.541 11944.7 947.541ZM11946.2 725.744C11959.3 726.749 11973.9 726.749 11989.9 725.744C12007.1 723.731 12023.7 720.213 12039.7 715.182C12081 703.112 12110.7 684.001 12128.8 657.847C12147.9 630.688 12157.4 606.547 12157.4 585.424C12157.4 573.353 12154.9 563.295 12149.9 555.247C12144.9 547.199 12136.8 543.177 12125.8 543.177C12096.6 543.177 12070.4 554.242 12047.3 576.371C12024.2 597.494 12004 622.139 11986.9 650.303C11969.8 678.467 11956.3 703.616 11946.2 725.744ZM12439.7 939.997C12429.6 939.997 12421.1 937.984 12414 933.962C12407 929.939 12403.5 922.395 12403.5 911.329C12403.5 897.246 12407 881.153 12414 863.047C12421.1 844.941 12429.1 827.339 12438.2 810.238C12447.2 792.132 12455.3 777.548 12462.3 766.482C12427.1 803.699 12390.4 838.906 12352.2 872.1C12333 888.193 12311.9 903.281 12288.8 917.365C12265.6 931.448 12241 938.488 12214.8 938.488C12204.8 938.488 12197.7 935.471 12193.7 929.435C12189.7 922.395 12187.7 914.347 12187.7 905.294C12187.7 900.264 12188.2 896.745 12189.2 894.732C12194.2 855.503 12206.8 814.765 12226.9 772.518C12247 730.271 12271.7 690.537 12300.9 653.321C12330 616.104 12359.7 585.928 12389.9 562.791C12424.1 536.637 12461.8 523.562 12503.1 523.562H12676.6C12681.6 523.562 12684.1 525.575 12684.1 529.597C12684.1 537.645 12679.6 541.668 12670.6 541.668C12660.5 541.668 12650.4 548.207 12640.4 561.282C12630.3 573.353 12622.8 583.411 12617.7 591.459C12610.7 602.525 12599.6 621.131 12584.5 647.285C12569.5 673.439 12553.9 702.107 12537.8 733.288C12522.7 763.465 12509.6 791.628 12498.5 817.782C12487.5 843.936 12481.9 863.047 12481.9 875.118C12481.9 889.201 12489 896.241 12503.1 896.241C12518.1 896.241 12535.2 889.201 12554.4 875.118C12573.5 861.034 12592.6 843.936 12611.7 823.818C12631.8 802.694 12649.9 782.075 12666 761.956C12683.1 740.832 12696.7 724.235 12706.8 712.165C12712.8 718.2 12712.3 726.749 12705.3 737.815C12699.2 747.873 12693.7 755.921 12688.7 761.956C12668.5 788.11 12645.4 815.269 12619.2 843.432C12593.1 870.591 12564.4 893.728 12533.2 912.838C12503.1 930.944 12471.9 939.997 12439.7 939.997ZM12276.7 887.188C12288.8 887.188 12305.4 878.639 12326.5 861.538C12348.6 843.432 12372.3 821.304 12397.4 795.15C12422.6 767.991 12446.2 739.828 12468.4 710.656C12490.5 680.479 12508.6 653.321 12522.7 629.179C12537.8 604.033 12545.3 584.92 12545.3 571.844C12545.3 560.778 12541.8 553.234 12534.7 549.212C12528.7 545.189 12520.7 543.177 12510.6 543.177C12494.5 543.177 12476.9 549.212 12457.8 561.282C12439.7 572.348 12425.1 583.411 12414 594.477C12402 605.542 12387.3 623.144 12370.3 647.285C12354.2 670.422 12338.1 696.072 12322 724.235C12305.9 752.399 12292.3 779.558 12281.2 805.712C12270.2 831.866 12264.6 852.989 12264.6 869.082C12264.6 881.153 12268.7 887.188 12276.7 887.188ZM12687.1 958.103C12683 958.103 12683 953.576 12687.1 944.524C12692.1 935.471 12696.6 925.413 12700.6 914.347C12705.7 903.281 12710.7 891.211 12715.7 878.135C12725.8 853.994 12736.9 826.835 12748.9 796.659C12761 766.482 12772.6 737.311 12783.6 709.147C12794.7 679.976 12804.3 655.333 12812.3 635.215C12821.4 614.091 12827.4 600.512 12830.4 594.477C12816.3 609.565 12799.2 628.676 12779.1 651.812C12760 673.94 12741.9 695.568 12724.8 716.691C12707.7 737.815 12694.6 754.412 12685.6 766.482C12682.5 770.505 12680 772.518 12678 772.518C12676 772.518 12675 770.004 12675 764.974C12675 756.926 12677.5 749.381 12682.5 742.341C12701.6 718.2 12722.8 691.041 12745.9 660.865C12770.1 630.688 12791.7 603.026 12810.8 577.879C12829.9 551.726 12842 534.628 12847 526.579C12858.1 524.567 12874.2 521.549 12895.3 517.527C12917.4 513.504 12932.5 507.97 12940.6 500.929C12943.6 497.912 12946.6 496.403 12949.6 496.403C12951.6 496.403 12952.6 498.416 12952.6 502.438C12953.6 505.456 12952.6 508.978 12949.6 513C12943.6 520.04 12933 536.637 12917.9 562.791C12903.8 587.937 12888.2 616.104 12871.2 647.285C12855 678.467 12840 706.633 12825.9 731.779C12842 712.669 12857.6 694.563 12872.7 677.462C12888.8 660.361 12899.8 648.29 12905.9 641.25C12917.9 629.179 12934.5 614.091 12955.7 595.985C12976.8 577.879 12998.9 561.282 13022.1 546.194C13045.2 531.106 13065.3 522.557 13082.4 520.544C13086.4 519.539 13090 519.035 13093 519.035C13096 519.035 13099 519.035 13102 519.035C13121.1 519.035 13130.7 526.076 13130.7 540.159C13130.7 546.194 13129.2 553.234 13126.2 561.282C13123.2 569.33 13119.1 577.376 13114.1 585.424C13108.1 597.494 13098 616.605 13083.9 642.759C13069.8 667.905 13057.2 691.041 13046.2 712.165L13117.1 641.25C13129.2 629.179 13145.8 614.091 13166.9 595.985C13188 577.879 13210.2 561.282 13233.3 546.194C13256.4 531.106 13276.6 522.557 13293.7 520.544C13297.7 519.539 13301.2 519.035 13304.2 519.035C13308.3 519.035 13311.3 519.035 13313.3 519.035C13335.4 519.035 13346.5 527.083 13346.5 543.177C13346.5 555.247 13339.9 571.34 13326.9 591.459C13319.8 602.525 13308.8 621.131 13293.7 647.285C13278.6 673.439 13263 702.107 13246.9 733.288C13231.8 763.465 13218.7 791.628 13207.7 817.782C13196.6 843.936 13191.1 863.047 13191.1 875.118C13191.1 889.201 13198.1 896.241 13212.2 896.241C13225.3 896.241 13241.9 888.697 13262 873.609C13283.1 857.516 13304.2 838.402 13325.4 816.274C13347.5 794.145 13366.6 773.022 13382.7 752.903C13389.7 744.855 13396.3 736.81 13402.3 728.762C13409.4 719.709 13413.4 714.678 13414.4 713.674C13416.4 715.686 13417.4 719.205 13417.4 724.235C13417.4 731.276 13414.9 738.319 13409.9 745.359C13405.8 751.394 13401.8 756.926 13397.8 761.956C13378.7 787.102 13356.5 813.256 13331.4 840.415C13307.3 867.574 13280.6 890.71 13251.4 909.821C13222.2 927.927 13191.1 938.488 13157.9 941.506C13147.8 942.511 13137.7 940.501 13127.7 935.471C13117.6 930.44 13112.6 922.395 13112.6 911.329C13112.6 897.246 13116.1 880.649 13123.2 861.538C13131.2 842.428 13139.8 823.314 13148.8 804.203C13158.9 785.092 13166.4 769.5 13171.4 757.429C13189.6 722.223 13206.2 689.028 13221.2 657.847C13236.3 626.666 13246.9 604.534 13252.9 591.459C13256 585.424 13257.5 580.393 13257.5 576.371C13257.5 569.33 13251.9 568.827 13240.9 574.862C13229.8 580.897 13216.2 589.95 13200.1 602.021C13185 614.091 13170.9 626.162 13157.9 638.232C13144.8 649.298 13136.2 656.842 13132.2 660.865C13115.1 677.966 13094.5 701.099 13070.3 730.271C13047.2 759.442 13025.6 790.12 13005.5 822.309C12985.3 853.49 12971.2 882.662 12963.2 909.821C12953.1 918.874 12943.6 923.4 12934.5 923.4C12927.5 923.4 12921.4 920.886 12916.4 915.856C12912.4 910.826 12910.4 904.79 12910.4 897.75C12910.4 877.631 12916.4 853.994 12928.5 826.835C12941.6 798.672 12952.1 775.535 12960.2 757.429C12978.3 722.223 12994.9 689.028 13010 657.847C13025.1 626.666 13035.6 604.534 13041.7 591.459C13044.7 585.424 13046.2 580.393 13046.2 576.371C13046.2 569.33 13040.7 568.827 13029.6 574.862C13018.5 580.897 13004.9 589.95 12988.9 602.021C12973.8 614.091 12959.7 626.162 12946.6 638.232C12933.5 649.298 12925 656.842 12921 660.865C12896.8 686.011 12874.2 711.661 12853.1 737.815C12832.9 763.969 12815.8 792.132 12801.7 822.309C12793.7 840.415 12785.1 860.533 12776.1 882.662C12767 904.79 12759.5 923.4 12753.5 938.488C12740.4 939.493 12727.3 943.015 12714.2 949.05C12701.1 955.085 12692.1 958.103 12687.1 958.103Z" fill="black"/>
</svg>
